{
.appVersion = "919";
DisplayStrings = (
B
);
copyright = "Copyright (c) 2011 by vernon adams. All rights reserved.";
customParameters = (
{
name = description;
value = "Copyright (c) 2011 by vernon adams. All rights reserved.";
},
{
name = license;
value = "SIL Open Font License, Version 1.1
\012This Font Software is licensed under the SIL Open Font License, Version 1.1.
\012This license is available with a FAQ at: http://scripts.sil.org/OFL";
},
{
name = licenseURL;
value = "http://scripts.sil.org/OFL";
},
{
name = vendorID;
value = newt;
},
{
name = panose;
value = (
2,
0,
5,
3,
3,
0,
0,
2,
0,
3
);
},
{
name = unicodeRanges;
value = (
0,
1,
2,
3,
5,
6,
7,
31,
32,
33,
35,
38,
45,
60,
62
);
},
{
name = codePageRanges;
value = (
1252
);
},
{
name = glyphOrder;
value = (
.notdef,
uni0000,
uni000D,
space,
exclam,
quotedbl,
numbersign,
dollar,
percent,
ampersand,
quotesingle,
parenleft,
parenright,
asterisk,
plus,
comma,
hyphen,
period,
slash,
zero,
one,
two,
three,
four,
five,
six,
seven,
eight,
nine,
colon,
semicolon,
less,
equal,
greater,
question,
at,
A,
B,
C,
D,
E,
F,
G,
H,
I,
J,
K,
L,
M,
N,
O,
P,
Q,
R,
S,
T,
U,
V,
W,
X,
Y,
Z,
bracketleft,
backslash,
bracketright,
asciicircum,
underscore,
grave,
a,
b,
c,
d,
e,
f,
g,
h,
i,
j,
k,
l,
m,
n,
o,
p,
q,
r,
s,
t,
u,
v,
w,
x,
y,
z,
braceleft,
bar,
braceright,
asciitilde,
uni00A0,
exclamdown,
cent,
sterling,
currency,
yen,
brokenbar,
section,
dieresis,
copyright,
ordfeminine,
guillemotleft,
logicalnot,
uni00AD,
registered,
macron,
degree,
plusminus,
twosuperior,
threesuperior,
acute,
mu,
paragraph,
periodcentered,
cedilla,
onesuperior,
ordmasculine,
guillemotright,
onequarter,
onehalf,
threequarters,
questiondown,
Agrave,
Aacute,
Acircumflex,
Atilde,
Adieresis,
Aring,
AE,
Ccedilla,
Egrave,
Eacute,
Ecircumflex,
Edieresis,
Igrave,
Iacute,
Icircumflex,
Idieresis,
Eth,
Ntilde,
Ograve,
Oacute,
Ocircumflex,
Otilde,
Odieresis,
multiply,
Oslash,
Ugrave,
Uacute,
Ucircumflex,
Udieresis,
Yacute,
Thorn,
germandbls,
agrave,
aacute,

glyphs = (
{
glyphname = exclam;
lastChange = "2016-08-29 16:03:12 +0000";
layers = (
{
background = {
paths = (
{
closed = 1;
nodes = (
"356 181 OFFCURVE",
"329 170 OFFCURVE",
"311 153 CURVE SMOOTH",
"293 136 OFFCURVE",
"283 113 OFFCURVE",
"283 92 CURVE SMOOTH",
"283 68 OFFCURVE",
"293 45 OFFCURVE",
"311 29 CURVE SMOOTH",
"329 12 OFFCURVE",
"356 0 OFFCURVE",
"392 0 CURVE SMOOTH",
"428 0 OFFCURVE",
"455 12 OFFCURVE",
"473 29 CURVE SMOOTH",
"491 45 OFFCURVE",
"500 68 OFFCURVE",
"500 92 CURVE SMOOTH",
"500 113 OFFCURVE",
"491 136 OFFCURVE",
"473 153 CURVE SMOOTH",
"455 170 OFFCURVE",
"428 181 OFFCURVE",
"392 181 CURVE SMOOTH"
);
},
{
closed = 1;
nodes = (
"321 385 OFFCURVE",
"353 358 OFFCURVE",
"384 358 CURVE SMOOTH",
"417 358 OFFCURVE",
"446 385 OFFCURVE",
"449 438 CURVE SMOOTH",
"477 1400 LINE SMOOTH",
"477 1455 OFFCURVE",
"434 1480 OFFCURVE",
"386 1480 CURVE SMOOTH",
"337 1480 OFFCURVE",
"293 1452 OFFCURVE",
"293 1400 CURVE SMOOTH",
"320 438 LINE SMOOTH"
);
}
);
};
layerId = "B7B71B2F-D3C2-46AB-9878-0EE3FC7FFFF4";
paths = (
{
closed = 1;
nodes = (
"356 181 OFFCURVE",
"329 170 OFFCURVE",
"311 153 CURVE SMOOTH",
"293 136 OFFCURVE",
"283 113 OFFCURVE",
"283 92 CURVE SMOOTH",
"283 68 OFFCURVE",
"293 45 OFFCURVE",
"311 29 CURVE SMOOTH",
"329 12 OFFCURVE",
"356 0 OFFCURVE",
"392 0 CURVE SMOOTH",
"428 0 OFFCURVE",
"455 12 OFFCURVE",
"473 29 CURVE SMOOTH",
"491 45 OFFCURVE",
"500 68 OFFCURVE",
"500 92 CURVE SMOOTH",
"500 113 OFFCURVE",
"491 136 OFFCURVE",
"473 153 CURVE SMOOTH",
"455 170 OFFCURVE",
"428 181 OFFCURVE",
"392 181 CURVE SMOOTH"
);
},
{
closed = 1;
nodes = (
"321 385 OFFCURVE",
"353 358 OFFCURVE",
"384 358 CURVE SMOOTH",
"417 358 OFFCURVE",
"446 385 OFFCURVE",
"449 438 CURVE SMOOTH",
"477 1400 LINE SMOOTH",
"477 1455 OFFCURVE",
"434 1480 OFFCURVE",
"386 1480 CURVE SMOOTH",
"337 1480 OFFCURVE",
"293 1452 OFFCURVE",
"293 1400 CURVE SMOOTH",
"320 438 LINE SMOOTH"
);
}
);
width = 793;
},
{
associatedMasterId = "B7B71B2F-D3C2-46AB-9878-0EE3FC7FFFF4";
layerId = "4C0A4C52-A9D9-4A1D-B81B-0EDA934B9EB8";
name = "Light Backup";
paths = (
{
closed = 1;
nodes = (
"465 -23 LINE",
"465 152 LINE",
"287 152 LINE",
"277 -23 LINE"
);
},
{
closed = 1;
nodes = (
"318 1467 LINE",
"318 385 LINE",
"450 385 LINE",
"450 1467 LINE"
);
}
);
width = 737;
},
{
associatedMasterId = "B7B71B2F-D3C2-46AB-9878-0EE3FC7FFFF4";
layerId = "14713F14-1CA6-457F-BEE1-3124B2889DBE";
name = "Light Backup_Reg";
paths = (
{
closed = 1;
nodes = (
"474 -23 LINE",
"474 183 LINE",
"260 183 LINE",
"260 -23 LINE"
);
},
{
closed = 1;
nodes = (
"271 1451 LINE",
"311 373 LINE",
"426 373 LINE",
"466 1451 LINE"
);
}
);
width = 737;
}
);
note = exclam;
unicode = 0021;
},
{
glyphname = quotedbl;
lastChange = "2016-08-29 16:03:12 +0000";
layers = (
{
background = {
paths = (
{
closed = 1;
nodes = (
"395 1016 OFFCURVE",
"419 994 OFFCURVE",
"446 994 CURVE SMOOTH",
"471 994 OFFCURVE",
"498 1016 OFFCURVE",
"501 1059 CURVE SMOOTH",
"528 1408 LINE",
"528 1414 LINE SMOOTH",
"528 1458 OFFCURVE",
"488 1480 OFFCURVE",
"447 1480 CURVE SMOOTH",
"406 1480 OFFCURVE",
"365 1457 OFFCURVE",
"365 1414 CURVE SMOOTH",
"365 1408 LINE",
"392 1059 LINE SMOOTH"
);
},
{
closed = 1;
nodes = (
"128 1016 OFFCURVE",
"154 994 OFFCURVE",
"179 994 CURVE SMOOTH",
"204 994 OFFCURVE",
"231 1016 OFFCURVE",
"234 1059 CURVE SMOOTH",
"261 1408 LINE",
"261 1414 LINE SMOOTH",
"261 1458 OFFCURVE",
"221 1480 OFFCURVE",
"180 1480 CURVE SMOOTH",
"139 1480 OFFCURVE",
"98 1457 OFFCURVE",
"98 1414 CURVE SMOOTH",
"98 1408 LINE",
"125 1059 LINE SMOOTH"
);
}
);
};
layerId = "B7B71B2F-D3C2-46AB-9878-0EE3FC7FFFF4";
paths = (
{
closed = 1;
nodes = (
"395 1016 OFFCURVE",
"419 994 OFFCURVE",
"446 994 CURVE SMOOTH",
"471 994 OFFCURVE",
"498 1016 OFFCURVE",
"501 1059 CURVE SMOOTH",
"528 1408 LINE",
"528 1414 LINE SMOOTH",
"528 1458 OFFCURVE",
"488 1480 OFFCURVE",
"447 1480 CURVE SMOOTH",
"406 1480 OFFCURVE",
"365 1457 OFFCURVE",
"365 1414 CURVE SMOOTH",
"365 1408 LINE",
"392 1059 LINE SMOOTH"
);
},
{
closed = 1;
nodes = (
"128 1016 OFFCURVE",
"154 994 OFFCURVE",
"179 994 CURVE SMOOTH",
"204 994 OFFCURVE",
"231 1016 OFFCURVE",
"234 1059 CURVE SMOOTH",
"261 1408 LINE",
"261 1414 LINE SMOOTH",
"261 1458 OFFCURVE",
"221 1480 OFFCURVE",
"180 1480 CURVE SMOOTH",
"139 1480 OFFCURVE",
"98 1457 OFFCURVE",
"98 1414 CURVE SMOOTH",
"98 1408 LINE",
"125 1059 LINE SMOOTH"
);
}
);
width = 633;
},
{
associatedMasterId = "B7B71B2F-D3C2-46AB-9878-0EE3FC7FFFF4";
layerId = "4C0A4C52-A9D9-4A1D-B81B-0EDA934B9EB8";
name = "Light Backup";
paths = (
{
closed = 1;
nodes = (
"575 1467 LINE",
"437 1467 LINE",
"471 1026 LINE",
"575 1026 LINE"
);
},
{
closed = 1;
nodes = (
"275 1467 LINE",
"139 1467 LINE",
"173 1026 LINE",
"275 1026 LINE"
);
}
);
width = 720;
},
{
associatedMasterId = "B7B71B2F-D3C2-46AB-9878-0EE3FC7FFFF4";
layerId = "14713F14-1CA6-457F-BEE1-3124B2889DBE";
name = "Light Backup_Reg";
paths = (
{
closed = 1;
nodes = (
"587 1451 LINE",
"403 1451 LINE",
"439 989 LINE",
"569 989 LINE"
);
},
{
closed = 1;
nodes = (
"297 1451 LINE",
"114 1451 LINE",
"150 989 LINE",
"281 989 LINE"
);
}
);
width = 720;
}
);
note = quotedbl;
unicode = 0022;
},
{
glyphname = numbersign;
lastChange = "2016-08-29 16:03:12 +0000";
layers = (
{
background = {
paths = (
{
closed = 1;
nodes = (
"624 26 OFFCURVE",
"624 24 OFFCURVE",
"624 21 CURVE SMOOTH",
"624 15 LINE SMOOTH",
"624 -28 OFFCURVE",
"657 -51 OFFCURVE",
"690 -51 CURVE SMOOTH",
"721 -51 OFFCURVE",
"752 -31 OFFCURVE",
"759 10 CURVE SMOOTH",
"825 459 LINE",
"974 459 LINE SMOOTH",
"1018 459 OFFCURVE",
"1040 491 OFFCURVE",
"1040 523 CURVE SMOOTH",
"1040 556 OFFCURVE",
"1017 589 OFFCURVE",
"974 589 CURVE SMOOTH",
"845 589 LINE",
"885 863 LINE",
"1031 863 LINE SMOOTH",
"1075 863 OFFCURVE",
"1096 895 OFFCURVE",
"1096 928 CURVE SMOOTH",
"1096 961 OFFCURVE",
"1074 994 OFFCURVE",
"1031 994 CURVE SMOOTH",
"904 994 LINE",
"962 1381 LINE",
"963 1384 OFFCURVE",
"963 1386 OFFCURVE",
"963 1388 CURVE SMOOTH",
"963 1395 LINE SMOOTH",
"963 1438 OFFCURVE",
"931 1460 OFFCURVE",
"896 1460 CURVE SMOOTH",
"864 1460 OFFCURVE",
"831 1440 OFFCURVE",
"824 1399 CURVE SMOOTH",
"765 994 LINE",
"500 994 LINE",
"558 1381 LINE",
"559 1384 OFFCURVE",
"559 1386 OFFCURVE",
"559 1388 CURVE SMOOTH",
"559 1395 LINE SMOOTH",
"559 1438 OFFCURVE",
"527 1460 OFFCURVE",
"492 1460 CURVE SMOOTH",
"460 1460 OFFCURVE",
"427 1440 OFFCURVE",
"420 1399 CURVE SMOOTH",
"361 994 LINE",
"193 994 LINE SMOOTH",
"149 994 OFFCURVE",
"128 962 OFFCURVE",
"128 929 CURVE SMOOTH",
"128 896 OFFCURVE",
"150 863 OFFCURVE",
"193 863 CURVE SMOOTH",
"342 863 LINE",
"302 589 LINE",
"137 589 LINE SMOOTH",
"93 589 OFFCURVE",
"72 557 OFFCURVE",
"72 524 CURVE SMOOTH",
"72 492 OFFCURVE",
"94 459 OFFCURVE",
"137 459 CURVE SMOOTH",
"284 459 LINE",
"221 29 LINE",
"220 26 OFFCURVE",
"220 24 OFFCURVE",
"220 21 CURVE SMOOTH",
"220 15 LINE SMOOTH",
"220 -28 OFFCURVE",
"253 -51 OFFCURVE",
"286 -51 CURVE SMOOTH",
"317 -51 OFFCURVE",
"348 -31 OFFCURVE",
"355 10 CURVE SMOOTH",
"422 459 LINE",
"687 459 LINE",
"625 29 LINE"
);
},
{
closed = 1;
nodes = (
"746 863 LINE",
"706 589 LINE",
"441 589 LINE",
"481 863 LINE"
);
}
);
};
layerId = "B7B71B2F-D3C2-46AB-9878-0EE3FC7FFFF4";
paths = (
{
closed = 1;
nodes = (
"624 26 OFFCURVE",
"624 24 OFFCURVE",
"624 21 CURVE SMOOTH",
"624 15 LINE SMOOTH",
"624 -28 OFFCURVE",
"657 -51 OFFCURVE",
"690 -51 CURVE SMOOTH",
"721 -51 OFFCURVE",
"752 -31 OFFCURVE",
"759 10 CURVE SMOOTH",
"825 459 LINE",
"974 459 LINE SMOOTH",
"1018 459 OFFCURVE",
"1040 491 OFFCURVE",
"1040 523 CURVE SMOOTH",
"1040 556 OFFCURVE",
"1017 589 OFFCURVE",
"974 589 CURVE SMOOTH",
"845 589 LINE",
"885 863 LINE",
"1031 863 LINE SMOOTH",
"1075 863 OFFCURVE",
"1096 895 OFFCURVE",
"1096 928 CURVE SMOOTH",
"1096 961 OFFCURVE",
"1074 994 OFFCURVE",
"1031 994 CURVE SMOOTH",
"904 994 LINE",
"962 1381 LINE",
"963 1384 OFFCURVE",
"963 1386 OFFCURVE",
"963 1388 CURVE SMOOTH",
"963 1395 LINE SMOOTH",
"963 1438 OFFCURVE",
"931 1460 OFFCURVE",
"896 1460 CURVE SMOOTH",
"864 1460 OFFCURVE",
"831 1440 OFFCURVE",
"824 1399 CURVE SMOOTH",
"765 994 LINE",
"500 994 LINE",
"558 1381 LINE",
"559 1384 OFFCURVE",
"559 1386 OFFCURVE",
"559 1388 CURVE SMOOTH",
"559 1395 LINE SMOOTH",
"559 1438 OFFCURVE",
"527 1460 OFFCURVE",
"492 1460 CURVE SMOOTH",
"460 1460 OFFCURVE",
"427 1440 OFFCURVE",
"420 1399 CURVE SMOOTH",
"361 994 LINE",
"193 994 LINE SMOOTH",
"149 994 OFFCURVE",
"128 962 OFFCURVE",
"128 929 CURVE SMOOTH",
"128 896 OFFCURVE",
"150 863 OFFCURVE",
"193 863 CURVE SMOOTH",
"342 863 LINE",
"302 589 LINE",
"137 589 LINE SMOOTH",
"93 589 OFFCURVE",
"72 557 OFFCURVE",
"72 524 CURVE SMOOTH",
"72 492 OFFCURVE",
"94 459 OFFCURVE",
"137 459 CURVE SMOOTH",
"284 459 LINE",
"221 29 LINE",
"220 26 OFFCURVE",
"220 24 OFFCURVE",
"220 21 CURVE SMOOTH",
"220 15 LINE SMOOTH",
"220 -28 OFFCURVE",
"253 -51 OFFCURVE",
"286 -51 CURVE SMOOTH",
"317 -51 OFFCURVE",
"348 -31 OFFCURVE",
"355 10 CURVE SMOOTH",
"422 459 LINE",
"687 459 LINE",
"625 29 LINE"
);
},
{
closed = 1;
nodes = (
"746 863 LINE",
"706 589 LINE",
"441 589 LINE",
"481 863 LINE"
);
}
);
width = 1169;
},
{
associatedMasterId = "B7B71B2F-D3C2-46AB-9878-0EE3FC7FFFF4";
layerId = "4C0A4C52-A9D9-4A1D-B81B-0EDA934B9EB8";
name = "Light Backup";
paths = (
{
closed = 1;
nodes = (
"67 595 LINE",
"60 504 LINE",
"324 504 LINE",
"238 63 LINE",
"334 63 LINE",
"421 504 LINE",
"745 504 LINE",
"659 63 LINE",
"758 63 LINE",
"843 504 LINE",
"1112 504 LINE",
"1126 595 LINE",
"862 595 LINE",
"922 917 LINE",
"1181 917 LINE",
"1191 1010 LINE",
"938 1010 LINE",
"1018 1436 LINE",
"922 1436 LINE",
"840 1010 LINE",
"517 1010 LINE",
"599 1436 LINE",
"500 1436 LINE",
"419 1010 LINE",
"137 1010 LINE",
"128 917 LINE",
"401 917 LINE",
"342 595 LINE"
);
},
{
closed = 1;
nodes = (
"437 595 LINE",
"501 917 LINE",
"824 917 LINE",
"763 595 LINE"
);
}
);
width = 1242;
},
{
associatedMasterId = "B7B71B2F-D3C2-46AB-9878-0EE3FC7FFFF4";
layerId = "14713F14-1CA6-457F-BEE1-3124B2889DBE";
name = "Light Backup_Reg";
paths = (
{
closed = 1;
nodes = (
"1021 1420 LINE",
"875 1420 LINE",
"799 1010 LINE",
"538 1010 LINE",
"615 1420 LINE",
"469 1420 LINE",
"390 1010 LINE",
"120 1010 LINE",
"107 886 LINE",
"368 886 LINE",
"351 793 OFFCURVE",
"334 704 OFFCURVE",
"318 611 CURVE",
"53 611 LINE",
"42 485 LINE",
"294 485 LINE",
"210 60 LINE",
"356 60 LINE",
"438 485 LINE",
"699 485 LINE",
"619 60 LINE",
"764 60 LINE",
"847 485 LINE",
"1107 485 LINE",
"1121 611 LINE",
"869 611 LINE",
"920 886 LINE",
"1170 886 LINE",
"1184 1010 LINE",
"943 1010 LINE"
);
},
{
closed = 1;
nodes = (
"460 611 LINE",
"514 886 LINE",
"775 886 LINE",
"724 611 LINE"
);
}
);
width = 1242;
}
);
note = numbersign;
unicode = 0023;
},
{
glyphname = dollar;
lastChange = "2016-08-29 16:03:12 +0000";
layers = (
{
background = {
paths = (
{
closed = 1;
nodes = (
"530 -215 OFFCURVE",
"555 -231 OFFCURVE",
"582 -231 CURVE SMOOTH",
"610 -231 OFFCURVE",
"639 -212 OFFCURVE",
"639 -176 CURVE SMOOTH",
"639 -40 LINE",
"764 -29 OFFCURVE",
"883 11 OFFCURVE",
"969 79 CURVE SMOOTH",
"1055 146 OFFCURVE",
"1109 240 OFFCURVE",
"1109 359 CURVE SMOOTH",
"1109 482 OFFCURVE",
"1057 562 OFFCURVE",
"979 621 CURVE SMOOTH",
"901 680 OFFCURVE",
"795 716 OFFCURVE",
"691 749 CURVE SMOOTH",
"587 781 OFFCURVE",
"482 811 OFFCURVE",
"404 856 CURVE SMOOTH",
"326 900 OFFCURVE",
"273 961 OFFCURVE",
"273 1057 CURVE SMOOTH",
"273 1130 OFFCURVE",
"317 1185 OFFCURVE",
"381 1219 CURVE SMOOTH",
"444 1253 OFFCURVE",
"525 1269 OFFCURVE",
"598 1269 CURVE SMOOTH",
"649 1269 OFFCURVE",
"707 1263 OFFCURVE",
"766 1254 CURVE SMOOTH",
"825 1245 OFFCURVE",
"884 1232 OFFCURVE",
"936 1220 CURVE",
"944 1217 OFFCURVE",
"952 1216 OFFCURVE",
"961 1216 CURVE SMOOTH",
"1000 1216 OFFCURVE",
"1024 1247 OFFCURVE",
"1024 1280 CURVE SMOOTH",
"1024 1309 OFFCURVE",
"1007 1339 OFFCURVE",
"968 1351 CURVE",
"871 1388 OFFCURVE",
"748 1406 OFFCURVE",
"639 1411 CURVE",
"639 1535 LINE SMOOTH",
"639 1572 OFFCURVE",
"612 1590 OFFCURVE",
"585 1590 CURVE SMOOTH",
"557 1590 OFFCURVE",
"530 1571 OFFCURVE",
"530 1535 CURVE SMOOTH",
"530 1411 LINE",
"411 1402 OFFCURVE",
"302 1364 OFFCURVE",
"222 1301 CURVE SMOOTH",
"142 1237 OFFCURVE",
"91 1148 OFFCURVE",
"91 1037 CURVE SMOOTH",
"91 980 OFFCURVE",
"101 931 OFFCURVE",
"120 891 CURVE SMOOTH",
"158 810 OFFCURVE",
"223 754 OFFCURVE",
"308 715 CURVE SMOOTH",
"393 675 OFFCURVE",
"489 646 OFFCURVE",
"589 616 CURVE SMOOTH",
"638 601 OFFCURVE",
"686 584 OFFCURVE",
"732 565 CURVE SMOOTH",
"787 542 OFFCURVE",
"836 515 OFFCURVE",
"870 480 CURVE SMOOTH",
"904 444 OFFCURVE",
"924 399 OFFCURVE",
"924 342 CURVE SMOOTH",
"924 262 OFFCURVE",
"881 201 OFFCURVE",
"817 161 CURVE SMOOTH",
"753 120 OFFCURVE",
"667 99 OFFCURVE",
"580 99 CURVE SMOOTH",
"533 99 OFFCURVE",
"493 101 OFFCURVE",
"458 104 CURVE SMOOTH",
"389 111 OFFCURVE",
"334 123 OFFCURVE",
"285 139 CURVE",
"260 146 OFFCURVE",
"235 154 OFFCURVE",
"208 162 CURVE",
"200 165 OFFCURVE",
"192 166 OFFCURVE",
"183 166 CURVE SMOOTH",
"144 166 OFFCURVE",
"121 136 OFFCURVE",
"121 101 CURVE SMOOTH",
"121 73 OFFCURVE",
"138 44 OFFCURVE",
"179 29 CURVE SMOOTH",
"220 14 OFFCURVE",
"275 -2 OFFCURVE",
"336 -15 CURVE SMOOTH",
"396 -28 OFFCURVE",
"463 -40 OFFCURVE",
"530 -41 CURVE",
"530 -176 LINE SMOOTH"
);
}
);
};
layerId = "B7B71B2F-D3C2-46AB-9878-0EE3FC7FFFF4";
paths = (
{
closed = 1;
nodes = (
"530 -215 OFFCURVE",
"555 -231 OFFCURVE",
"582 -231 CURVE SMOOTH",
"610 -231 OFFCURVE",
"639 -212 OFFCURVE",
"639 -176 CURVE SMOOTH",
"639 -40 LINE",
"764 -29 OFFCURVE",
"883 11 OFFCURVE",
"969 79 CURVE SMOOTH",
"1055 146 OFFCURVE",
"1109 240 OFFCURVE",
"1109 359 CURVE SMOOTH",
"1109 482 OFFCURVE",
"1057 562 OFFCURVE",
"979 621 CURVE SMOOTH",
"901 680 OFFCURVE",
"795 716 OFFCURVE",
"691 749 CURVE SMOOTH",
"587 781 OFFCURVE",
"482 811 OFFCURVE",
"404 856 CURVE SMOOTH",
"326 900 OFFCURVE",
"273 961 OFFCURVE",
"273 1057 CURVE SMOOTH",
"273 1130 OFFCURVE",
"317 1185 OFFCURVE",
"381 1219 CURVE SMOOTH",
"444 1253 OFFCURVE",
"525 1269 OFFCURVE",
"598 1269 CURVE SMOOTH",
"649 1269 OFFCURVE",
"707 1263 OFFCURVE",
"766 1254 CURVE SMOOTH",
"825 1245 OFFCURVE",
"884 1232 OFFCURVE",
"936 1220 CURVE",
"944 1217 OFFCURVE",
"952 1216 OFFCURVE",
"961 1216 CURVE SMOOTH",
"1000 1216 OFFCURVE",
"1024 1247 OFFCURVE",
"1024 1280 CURVE SMOOTH",
"1024 1309 OFFCURVE",
"1007 1339 OFFCURVE",
"968 1351 CURVE",
"871 1388 OFFCURVE",
"748 1406 OFFCURVE",
"639 1411 CURVE",
"639 1535 LINE SMOOTH",
"639 1572 OFFCURVE",
"612 1590 OFFCURVE",
"585 1590 CURVE SMOOTH",
"557 1590 OFFCURVE",
"530 1571 OFFCURVE",
"530 1535 CURVE SMOOTH",
"530 1411 LINE",
"411 1402 OFFCURVE",
"302 1364 OFFCURVE",
"222 1301 CURVE SMOOTH",
"142 1237 OFFCURVE",
"91 1148 OFFCURVE",
"91 1037 CURVE SMOOTH",
"91 980 OFFCURVE",
"101 931 OFFCURVE",
"120 891 CURVE SMOOTH",
"158 810 OFFCURVE",
"223 754 OFFCURVE",
"308 715 CURVE SMOOTH",
"393 675 OFFCURVE",
"489 646 OFFCURVE",
"589 616 CURVE SMOOTH",
"638 601 OFFCURVE",
"686 584 OFFCURVE",
"732 565 CURVE SMOOTH",
"787 542 OFFCURVE",
"836 515 OFFCURVE",
"870 480 CURVE SMOOTH",
"904 444 OFFCURVE",
"924 399 OFFCURVE",
"924 342 CURVE SMOOTH",
"924 262 OFFCURVE",
"881 201 OFFCURVE",
"817 161 CURVE SMOOTH",
"753 120 OFFCURVE",
"667 99 OFFCURVE",
"580 99 CURVE SMOOTH",
"533 99 OFFCURVE",
"493 101 OFFCURVE",
"458 104 CURVE SMOOTH",
"389 111 OFFCURVE",
"334 123 OFFCURVE",
"285 139 CURVE",
"260 146 OFFCURVE",
"235 154 OFFCURVE",
"208 162 CURVE",
"200 165 OFFCURVE",
"192 166 OFFCURVE",
"183 166 CURVE SMOOTH",
"144 166 OFFCURVE",
"121 136 OFFCURVE",
"121 101 CURVE SMOOTH",
"121 73 OFFCURVE",
"138 44 OFFCURVE",
"179 29 CURVE SMOOTH",
"220 14 OFFCURVE",
"275 -2 OFFCURVE",
"336 -15 CURVE SMOOTH",
"396 -28 OFFCURVE",
"463 -40 OFFCURVE",
"530 -41 CURVE",
"530 -176 LINE SMOOTH"
);
}
);
width = 1274;
},
{
associatedMasterId = "B7B71B2F-D3C2-46AB-9878-0EE3FC7FFFF4";
layerId = "4C0A4C52-A9D9-4A1D-B81B-0EDA934B9EB8";
name = "Light Backup";
paths = (
{
closed = 1;
nodes = (
"641 -20 LINE",
"659 -19 OFFCURVE",
"677 -17 OFFCURVE",
"694 -14 CURVE",
"739 -9 OFFCURVE",
"782 0 OFFCURVE",
"823 13 CURVE SMOOTH",
"906 38 OFFCURVE",
"978 77 OFFCURVE",
"1031 133 CURVE SMOOTH",
"1084 189 OFFCURVE",
"1116 263 OFFCURVE",
"1116 356 CURVE SMOOTH",
"1116 477 OFFCURVE",
"1065 561 OFFCURVE",
"987 626 CURVE SMOOTH",
"909 690 OFFCURVE",
"805 734 OFFCURVE",
"701 775 CURVE SMOOTH",
"690 779 OFFCURVE",
"680 783 OFFCURVE",
"669 787 CURVE",
"688 1367 LINE",
"789 1363 OFFCURVE",
"905 1338 OFFCURVE",
"997 1258 CURVE",
"1046 1351 LINE",
"994 1402 OFFCURVE",
"931 1435 OFFCURVE",
"864 1455 CURVE SMOOTH",
"797 1475 OFFCURVE",
"739 1481 OFFCURVE",
"692 1482 CURVE",
"698 1655 LINE",
"634 1655 LINE",
"628 1482 LINE",
"523 1477 OFFCURVE",
"405 1451 OFFCURVE",
"308 1387 CURVE SMOOTH",
"211 1323 OFFCURVE",
"147 1228 OFFCURVE",
"147 1103 CURVE SMOOTH",
"147 980 OFFCURVE",
"199 898 OFFCURVE",
"277 836 CURVE SMOOTH",
"355 774 OFFCURVE",
"457 732 OFFCURVE",
"561 693 CURVE SMOOTH",
"600 679 LINE",
"579 91 LINE",
"518 91 OFFCURVE",
"455 95 OFFCURVE",
"389 116 CURVE SMOOTH",
"323 137 OFFCURVE",
"256 177 OFFCURVE",
"191 250 CURVE",
"137 170 LINE",
"237 41 OFFCURVE",
"390 -23 OFFCURVE",
"562 -23 CURVE SMOOTH",
"575 -23 LINE",
"569 -216 LINE",
"635 -216 LINE"
);
},
{
closed = 1;
nodes = (
"559 1361 OFFCURVE",
"591 1365 OFFCURVE",
"624 1367 CURVE",
"604 813 LINE",
"548 836 LINE SMOOTH",
"499 857 OFFCURVE",
"455 880 OFFCURVE",
"416 906 CURVE SMOOTH",
"338 957 OFFCURVE",
"286 1020 OFFCURVE",
"286 1115 CURVE SMOOTH",
"286 1160 OFFCURVE",
"297 1198 OFFCURVE",
"320 1230 CURVE SMOOTH",
"364 1294 OFFCURVE",
"438 1335 OFFCURVE",
"527 1354 CURVE SMOOTH"
);
},
{
closed = 1;
nodes = (
"711 101 OFFCURVE",
"679 96 OFFCURVE",
"645 93 CURVE",
"664 655 LINE",
"681 648 OFFCURVE",
"697 642 OFFCURVE",
"713 636 CURVE SMOOTH",
"762 617 OFFCURVE",
"807 594 OFFCURVE",
"846 569 CURVE SMOOTH",
"924 518 OFFCURVE",
"975 453 OFFCURVE",
"975 354 CURVE SMOOTH",
"975 311 OFFCURVE",
"965 273 OFFCURVE",
"946 240 CURVE SMOOTH",
"907 175 OFFCURVE",
"838 131 OFFCURVE",
"742 108 CURVE SMOOTH"
);
}
);
width = 1244;
},
{
associatedMasterId = "B7B71B2F-D3C2-46AB-9878-0EE3FC7FFFF4";
layerId = "14713F14-1CA6-457F-BEE1-3124B2889DBE";
name = "Light Backup_Reg";
paths = (
{
closed = 1;
nodes = (
"472 841 OFFCURVE",
"421 868 OFFCURVE",
"385 905 CURVE SMOOTH",
"348 942 OFFCURVE",
"326 991 OFFCURVE",
"326 1059 CURVE SMOOTH",
"326 1120 OFFCURVE",
"347 1176 OFFCURVE",
"384 1217 CURVE SMOOTH",
"420 1257 OFFCURVE",
"471 1285 OFFCURVE",
"534 1293 CURVE",
"532 818 LINE"
);
},
{
closed = 1;
nodes = (
"302 17 OFFCURVE",
"411 -13 OFFCURVE",
"532 -16 CURVE",
"536 -172 LINE",
"659 -172 LINE",
"656 -11 LINE",
"771 -2 OFFCURVE",
"877 36 OFFCURVE",
"954 99 CURVE SMOOTH",
"1031 162 OFFCURVE",
"1080 250 OFFCURVE",
"1080 361 CURVE SMOOTH",
"1080 468 OFFCURVE",
"1044 543 OFFCURVE",
"973 605 CURVE SMOOTH",
"901 667 OFFCURVE",
"796 715 OFFCURVE",
"656 770 CURVE",
"658 1299 LINE",
"771 1295 OFFCURVE",
"872 1266 OFFCURVE",
"948 1198 CURVE",
"997 1326 LINE",
"912 1398 OFFCURVE",
"790 1436 OFFCURVE",
"657 1439 CURVE",
"654 1575 LINE",
"530 1575 LINE",
"534 1437 LINE",
"431 1429 OFFCURVE",
"332 1384 OFFCURVE",
"259 1315 CURVE SMOOTH",
"186 1246 OFFCURVE",
"137 1152 OFFCURVE",
"137 1047 CURVE SMOOTH",
"137 935 OFFCURVE",
"183 859 OFFCURVE",
"255 800 CURVE SMOOTH",
"327 740 OFFCURVE",
"426 696 OFFCURVE",
"534 648 CURVE",
"531 127 LINE",
"436 131 OFFCURVE",
"336 166 OFFCURVE",
"251 223 CURVE",
"202 89 LINE"
);
},
{
closed = 1;
nodes = (
"729 576 OFFCURVE",
"789 545 OFFCURVE",
"833 506 CURVE SMOOTH",
"876 467 OFFCURVE",
"901 421 OFFCURVE",
"901 358 CURVE SMOOTH",
"901 293 OFFCURVE",
"872 241 OFFCURVE",
"828 203 CURVE SMOOTH",
"783 165 OFFCURVE",
"721 140 OFFCURVE",
"654 131 CURVE",
"658 605 LINE"
);
}
);
width = 1190;
}
);
note = dollar;
unicode = 0024;
},
{
glyphname = percent;
lastChange = "2016-08-29 16:03:12 +0000";
layers = (
{
background = {
paths = (
{
closed = 1;
nodes = (
"632 1299 OFFCURVE",
"681 1263 OFFCURVE",
"713 1211 CURVE SMOOTH",
"744 1158 OFFCURVE",
"757 1088 OFFCURVE",
"757 1020 CURVE SMOOTH",
"757 952 OFFCURVE",
"744 881 OFFCURVE",
"713 829 CURVE SMOOTH",
"681 776 OFFCURVE",
"632 740 OFFCURVE",
"557 740 CURVE SMOOTH",
"484 740 OFFCURVE",
"434 776 OFFCURVE",
"403 829 CURVE SMOOTH",
"371 881 OFFCURVE",
"358 952 OFFCURVE",
"358 1020 CURVE SMOOTH",
"358 1088 OFFCURVE",
"371 1158 OFFCURVE",
"403 1211 CURVE SMOOTH",
"434 1263 OFFCURVE",
"484 1299 OFFCURVE",
"557 1299 CURVE SMOOTH"
);
},
{
closed = 1;
nodes = (
"544 0 OFFCURVE",
"541 -9 OFFCURVE",
"541 -17 CURVE SMOOTH",
"541 -48 OFFCURVE",
"570 -71 OFFCURVE",
"601 -71 CURVE SMOOTH",
"620 -71 OFFCURVE",
"637 -63 OFFCURVE",
"649 -42 CURVE SMOOTH",
"1440 1347 LINE SMOOTH",
"1446 1358 OFFCURVE",
"1449 1369 OFFCURVE",
"1449 1380 CURVE SMOOTH",
"1449 1412 OFFCURVE",
"1424 1437 OFFCURVE",
"1395 1437 CURVE SMOOTH",
"1376 1437 OFFCURVE",
"1355 1426 OFFCURVE",
"1339 1399 CURVE SMOOTH",
"549 9 LINE SMOOTH"
);
},
{
closed = 1;
nodes = (
"452 1403 OFFCURVE",
"368 1360 OFFCURVE",
"311 1290 CURVE SMOOTH",
"254 1220 OFFCURVE",
"223 1124 OFFCURVE",
"223 1020 CURVE SMOOTH",
"223 915 OFFCURVE",
"254 818 OFFCURVE",
"311 749 CURVE SMOOTH",
"367 680 OFFCURVE",
"450 637 OFFCURVE",
"557 637 CURVE SMOOTH",
"662 637 OFFCURVE",
"747 681 OFFCURVE",
"804 751 CURVE SMOOTH",
"861 821 OFFCURVE",
"893 916 OFFCURVE",
"893 1020 CURVE SMOOTH",
"893 1116 OFFCURVE",
"866 1212 OFFCURVE",
"810 1284 CURVE SMOOTH",
"754 1356 OFFCURVE",
"670 1403 OFFCURVE",
"557 1403 CURVE SMOOTH"
);
},
{
closed = 1;
nodes = (
"1397 735 OFFCURVE",
"1313 692 OFFCURVE",
"1256 622 CURVE SMOOTH",
"1199 552 OFFCURVE",
"1167 457 OFFCURVE",
"1167 353 CURVE SMOOTH",
"1167 248 OFFCURVE",
"1198 153 OFFCURVE",
"1255 83 CURVE SMOOTH",
"1311 13 OFFCURVE",
"1395 -31 OFFCURVE",
"1502 -31 CURVE SMOOTH",
"1607 -31 OFFCURVE",
"1692 14 OFFCURVE",
"1749 84 CURVE SMOOTH",
"1806 154 OFFCURVE",
"1837 249 OFFCURVE",
"1837 353 CURVE SMOOTH",
"1837 449 OFFCURVE",
"1810 545 OFFCURVE",
"1755 617 CURVE SMOOTH",
"1699 688 OFFCURVE",
"1615 735 OFFCURVE",
"1502 735 CURVE SMOOTH"
);
},
{
closed = 1;
nodes = (
"1575 632 OFFCURVE",
"1626 596 OFFCURVE",
"1657 544 CURVE SMOOTH",
"1688 491 OFFCURVE",
"1701 421 OFFCURVE",
"1701 353 CURVE SMOOTH",
"1701 285 OFFCURVE",
"1688 214 OFFCURVE",
"1657 162 CURVE SMOOTH",
"1626 109 OFFCURVE",
"1575 73 OFFCURVE",
"1502 73 CURVE SMOOTH",
"1427 73 OFFCURVE",
"1378 109 OFFCURVE",
"1347 162 CURVE SMOOTH",
"1315 214 OFFCURVE",
"1303 285 OFFCURVE",
"1303 353 CURVE SMOOTH",
"1303 421 OFFCURVE",
"1315 491 OFFCURVE",
"1347 544 CURVE SMOOTH",
"1378 596 OFFCURVE",
"1427 632 OFFCURVE",
"1502 632 CURVE SMOOTH"
);
}
);
};
layerId = "B7B71B2F-D3C2-46AB-9878-0EE3FC7FFFF4";
paths = (
{
closed = 1;
nodes = (
"632 1299 OFFCURVE",
"681 1263 OFFCURVE",
"713 1211 CURVE SMOOTH",
"744 1158 OFFCURVE",
"757 1088 OFFCURVE",
"757 1020 CURVE SMOOTH",
"757 952 OFFCURVE",
"744 881 OFFCURVE",
"713 829 CURVE SMOOTH",
"681 776 OFFCURVE",
"632 740 OFFCURVE",
"557 740 CURVE SMOOTH",
"484 740 OFFCURVE",
"434 776 OFFCURVE",
"403 829 CURVE SMOOTH",
"371 881 OFFCURVE",
"358 952 OFFCURVE",
"358 1020 CURVE SMOOTH",
"358 1088 OFFCURVE",
"371 1158 OFFCURVE",
"403 1211 CURVE SMOOTH",
"434 1263 OFFCURVE",
"484 1299 OFFCURVE",
"557 1299 CURVE SMOOTH"
);
},
{
closed = 1;
nodes = (
"544 0 OFFCURVE",
"541 -9 OFFCURVE",
"541 -17 CURVE SMOOTH",
"541 -48 OFFCURVE",
"570 -71 OFFCURVE",
"601 -71 CURVE SMOOTH",
"620 -71 OFFCURVE",
"637 -63 OFFCURVE",
"649 -42 CURVE SMOOTH",
"1440 1347 LINE SMOOTH",
"1446 1358 OFFCURVE",
"1449 1369 OFFCURVE",
"1449 1380 CURVE SMOOTH",
"1449 1412 OFFCURVE",
"1424 1437 OFFCURVE",
"1395 1437 CURVE SMOOTH",
"1376 1437 OFFCURVE",
"1355 1426 OFFCURVE",
"1339 1399 CURVE SMOOTH",
"549 9 LINE SMOOTH"
);
},
{
closed = 1;
nodes = (
"452 1403 OFFCURVE",
"368 1360 OFFCURVE",
"311 1290 CURVE SMOOTH",
"254 1220 OFFCURVE",
"223 1124 OFFCURVE",
"223 1020 CURVE SMOOTH",
"223 915 OFFCURVE",
"254 818 OFFCURVE",
"311 749 CURVE SMOOTH",
"367 680 OFFCURVE",
"450 637 OFFCURVE",
"557 637 CURVE SMOOTH",
"662 637 OFFCURVE",
"747 681 OFFCURVE",
"804 751 CURVE SMOOTH",
"861 821 OFFCURVE",
"893 916 OFFCURVE",
"893 1020 CURVE SMOOTH",
"893 1116 OFFCURVE",
"866 1212 OFFCURVE",
"810 1284 CURVE SMOOTH",
"754 1356 OFFCURVE",
"670 1403 OFFCURVE",
"557 1403 CURVE SMOOTH"
);
},
{
closed = 1;
nodes = (
"1397 735 OFFCURVE",
"1313 692 OFFCURVE",
"1256 622 CURVE SMOOTH",
"1199 552 OFFCURVE",
"1167 457 OFFCURVE",
"1167 353 CURVE SMOOTH",
"1167 248 OFFCURVE",
"1198 153 OFFCURVE",
"1255 83 CURVE SMOOTH",
"1311 13 OFFCURVE",
"1395 -31 OFFCURVE",
"1502 -31 CURVE SMOOTH",
"1607 -31 OFFCURVE",
"1692 14 OFFCURVE",
"1749 84 CURVE SMOOTH",
"1806 154 OFFCURVE",
"1837 249 OFFCURVE",
"1837 353 CURVE SMOOTH",
"1837 449 OFFCURVE",
"1810 545 OFFCURVE",
"1755 617 CURVE SMOOTH",
"1699 688 OFFCURVE",
"1615 735 OFFCURVE",
"1502 735 CURVE SMOOTH"
);
},
{
closed = 1;
nodes = (
"1575 632 OFFCURVE",
"1626 596 OFFCURVE",
"1657 544 CURVE SMOOTH",
"1688 491 OFFCURVE",
"1701 421 OFFCURVE",
"1701 353 CURVE SMOOTH",
"1701 285 OFFCURVE",
"1688 214 OFFCURVE",
"1657 162 CURVE SMOOTH",
"1626 109 OFFCURVE",
"1575 73 OFFCURVE",
"1502 73 CURVE SMOOTH",
"1427 73 OFFCURVE",
"1378 109 OFFCURVE",
"1347 162 CURVE SMOOTH",
"1315 214 OFFCURVE",
"1303 285 OFFCURVE",
"1303 353 CURVE SMOOTH",
"1303 421 OFFCURVE",
"1315 491 OFFCURVE",
"1347 544 CURVE SMOOTH",
"1378 596 OFFCURVE",
"1427 632 OFFCURVE",
"1502 632 CURVE SMOOTH"
);
}
);
width = 2060;
},
{
associatedMasterId = "B7B71B2F-D3C2-46AB-9878-0EE3FC7FFFF4";
layerId = "4C0A4C52-A9D9-4A1D-B81B-0EDA934B9EB8";
name = "Light Backup";
paths = (
{
closed = 1;
nodes = (
"1571 644 OFFCURVE",
"1632 611 OFFCURVE",
"1672 558 CURVE SMOOTH",
"1712 505 OFFCURVE",
"1731 432 OFFCURVE",
"1731 352 CURVE SMOOTH",
"1731 275 OFFCURVE",
"1712 200 OFFCURVE",
"1672 144 CURVE SMOOTH",
"1632 88 OFFCURVE",
"1572 52 OFFCURVE",
"1489 52 CURVE SMOOTH",
"1404 52 OFFCURVE",
"1343 86 OFFCURVE",
"1303 139 CURVE SMOOTH",
"1263 191 OFFCURVE",
"1245 265 OFFCURVE",
"1245 345 CURVE SMOOTH",
"1245 422 OFFCURVE",
"1264 497 OFFCURVE",
"1304 553 CURVE SMOOTH",
"1344 608 OFFCURVE",
"1404 644 OFFCURVE",
"1487 644 CURVE SMOOTH"
);
},
{
closed = 1;
nodes = (
"1387 726 OFFCURVE",
"1300 684 OFFCURVE",
"1240 615 CURVE SMOOTH",
"1179 546 OFFCURVE",
"1145 451 OFFCURVE",
"1145 344 CURVE SMOOTH",
"1145 239 OFFCURVE",
"1176 146 OFFCURVE",
"1234 80 CURVE SMOOTH",
"1292 14 OFFCURVE",
"1375 -27 OFFCURVE",
"1483 -27 CURVE SMOOTH",
"1588 -27 OFFCURVE",
"1675 15 OFFCURVE",
"1735 84 CURVE SMOOTH",
"1795 152 OFFCURVE",
"1829 248 OFFCURVE",
"1829 353 CURVE SMOOTH",
"1829 458 OFFCURVE",
"1799 552 OFFCURVE",
"1743 619 CURVE SMOOTH",
"1686 686 OFFCURVE",
"1602 726 OFFCURVE",
"1494 726 CURVE SMOOTH"
);
},
{
closed = 1;
nodes = (
"424 1463 OFFCURVE",
"337 1422 OFFCURVE",
"277 1354 CURVE SMOOTH",
"217 1286 OFFCURVE",
"184 1191 OFFCURVE",
"184 1083 CURVE SMOOTH",
"184 979 OFFCURVE",
"214 886 OFFCURVE",
"271 819 CURVE SMOOTH",
"328 752 OFFCURVE",
"413 711 OFFCURVE",
"522 711 CURVE SMOOTH",
"626 711 OFFCURVE",
"713 753 OFFCURVE",
"774 822 CURVE SMOOTH",
"834 890 OFFCURVE",
"868 985 OFFCURVE",
"868 1090 CURVE SMOOTH",
"868 1195 OFFCURVE",
"837 1289 OFFCURVE",
"780 1356 CURVE SMOOTH",
"723 1423 OFFCURVE",
"638 1463 OFFCURVE",
"529 1463 CURVE SMOOTH"
);
},
{
closed = 1;
nodes = (
"583 -5 LINE",
"1499 1452 LINE",
"1394 1452 LINE",
"478 -5 LINE"
);
},
{
closed = 1;
nodes = (
"610 1385 OFFCURVE",
"671 1351 OFFCURVE",
"711 1296 CURVE SMOOTH",
"750 1241 OFFCURVE",
"768 1168 OFFCURVE",
"768 1088 CURVE SMOOTH",
"768 1011 OFFCURVE",
"750 937 OFFCURVE",
"711 882 CURVE SMOOTH",
"671 826 OFFCURVE",
"612 790 OFFCURVE",
"529 790 CURVE SMOOTH",
"444 790 OFFCURVE",
"382 824 OFFCURVE",
"342 878 CURVE SMOOTH",
"301 932 OFFCURVE",
"281 1005 OFFCURVE",
"281 1085 CURVE SMOOTH",
"281 1162 OFFCURVE",
"301 1237 OFFCURVE",
"341 1293 CURVE SMOOTH",
"381 1349 OFFCURVE",
"442 1385 OFFCURVE",
"526 1385 CURVE SMOOTH"
);
}
);
width = 1985;
},
{
associatedMasterId = "B7B71B2F-D3C2-46AB-9878-0EE3FC7FFFF4";
layerId = "14713F14-1CA6-457F-BEE1-3124B2889DBE";
name = "Light Backup_Reg";
paths = (
{
closed = 1;
nodes = (
"1526 622 OFFCURVE",
"1578 592 OFFCURVE",
"1612 544 CURVE SMOOTH",
"1646 496 OFFCURVE",
"1662 430 OFFCURVE",
"1662 357 CURVE SMOOTH",
"1662 286 OFFCURVE",
"1646 220 OFFCURVE",
"1612 169 CURVE SMOOTH",
"1578 118 OFFCURVE",
"1524 86 OFFCURVE",
"1452 86 CURVE SMOOTH",
"1380 86 OFFCURVE",
"1328 116 OFFCURVE",
"1293 164 CURVE SMOOTH",
"1257 212 OFFCURVE",
"1241 278 OFFCURVE",
"1241 350 CURVE SMOOTH",
"1241 419 OFFCURVE",
"1257 487 OFFCURVE",
"1292 538 CURVE SMOOTH",
"1327 589 OFFCURVE",
"1379 622 OFFCURVE",
"1454 622 CURVE SMOOTH"
);
},
{
closed = 1;
nodes = (
"1344 735 OFFCURVE",
"1256 692 OFFCURVE",
"1194 624 CURVE SMOOTH",
"1132 555 OFFCURVE",
"1097 459 OFFCURVE",
"1097 351 CURVE SMOOTH",
"1097 244 OFFCURVE",
"1130 150 OFFCURVE",
"1190 82 CURVE SMOOTH",
"1250 14 OFFCURVE",
"1338 -27 OFFCURVE",
"1449 -27 CURVE SMOOTH",
"1558 -27 OFFCURVE",
"1648 16 OFFCURVE",
"1710 85 CURVE SMOOTH",
"1772 154 OFFCURVE",
"1806 249 OFFCURVE",
"1806 356 CURVE SMOOTH",
"1806 465 OFFCURVE",
"1775 560 OFFCURVE",
"1715 628 CURVE SMOOTH",
"1655 695 OFFCURVE",
"1567 735 OFFCURVE",
"1455 735 CURVE SMOOTH"
);
},
{
closed = 1;
nodes = (
"415 1447 OFFCURVE",
"327 1405 OFFCURVE",
"265 1336 CURVE SMOOTH",
"203 1267 OFFCURVE",
"168 1172 OFFCURVE",
"168 1064 CURVE SMOOTH",
"168 957 OFFCURVE",
"200 863 OFFCURVE",
"260 795 CURVE SMOOTH",
"320 727 OFFCURVE",
"408 686 OFFCURVE",
"520 686 CURVE SMOOTH",
"629 686 OFFCURVE",
"719 729 OFFCURVE",
"781 798 CURVE SMOOTH",
"843 866 OFFCURVE",
"877 961 OFFCURVE",
"877 1068 CURVE SMOOTH",
"877 1177 OFFCURVE",
"846 1272 OFFCURVE",
"786 1340 CURVE SMOOTH",
"726 1407 OFFCURVE",
"638 1447 OFFCURVE",
"526 1447 CURVE SMOOTH"
);
},
{
closed = 1;
nodes = (
"594 -5 LINE",
"1499 1436 LINE",
"1344 1436 LINE",
"440 -5 LINE"
);
},
{
closed = 1;
nodes = (
"596 1335 OFFCURVE",
"648 1305 OFFCURVE",
"683 1257 CURVE SMOOTH",
"718 1209 OFFCURVE",
"734 1142 OFFCURVE",
"734 1069 CURVE SMOOTH",
"734 998 OFFCURVE",
"718 932 OFFCURVE",
"683 882 CURVE SMOOTH",
"648 832 OFFCURVE",
"596 799 OFFCURVE",
"524 799 CURVE SMOOTH",
"452 799 OFFCURVE",
"399 829 OFFCURVE",
"364 877 CURVE SMOOTH",
"329 925 OFFCURVE",
"312 992 OFFCURVE",
"312 1065 CURVE SMOOTH",
"312 1134 OFFCURVE",
"328 1203 OFFCURVE",
"364 1253 CURVE SMOOTH",
"399 1303 OFFCURVE",
"452 1335 OFFCURVE",
"525 1335 CURVE SMOOTH"
);
}
);
width = 1985;
}
);
note = percent;
unicode = 0025;
},
{
glyphname = ampersand;
lastChange = "2016-08-29 16:03:12 +0000";
layers = (
{
background = {
paths = (
{
closed = 1;
nodes = (
"1214 806 OFFCURVE",
"1203 723 OFFCURVE",
"1187 642 CURVE SMOOTH",
"1170 561 OFFCURVE",
"1146 480 OFFCURVE",
"1115 415 CURVE",
"707 849 LINE",
"775 900 OFFCURVE",
"843 954 OFFCURVE",
"895 1018 CURVE SMOOTH",
"946 1081 OFFCURVE",
"979 1154 OFFCURVE",
"979 1239 CURVE SMOOTH",
"979 1332 OFFCURVE",
"934 1400 OFFCURVE",
"867 1444 CURVE SMOOTH",
"799 1488 OFFCURVE",
"711 1509 OFFCURVE",
"624 1509 CURVE SMOOTH",
"536 1509 OFFCURVE",
"450 1486 OFFCURVE",
"384 1441 CURVE SMOOTH",
"318 1396 OFFCURVE",
"274 1325 OFFCURVE",
"274 1232 CURVE SMOOTH",
"274 1160 OFFCURVE",
"300 1094 OFFCURVE",
"338 1034 CURVE SMOOTH",
"376 973 OFFCURVE",
"425 917 OFFCURVE",
"473 865 CURVE",
"385 805 OFFCURVE",
"293 747 OFFCURVE",
"223 676 CURVE SMOOTH",
"153 605 OFFCURVE",
"104 519 OFFCURVE",
"104 406 CURVE SMOOTH",
"104 269 OFFCURVE",
"167 160 OFFCURVE",
"267 86 CURVE SMOOTH",
"367 12 OFFCURVE",
"505 -29 OFFCURVE",
"656 -29 CURVE SMOOTH",
"848 -29 OFFCURVE",
"990 49 OFFCURVE",
"1111 186 CURVE",
"1260 22 LINE SMOOTH",
"1279 2 OFFCURVE",
"1299 -6 OFFCURVE",
"1319 -6 CURVE SMOOTH",
"1340 -6 OFFCURVE",
"1362 4 OFFCURVE",
"1378 20 CURVE SMOOTH",
"1393 36 OFFCURVE",
"1403 57 OFFCURVE",
"1403 80 CURVE SMOOTH",
"1403 99 OFFCURVE",
"1397 117 OFFCURVE",
"1382 134 CURVE SMOOTH",
"1223 306 LINE",
"1276 395 OFFCURVE",
"1310 499 OFFCURVE",
"1331 598 CURVE SMOOTH",
"1352 697 OFFCURVE",
"1360 792 OFFCURVE",
"1367 861 CURVE",
"1368 863 OFFCURVE",
"1368 865 OFFCURVE",
"1368 867 CURVE SMOOTH",
"1368 874 LINE SMOOTH",
"1368 898 OFFCURVE",
"1358 916 OFFCURVE",
"1343 929 CURVE",
"1327 941 OFFCURVE",
"1308 948 OFFCURVE",
"1288 948 CURVE SMOOTH",
"1253 948 OFFCURVE",
"1219 928 OFFCURVE",
"1215 881 CURVE"
);
},
{
closed = 1;
nodes = (
"964 231 OFFCURVE",
"910 188 OFFCURVE",
"851 158 CURVE SMOOTH",
"791 128 OFFCURVE",
"724 110 OFFCURVE",
"647 110 CURVE SMOOTH",
"552 110 OFFCURVE",
"461 139 OFFCURVE",
"394 195 CURVE SMOOTH",
"326 250 OFFCURVE",
"282 330 OFFCURVE",
"282 431 CURVE SMOOTH",
"282 491 OFFCURVE",
"331 558 OFFCURVE",
"392 618 CURVE SMOOTH",
"453 677 OFFCURVE",
"527 727 OFFCURVE",
"576 758 CURVE",
"1017 286 LINE"
);
},
{
closed = 1;
nodes = (
"449 1282 OFFCURVE",
"471 1317 OFFCURVE",
"505 1340 CURVE SMOOTH",
"539 1363 OFFCURVE",
"583 1373 OFFCURVE",
"630 1373 CURVE SMOOTH",
"674 1373 OFFCURVE",
"718 1362 OFFCURVE",
"751 1338 CURVE SMOOTH",
"784 1314 OFFCURVE",
"806 1278 OFFCURVE",
"806 1230 CURVE SMOOTH",
"806 1200 OFFCURVE",
"800 1172 OFFCURVE",
"787 1147 CURVE SMOOTH",
"761 1095 OFFCURVE",
"720 1050 OFFCURVE",
"673 1009 CURVE SMOOTH",
"650 988 OFFCURVE",
"627 968 OFFCURVE",
"606 948 CURVE",
"571 984 OFFCURVE",
"532 1030 OFFCURVE",
"501 1079 CURVE SMOOTH",
"470 1128 OFFCURVE",
"449 1181 OFFCURVE",
"449 1230 CURVE SMOOTH"
);
}
);
};
layerId = "B7B71B2F-D3C2-46AB-9878-0EE3FC7FFFF4";
paths = (
{
closed = 1;
nodes = (
"1214 806 OFFCURVE",
"1203 723 OFFCURVE",
"1187 642 CURVE SMOOTH",
"1170 561 OFFCURVE",
"1146 480 OFFCURVE",
"1115 415 CURVE",
"707 849 LINE",
"775 900 OFFCURVE",
"843 954 OFFCURVE",
"895 1018 CURVE SMOOTH",
"946 1081 OFFCURVE",
"979 1154 OFFCURVE",
"979 1239 CURVE SMOOTH",
"979 1332 OFFCURVE",
"934 1400 OFFCURVE",
"867 1444 CURVE SMOOTH",
"799 1488 OFFCURVE",
"711 1509 OFFCURVE",
"624 1509 CURVE SMOOTH",
"536 1509 OFFCURVE",
"450 1486 OFFCURVE",
"384 1441 CURVE SMOOTH",
"318 1396 OFFCURVE",
"274 1325 OFFCURVE",
"274 1232 CURVE SMOOTH",
"274 1160 OFFCURVE",
"300 1094 OFFCURVE",
"338 1034 CURVE SMOOTH",
"376 973 OFFCURVE",
"425 917 OFFCURVE",
"473 865 CURVE",
"385 805 OFFCURVE",
"293 747 OFFCURVE",
"223 676 CURVE SMOOTH",
"153 605 OFFCURVE",
"104 519 OFFCURVE",
"104 406 CURVE SMOOTH",
"104 269 OFFCURVE",
"167 160 OFFCURVE",
"267 86 CURVE SMOOTH",
"367 12 OFFCURVE",
"505 -29 OFFCURVE",
"656 -29 CURVE SMOOTH",
"848 -29 OFFCURVE",
"990 49 OFFCURVE",
"1111 186 CURVE",
"1260 22 LINE SMOOTH",
"1279 2 OFFCURVE",
"1299 -6 OFFCURVE",
"1319 -6 CURVE SMOOTH",
"1340 -6 OFFCURVE",
"1362 4 OFFCURVE",
"1378 20 CURVE SMOOTH",
"1393 36 OFFCURVE",
"1403 57 OFFCURVE",
"1403 80 CURVE SMOOTH",
"1403 99 OFFCURVE",
"1397 117 OFFCURVE",
"1382 134 CURVE SMOOTH",
"1223 306 LINE",
"1276 395 OFFCURVE",
"1310 499 OFFCURVE",
"1331 598 CURVE SMOOTH",
"1352 697 OFFCURVE",
"1360 792 OFFCURVE",
"1367 861 CURVE",
"1368 863 OFFCURVE",
"1368 865 OFFCURVE",
"1368 867 CURVE SMOOTH",
"1368 874 LINE SMOOTH",
"1368 898 OFFCURVE",
"1358 916 OFFCURVE",
"1343 929 CURVE",
"1327 941 OFFCURVE",
"1308 948 OFFCURVE",
"1288 948 CURVE SMOOTH",
"1253 948 OFFCURVE",
"1219 928 OFFCURVE",
"1215 881 CURVE"
);
},
{
closed = 1;
nodes = (
"964 231 OFFCURVE",
"910 188 OFFCURVE",
"851 158 CURVE SMOOTH",
"791 128 OFFCURVE",
"724 110 OFFCURVE",
"647 110 CURVE SMOOTH",
"552 110 OFFCURVE",
"461 139 OFFCURVE",
"394 195 CURVE SMOOTH",
"326 250 OFFCURVE",
"282 330 OFFCURVE",
"282 431 CURVE SMOOTH",
"282 491 OFFCURVE",
"331 558 OFFCURVE",
"392 618 CURVE SMOOTH",
"453 677 OFFCURVE",
"527 727 OFFCURVE",
"576 758 CURVE",
"1017 286 LINE"
);
},
{
closed = 1;
nodes = (
"449 1282 OFFCURVE",
"471 1317 OFFCURVE",
"505 1340 CURVE SMOOTH",
"539 1363 OFFCURVE",
"583 1373 OFFCURVE",
"630 1373 CURVE SMOOTH",
"674 1373 OFFCURVE",
"718 1362 OFFCURVE",
"751 1338 CURVE SMOOTH",
"784 1314 OFFCURVE",
"806 1278 OFFCURVE",
"806 1230 CURVE SMOOTH",
"806 1200 OFFCURVE",
"800 1172 OFFCURVE",
"787 1147 CURVE SMOOTH",
"761 1095 OFFCURVE",
"720 1050 OFFCURVE",
"673 1009 CURVE SMOOTH",
"650 988 OFFCURVE",
"627 968 OFFCURVE",
"606 948 CURVE",
"571 984 OFFCURVE",
"532 1030 OFFCURVE",
"501 1079 CURVE SMOOTH",
"470 1128 OFFCURVE",
"449 1181 OFFCURVE",
"449 1230 CURVE SMOOTH"
);
}
);
width = 1513;
},
{
associatedMasterId = "B7B71B2F-D3C2-46AB-9878-0EE3FC7FFFF4";
layerId = "4C0A4C52-A9D9-4A1D-B81B-0EDA934B9EB8";
name = "Light Backup";
paths = (
{
closed = 1;
nodes = (
"132 262 OFFCURVE",
"189 156 OFFCURVE",
"285 84 CURVE SMOOTH",
"380 12 OFFCURVE",
"514 -27 OFFCURVE",
"667 -27 CURVE SMOOTH",
"787 -27 OFFCURVE",
"887 -1 OFFCURVE",
"974 40 CURVE SMOOTH",
"1061 80 OFFCURVE",
"1133 138 OFFCURVE",
"1196 202 CURVE",
"1265 138 OFFCURVE",
"1316 90 OFFCURVE",
"1364 55 CURVE SMOOTH",
"1412 19 OFFCURVE",
"1457 -1 OFFCURVE",
"1514 -9 CURVE",
"1611 61 LINE",
"1538 74 OFFCURVE",
"1481 97 OFFCURVE",
"1428 133 CURVE SMOOTH",
"1375 169 OFFCURVE",
"1323 218 OFFCURVE",
"1259 286 CURVE",
"1328 378 OFFCURVE",
"1383 488 OFFCURVE",
"1420 604 CURVE SMOOTH",
"1457 719 OFFCURVE",
"1476 840 OFFCURVE",
"1476 956 CURVE SMOOTH",
"1476 981 OFFCURVE",
"1475 1007 OFFCURVE",
"1473 1032 CURVE",
"1343 1032 LINE",
"1344 1028 OFFCURVE",
"1344 1025 OFFCURVE",
"1345 1022 CURVE SMOOTH",
"1346 1019 OFFCURVE",
"1346 1015 OFFCURVE",
"1347 1010 CURVE SMOOTH",
"1348 1004 OFFCURVE",
"1348 996 OFFCURVE",
"1349 987 CURVE SMOOTH",
"1350 977 OFFCURVE",
"1350 963 OFFCURVE",
"1350 946 CURVE SMOOTH",
"1350 847 OFFCURVE",
"1333 741 OFFCURVE",
"1302 641 CURVE SMOOTH",
"1270 541 OFFCURVE",
"1225 448 OFFCURVE",
"1170 372 CURVE",
"707 838 LINE",
"792 882 OFFCURVE",
"875 934 OFFCURVE",
"936 996 CURVE SMOOTH",
"996 1058 OFFCURVE",
"1035 1129 OFFCURVE",
"1035 1213 CURVE SMOOTH",
"1035 1308 OFFCURVE",
"989 1377 OFFCURVE",
"921 1422 CURVE SMOOTH",
"853 1467 OFFCURVE",
"762 1489 OFFCURVE",
"673 1489 CURVE SMOOTH",
"576 1489 OFFCURVE",
"488 1465 OFFCURVE",
"424 1418 CURVE SMOOTH",
"360 1370 OFFCURVE",
"321 1300 OFFCURVE",
"321 1207 CURVE SMOOTH",
"321 1168 OFFCURVE",
"327 1132 OFFCURVE",
"340 1101 CURVE SMOOTH",
"364 1038 OFFCURVE",
"406 985 OFFCURVE",
"456 936 CURVE SMOOTH",
"481 911 OFFCURVE",
"506 886 OFFCURVE",
"531 861 CURVE",
"434 809 OFFCURVE",
"334 751 OFFCURVE",
"259 676 CURVE SMOOTH",
"183 600 OFFCURVE",
"132 510 OFFCURVE",
"132 395 CURVE SMOOTH"
);
},
{
closed = 1;
nodes = (
"1054 226 OFFCURVE",
"995 176 OFFCURVE",
"924 140 CURVE SMOOTH",
"853 104 OFFCURVE",
"770 82 OFFCURVE",
"670 82 CURVE SMOOTH",
"550 82 OFFCURVE",
"450 117 OFFCURVE",
"379 174 CURVE SMOOTH",
"308 231 OFFCURVE",
"267 312 OFFCURVE",
"267 403 CURVE SMOOTH",
"267 496 OFFCURVE",
"309 572 OFFCURVE",
"373 633 CURVE SMOOTH",
"437 694 OFFCURVE",
"523 743 OFFCURVE",
"608 784 CURVE",
"859 533 LINE SMOOTH",
"922 470 OFFCURVE",
"985 407 OFFCURVE",
"1033 360 CURVE SMOOTH",
"1056 337 OFFCURVE",
"1075 318 OFFCURVE",
"1089 304 CURVE SMOOTH",
"1103 289 OFFCURVE",
"1110 282 OFFCURVE",
"1109 282 CURVE"
);
},
{
closed = 1;
nodes = (
"577 956 OFFCURVE",
"532 1000 OFFCURVE",
"500 1048 CURVE SMOOTH",
"468 1095 OFFCURVE",
"449 1145 OFFCURVE",
"449 1204 CURVE SMOOTH",
"449 1265 OFFCURVE",
"476 1311 OFFCURVE",
"518 1343 CURVE SMOOTH",
"560 1374 OFFCURVE",
"618 1390 OFFCURVE",
"679 1390 CURVE SMOOTH",
"734 1390 OFFCURVE",
"791 1376 OFFCURVE",
"835 1346 CURVE SMOOTH",
"878 1316 OFFCURVE",
"908 1267 OFFCURVE",
"908 1202 CURVE SMOOTH",
"908 1137 OFFCURVE",
"872 1081 OFFCURVE",
"820 1033 CURVE SMOOTH",
"767 985 OFFCURVE",
"697 945 OFFCURVE",
"629 909 CURVE"
);
}
);
width = 1647;
},
{
associatedMasterId = "B7B71B2F-D3C2-46AB-9878-0EE3FC7FFFF4";
layerId = "14713F14-1CA6-457F-BEE1-3124B2889DBE";
name = "Light Backup_Reg";
paths = (
{
closed = 1;
nodes = (
"115 266 OFFCURVE",
"174 159 OFFCURVE",
"272 86 CURVE SMOOTH",
"370 13 OFFCURVE",
"505 -27 OFFCURVE",
"661 -27 CURVE SMOOTH",
"773 -27 OFFCURVE",
"869 -4 OFFCURVE",
"953 35 CURVE SMOOTH",
"1036 74 OFFCURVE",
"1106 127 OFFCURVE",
"1166 186 CURVE",
"1227 127 OFFCURVE",
"1276 83 OFFCURVE",
"1325 51 CURVE SMOOTH",
"1374 18 OFFCURVE",
"1423 -3 OFFCURVE",
"1486 -12 CURVE",
"1618 86 LINE",
"1534 103 OFFCURVE",
"1473 125 OFFCURVE",
"1418 158 CURVE SMOOTH",
"1363 190 OFFCURVE",
"1315 234 OFFCURVE",
"1255 295 CURVE",
"1327 395 OFFCURVE",
"1381 516 OFFCURVE",
"1416 644 CURVE SMOOTH",
"1451 772 OFFCURVE",
"1465 907 OFFCURVE",
"1456 1032 CURVE",
"1283 1032 LINE",
"1284 1022 OFFCURVE",
"1286 1010 OFFCURVE",
"1288 995 CURVE SMOOTH",
"1290 980 OFFCURVE",
"1291 960 OFFCURVE",
"1291 935 CURVE SMOOTH",
"1291 846 OFFCURVE",
"1276 749 OFFCURVE",
"1249 658 CURVE SMOOTH",
"1222 566 OFFCURVE",
"1184 478 OFFCURVE",
"1139 409 CURVE",
"729 822 LINE",
"809 865 OFFCURVE",
"886 917 OFFCURVE",
"943 978 CURVE SMOOTH",
"999 1038 OFFCURVE",
"1036 1108 OFFCURVE",
"1036 1188 CURVE SMOOTH",
"1036 1285 OFFCURVE",
"989 1356 OFFCURVE",
"919 1404 CURVE SMOOTH",
"849 1451 OFFCURVE",
"754 1473 OFFCURVE",
"661 1473 CURVE SMOOTH",
"561 1473 OFFCURVE",
"472 1448 OFFCURVE",
"406 1400 CURVE SMOOTH",
"340 1351 OFFCURVE",
"299 1278 OFFCURVE",
"299 1182 CURVE SMOOTH",
"299 1113 OFFCURVE",
"322 1056 OFFCURVE",
"356 1006 CURVE SMOOTH",
"390 956 OFFCURVE",
"435 911 OFFCURVE",
"479 867 CURVE SMOOTH",
"494 852 LINE",
"398 801 OFFCURVE",
"304 744 OFFCURVE",
"233 672 CURVE SMOOTH",
"162 600 OFFCURVE",
"115 514 OFFCURVE",
"115 402 CURVE SMOOTH"
);
},
{
closed = 1;
nodes = (
"1007 242 OFFCURVE",
"953 198 OFFCURVE",
"889 167 CURVE SMOOTH",
"824 135 OFFCURVE",
"749 116 OFFCURVE",
"658 116 CURVE SMOOTH",
"551 116 OFFCURVE",
"461 147 OFFCURVE",
"397 199 CURVE SMOOTH",
"333 250 OFFCURVE",
"295 322 OFFCURVE",
"295 406 CURVE SMOOTH",
"295 491 OFFCURVE",
"331 559 OFFCURVE",
"387 614 CURVE SMOOTH",
"443 669 OFFCURVE",
"518 711 OFFCURVE",
"594 750 CURVE",
"823 523 LINE SMOOTH",
"852 494 OFFCURVE",
"880 466 OFFCURVE",
"908 439 CURVE SMOOTH",
"935 412 OFFCURVE",
"960 387 OFFCURVE",
"982 365 CURVE SMOOTH",
"1004 343 OFFCURVE",
"1022 325 OFFCURVE",
"1036 312 CURVE",
"1049 299 OFFCURVE",
"1057 292 OFFCURVE",
"1058 291 CURVE"
);
},
{
closed = 1;
nodes = (
"580 959 OFFCURVE",
"542 999 OFFCURVE",
"515 1041 CURVE SMOOTH",
"487 1083 OFFCURVE",
"472 1127 OFFCURVE",
"472 1178 CURVE SMOOTH",
"472 1231 OFFCURVE",
"494 1272 OFFCURVE",
"530 1300 CURVE SMOOTH",
"566 1327 OFFCURVE",
"614 1340 OFFCURVE",
"669 1340 CURVE SMOOTH",
"716 1340 OFFCURVE",
"765 1329 OFFCURVE",
"802 1303 CURVE SMOOTH",
"839 1277 OFFCURVE",
"865 1235 OFFCURVE",
"865 1178 CURVE SMOOTH",
"865 1121 OFFCURVE",
"835 1073 OFFCURVE",
"791 1030 CURVE SMOOTH",
"746 987 OFFCURVE",
"685 950 OFFCURVE",
"625 918 CURVE"
);
}
);
width = 1647;
}
);
note = ampersand;
unicode = 0026;
},
{
glyphname = quotesingle;
lastChange = "2016-08-29 16:03:12 +0000";
layers = (
{
background = {
paths = (
{
closed = 1;
nodes = (
"241 1016 OFFCURVE",
"266 994 OFFCURVE",
"291 994 CURVE SMOOTH",
"318 994 OFFCURVE",
"342 1016 OFFCURVE",
"346 1059 CURVE SMOOTH",
"374 1408 LINE",
"374 1414 LINE SMOOTH",
"374 1458 OFFCURVE",
"334 1480 OFFCURVE",
"293 1480 CURVE SMOOTH",
"250 1480 OFFCURVE",
"210 1457 OFFCURVE",
"210 1414 CURVE SMOOTH",
"210 1408 LINE",
"238 1059 LINE SMOOTH"
);
}
);
};
layerId = "B7B71B2F-D3C2-46AB-9878-0EE3FC7FFFF4";
paths = (
{
closed = 1;
nodes = (
"241 1016 OFFCURVE",
"266 994 OFFCURVE",
"291 994 CURVE SMOOTH",
"318 994 OFFCURVE",
"342 1016 OFFCURVE",
"346 1059 CURVE SMOOTH",
"374 1408 LINE",
"374 1414 LINE SMOOTH",
"374 1458 OFFCURVE",
"334 1480 OFFCURVE",
"293 1480 CURVE SMOOTH",
"250 1480 OFFCURVE",
"210 1457 OFFCURVE",
"210 1414 CURVE SMOOTH",
"210 1408 LINE",
"238 1059 LINE SMOOTH"
);
}
);
width = 584;
},
{
associatedMasterId = "B7B71B2F-D3C2-46AB-9878-0EE3FC7FFFF4";
layerId = "4C0A4C52-A9D9-4A1D-B81B-0EDA934B9EB8";
name = "Light Backup";
paths = (
{
closed = 1;
nodes = (
"341 1467 LINE",
"204 1467 LINE",
"238 1026 LINE",
"341 1026 LINE"
);
}
);
width = 554;
},
{
associatedMasterId = "B7B71B2F-D3C2-46AB-9878-0EE3FC7FFFF4";
layerId = "14713F14-1CA6-457F-BEE1-3124B2889DBE";
name = "Light Backup_Reg";
paths = (
{
closed = 1;
nodes = (
"360 1451 LINE",
"176 1451 LINE",
"212 989 LINE",
"342 989 LINE"
);
}
);
width = 554;
}
);
note = quotesingle;
unicode = 0027;
},
{
glyphname = parenleft;
lastChange = "2016-08-29 16:03:12 +0000";
layers = (
{
background = {
paths = (
{
closed = 1;
nodes = (
"377 -207 OFFCURVE",
"400 -220 OFFCURVE",
"424 -220 CURVE SMOOTH",
"456 -220 OFFCURVE",
"486 -196 OFFCURVE",
"486 -161 CURVE SMOOTH",
"486 -150 OFFCURVE",
"484 -141 OFFCURVE",
"481 -134 CURVE",
"385 126 OFFCURVE",
"328 386 OFFCURVE",
"328 634 CURVE SMOOTH",
"328 883 OFFCURVE",
"386 1146 OFFCURVE",
"482 1406 CURVE",
"486 1415 OFFCURVE",
"487 1424 OFFCURVE",
"487 1432 CURVE SMOOTH",
"487 1468 OFFCURVE",
"456 1493 OFFCURVE",
"424 1493 CURVE SMOOTH",
"400 1493 OFFCURVE",
"375 1479 OFFCURVE",
"362 1447 CURVE SMOOTH",
"307 1316 OFFCURVE",
"256 1182 OFFCURVE",
"218 1046 CURVE SMOOTH",
"180 910 OFFCURVE",
"155 772 OFFCURVE",
"155 633 CURVE SMOOTH",
"155 494 OFFCURVE",
"180 358 OFFCURVE",
"218 223 CURVE SMOOTH",
"256 88 OFFCURVE",
"307 -45 OFFCURVE",
"362 -174 CURVE SMOOTH"
);
}
);
};
layerId = "B7B71B2F-D3C2-46AB-9878-0EE3FC7FFFF4";
paths = (
{
closed = 1;
nodes = (
"377 -207 OFFCURVE",
"400 -220 OFFCURVE",
"424 -220 CURVE SMOOTH",
"456 -220 OFFCURVE",
"486 -196 OFFCURVE",
"486 -161 CURVE SMOOTH",
"486 -150 OFFCURVE",
"484 -141 OFFCURVE",
"481 -134 CURVE",
"385 126 OFFCURVE",
"328 386 OFFCURVE",
"328 634 CURVE SMOOTH",
"328 883 OFFCURVE",
"386 1146 OFFCURVE",
"482 1406 CURVE",
"486 1415 OFFCURVE",
"487 1424 OFFCURVE",
"487 1432 CURVE SMOOTH",
"487 1468 OFFCURVE",
"456 1493 OFFCURVE",
"424 1493 CURVE SMOOTH",
"400 1493 OFFCURVE",
"375 1479 OFFCURVE",
"362 1447 CURVE SMOOTH",
"307 1316 OFFCURVE",
"256 1182 OFFCURVE",
"218 1046 CURVE SMOOTH",
"180 910 OFFCURVE",
"155 772 OFFCURVE",
"155 633 CURVE SMOOTH",
"155 494 OFFCURVE",
"180 358 OFFCURVE",
"218 223 CURVE SMOOTH",
"256 88 OFFCURVE",
"307 -45 OFFCURVE",
"362 -174 CURVE SMOOTH"
);
}
);
width = 592;
},
{
associatedMasterId = "B7B71B2F-D3C2-46AB-9878-0EE3FC7FFFF4";
layerId = "4C0A4C52-A9D9-4A1D-B81B-0EDA934B9EB8";
name = "Light Backup";
paths = (
{
closed = 1;
nodes = (
"474 -145 OFFCURVE",
"409 -1 OFFCURVE",
"365 148 CURVE SMOOTH",
"321 297 OFFCURVE",
"297 453 OFFCURVE",
"297 598 CURVE SMOOTH",
"297 911 OFFCURVE",
"389 1202 OFFCURVE",
"553 1467 CURVE",
"458 1467 LINE",
"373 1334 OFFCURVE",
"302 1196 OFFCURVE",
"254 1050 CURVE SMOOTH",
"205 904 OFFCURVE",
"178 750 OFFCURVE",
"178 589 CURVE SMOOTH",
"178 430 OFFCURVE",
"209 276 OFFCURVE",
"260 130 CURVE SMOOTH",
"311 -16 OFFCURVE",
"379 -152 OFFCURVE",
"455 -268 CURVE",
"554 -268 LINE"
);
}
);
width = 628;
},
{
associatedMasterId = "B7B71B2F-D3C2-46AB-9878-0EE3FC7FFFF4";
layerId = "14713F14-1CA6-457F-BEE1-3124B2889DBE";
name = "Light Backup_Reg";
paths = (
{
closed = 1;
nodes = (
"499 -134 OFFCURVE",
"434 9 OFFCURVE",
"388 155 CURVE SMOOTH",
"342 301 OFFCURVE",
"316 450 OFFCURVE",
"316 590 CURVE SMOOTH",
"316 894 OFFCURVE",
"410 1183 OFFCURVE",
"578 1451 CURVE",
"430 1451 LINE",
"346 1319 OFFCURVE",
"277 1183 OFFCURVE",
"229 1040 CURVE SMOOTH",
"181 896 OFFCURVE",
"153 747 OFFCURVE",
"153 587 CURVE SMOOTH",
"153 434 OFFCURVE",
"184 282 OFFCURVE",
"235 138 CURVE SMOOTH",
"286 -6 OFFCURVE",
"356 -140 OFFCURVE",
"433 -259 CURVE",
"579 -259 LINE"
);
}
);
width = 628;
}
);
note = parenleft;
unicode = 0028;
},
{
glyphname = parenright;
lastChange = "2016-08-29 16:03:12 +0000";
layers = (
{
background = {
paths = (
{
closed = 1;
nodes = (
"287 -45 OFFCURVE",
"339 88 OFFCURVE",
"377 223 CURVE SMOOTH",
"415 358 OFFCURVE",
"439 494 OFFCURVE",
"439 633 CURVE SMOOTH",
"439 772 OFFCURVE",
"415 910 OFFCURVE",
"377 1046 CURVE SMOOTH",
"339 1182 OFFCURVE",
"287 1316 OFFCURVE",
"232 1447 CURVE",
"217 1479 OFFCURVE",
"194 1492 OFFCURVE",
"170 1492 CURVE SMOOTH",
"138 1492 OFFCURVE",
"106 1467 OFFCURVE",
"106 1432 CURVE SMOOTH",
"106 1423 OFFCURVE",
"108 1415 OFFCURVE",
"112 1406 CURVE",
"208 1145 OFFCURVE",
"266 883 OFFCURVE",
"266 634 CURVE SMOOTH",
"266 386 OFFCURVE",
"209 126 OFFCURVE",
"113 -134 CURVE SMOOTH",
"109 -144 OFFCURVE",
"107 -153 OFFCURVE",
"107 -161 CURVE SMOOTH",
"107 -196 OFFCURVE",
"137 -220 OFFCURVE",
"169 -220 CURVE SMOOTH",
"193 -220 OFFCURVE",
"217 -207 OFFCURVE",
"232 -174 CURVE SMOOTH"
);
}
);
};
layerId = "B7B71B2F-D3C2-46AB-9878-0EE3FC7FFFF4";
paths = (
{
closed = 1;
nodes = (
"287 -45 OFFCURVE",
"339 88 OFFCURVE",
"377 223 CURVE SMOOTH",
"415 358 OFFCURVE",
"439 494 OFFCURVE",
"439 633 CURVE SMOOTH",
"439 772 OFFCURVE",
"415 910 OFFCURVE",
"377 1046 CURVE SMOOTH",
"339 1182 OFFCURVE",
"287 1316 OFFCURVE",
"232 1447 CURVE",
"217 1479 OFFCURVE",
"194 1492 OFFCURVE",
"170 1492 CURVE SMOOTH",
"138 1492 OFFCURVE",
"106 1467 OFFCURVE",
"106 1432 CURVE SMOOTH",
"106 1423 OFFCURVE",
"108 1415 OFFCURVE",
"112 1406 CURVE",
"208 1145 OFFCURVE",
"266 883 OFFCURVE",
"266 634 CURVE SMOOTH",
"266 386 OFFCURVE",
"209 126 OFFCURVE",
"113 -134 CURVE SMOOTH",
"109 -144 OFFCURVE",
"107 -153 OFFCURVE",
"107 -161 CURVE SMOOTH",
"107 -196 OFFCURVE",
"137 -220 OFFCURVE",
"169 -220 CURVE SMOOTH",
"193 -220 OFFCURVE",
"217 -207 OFFCURVE",
"232 -174 CURVE SMOOTH"
);
}
);
width = 592;
},
{
associatedMasterId = "B7B71B2F-D3C2-46AB-9878-0EE3FC7FFFF4";
layerId = "4C0A4C52-A9D9-4A1D-B81B-0EDA934B9EB8";
name = "Light Backup";
paths = (
{
closed = 1;
nodes = (
"273 -139 OFFCURVE",
"343 -3 OFFCURVE",
"393 142 CURVE SMOOTH",
"443 286 OFFCURVE",
"471 440 OFFCURVE",
"471 604 CURVE SMOOTH",
"471 761 OFFCURVE",
"439 917 OFFCURVE",
"388 1062 CURVE SMOOTH",
"337 1207 OFFCURVE",
"267 1344 OFFCURVE",
"190 1467 CURVE",
"89 1467 LINE",
"172 1336 OFFCURVE",
"237 1192 OFFCURVE",
"281 1044 CURVE SMOOTH",
"325 896 OFFCURVE",
"349 745 OFFCURVE",
"349 604 CURVE SMOOTH",
"349 437 OFFCURVE",
"322 280 OFFCURVE",
"277 134 CURVE SMOOTH",
"232 -12 OFFCURVE",
"168 -148 OFFCURVE",
"93 -268 CURVE",
"189 -268 LINE"
);
}
);
width = 628;
},
{
associatedMasterId = "B7B71B2F-D3C2-46AB-9878-0EE3FC7FFFF4";
layerId = "14713F14-1CA6-457F-BEE1-3124B2889DBE";
name = "Light Backup_Reg";
paths = (
{
closed = 1;
nodes = (
"286 -131 OFFCURVE",
"355 4 OFFCURVE",
"403 146 CURVE SMOOTH",
"451 288 OFFCURVE",
"479 437 OFFCURVE",
"479 598 CURVE SMOOTH",
"479 751 OFFCURVE",
"449 903 OFFCURVE",
"399 1048 CURVE SMOOTH",
"349 1192 OFFCURVE",
"278 1328 OFFCURVE",
"199 1451 CURVE",
"52 1451 LINE",
"136 1319 OFFCURVE",
"202 1174 OFFCURVE",
"247 1029 CURVE SMOOTH",
"291 884 OFFCURVE",
"315 737 OFFCURVE",
"315 604 CURVE SMOOTH",
"315 444 OFFCURVE",
"289 288 OFFCURVE",
"243 144 CURVE SMOOTH",
"197 -1 OFFCURVE",
"132 -138 OFFCURVE",
"56 -259 CURVE",
"205 -259 LINE"
);
}
);
width = 628;
}
);
note = parenright;
unicode = 0029;
},
{
glyphname = asterisk;
lastChange = "2016-08-29 16:03:12 +0000";
layers = (
{
background = {
paths = (
{
closed = 1;
nodes = (
"786 1352 OFFCURVE",
"789 1362 OFFCURVE",
"789 1374 CURVE SMOOTH",
"789 1406 OFFCURVE",
"763 1437 OFFCURVE",
"726 1437 CURVE SMOOTH",
"703 1437 OFFCURVE",
"684 1426 OFFCURVE",
"670 1405 CURVE",
"551 1189 LINE",
"432 1405 LINE SMOOTH",
"420 1426 OFFCURVE",
"399 1437 OFFCURVE",
"376 1437 CURVE SMOOTH",
"339 1437 OFFCURVE",
"313 1406 OFFCURVE",
"313 1375 CURVE SMOOTH",
"313 1364 OFFCURVE",
"316 1353 OFFCURVE",
"322 1343 CURVE SMOOTH",
"448 1139 LINE",
"207 1148 LINE",
"171 1148 OFFCURVE",
"143 1122 OFFCURVE",
"143 1086 CURVE SMOOTH",
"143 1053 OFFCURVE",
"172 1025 OFFCURVE",
"207 1025 CURVE",
"451 1034 LINE",
"324 830 LINE",
"318 819 OFFCURVE",
"315 808 OFFCURVE",
"315 797 CURVE SMOOTH",
"315 784 OFFCURVE",
"321 769 OFFCURVE",
"332 757 CURVE SMOOTH",
"343 745 OFFCURVE",
"358 737 OFFCURVE",
"378 737 CURVE",
"401 738 OFFCURVE",
"423 748 OFFCURVE",
"434 768 CURVE SMOOTH",
"551 979 LINE",
"669 768 LINE SMOOTH",
"680 748 OFFCURVE",
"701 737 OFFCURVE",
"724 737 CURVE SMOOTH",
"763 737 OFFCURVE",
"787 768 OFFCURVE",
"787 797 CURVE SMOOTH",
"787 808 OFFCURVE",
"784 819 OFFCURVE",
"778 830 CURVE",
"652 1034 LINE",
"898 1025 LINE",
"934 1025 OFFCURVE",
"962 1053 OFFCURVE",
"962 1086 CURVE SMOOTH",
"962 1122 OFFCURVE",
"934 1148 OFFCURVE",
"898 1148 CURVE",
"654 1139 LINE",
"781 1343 LINE"
);
}
);
};
layerId = "B7B71B2F-D3C2-46AB-9878-0EE3FC7FFFF4";
paths = (
{
closed = 1;
nodes = (
"786 1352 OFFCURVE",
"789 1362 OFFCURVE",
"789 1374 CURVE SMOOTH",
"789 1406 OFFCURVE",
"763 1437 OFFCURVE",
"726 1437 CURVE SMOOTH",
"703 1437 OFFCURVE",
"684 1426 OFFCURVE",
"670 1405 CURVE",
"551 1189 LINE",
"432 1405 LINE SMOOTH",
"420 1426 OFFCURVE",
"399 1437 OFFCURVE",
"376 1437 CURVE SMOOTH",
"339 1437 OFFCURVE",
"313 1406 OFFCURVE",
"313 1375 CURVE SMOOTH",
"313 1364 OFFCURVE",
"316 1353 OFFCURVE",
"322 1343 CURVE SMOOTH",
"448 1139 LINE",
"207 1148 LINE",
"171 1148 OFFCURVE",
"143 1122 OFFCURVE",
"143 1086 CURVE SMOOTH",
"143 1053 OFFCURVE",
"172 1025 OFFCURVE",
"207 1025 CURVE",
"451 1034 LINE",
"324 830 LINE",
"318 819 OFFCURVE",
"315 808 OFFCURVE",
"315 797 CURVE SMOOTH",
"315 784 OFFCURVE",
"321 769 OFFCURVE",
"332 757 CURVE SMOOTH",
"343 745 OFFCURVE",
"358 737 OFFCURVE",
"378 737 CURVE",
"401 738 OFFCURVE",
"423 748 OFFCURVE",
"434 768 CURVE SMOOTH",
"551 979 LINE",
"669 768 LINE SMOOTH",
"680 748 OFFCURVE",
"701 737 OFFCURVE",
"724 737 CURVE SMOOTH",
"763 737 OFFCURVE",
"787 768 OFFCURVE",
"787 797 CURVE SMOOTH",
"787 808 OFFCURVE",
"784 819 OFFCURVE",
"778 830 CURVE",
"652 1034 LINE",
"898 1025 LINE",
"934 1025 OFFCURVE",
"962 1053 OFFCURVE",
"962 1086 CURVE SMOOTH",
"962 1122 OFFCURVE",
"934 1148 OFFCURVE",
"898 1148 CURVE",
"654 1139 LINE",
"781 1343 LINE"
);
}
);
width = 1105;
},
{
associatedMasterId = "B7B71B2F-D3C2-46AB-9878-0EE3FC7FFFF4";
layerId = "4C0A4C52-A9D9-4A1D-B81B-0EDA934B9EB8";
name = "Light Backup";
paths = (
{
closed = 1;
nodes = (
"808 826 LINE",
"599 1089 LINE",
"875 1183 LINE",
"826 1274 LINE",
"576 1137 LINE",
"576 1467 LINE",
"492 1467 LINE",
"517 1139 LINE",
"216 1271 LINE",
"198 1170 LINE",
"494 1086 LINE",
"287 836 LINE",
"374 782 LINE",
"546 1065 LINE",
"718 774 LINE"
);
}
);
width = 1065;
},
{
associatedMasterId = "B7B71B2F-D3C2-46AB-9878-0EE3FC7FFFF4";
layerId = "14713F14-1CA6-457F-BEE1-3124B2889DBE";
name = "Light Backup_Reg";
paths = (
{
closed = 1;
nodes = (
"439 1451 LINE",
"446 1401 OFFCURVE",
"453 1351 OFFCURVE",
"460 1300 CURVE SMOOTH",
"467 1249 OFFCURVE",
"473 1198 OFFCURVE",
"480 1148 CURVE",
"196 1271 LINE",
"175 1136 LINE",
"448 1058 LINE",
"257 820 LINE",
"381 745 LINE",
"534 1003 LINE",
"692 737 LINE",
"818 810 LINE",
"617 1061 LINE",
"880 1149 LINE",
"816 1274 LINE",
"581 1153 LINE",
"588 1451 LINE"
);
}
);
width = 1065;
}
);
note = asterisk;
unicode = 002A;
},
{
glyphname = plus;
lastChange = "2016-08-29 16:03:12 +0000";
layers = (
{
background = {
paths = (
{
closed = 1;
nodes = (
"739 963 OFFCURVE",
"707 992 OFFCURVE",
"670 992 CURVE SMOOTH",
"630 992 OFFCURVE",
"600 963 OFFCURVE",
"600 924 CURVE SMOOTH",
"600 563 LINE",
"227 563 LINE SMOOTH",
"188 563 OFFCURVE",
"157 535 OFFCURVE",
"157 496 CURVE SMOOTH",
"157 460 OFFCURVE",
"188 429 OFFCURVE",
"227 429 CURVE SMOOTH",
"600 429 LINE",
"600 71 LINE SMOOTH",
"600 32 OFFCURVE",
"630 4 OFFCURVE",
"670 4 CURVE SMOOTH",
"707 4 OFFCURVE",
"739 34 OFFCURVE",
"739 71 CURVE SMOOTH",
"739 429 LINE",
"1113 429 LINE SMOOTH",
"1152 429 OFFCURVE",
"1183 460 OFFCURVE",
"1183 496 CURVE SMOOTH",
"1183 535 OFFCURVE",
"1152 563 OFFCURVE",
"1113 563 CURVE SMOOTH",
"739 563 LINE",
"739 924 LINE SMOOTH"
);
}
);
};
layerId = "B7B71B2F-D3C2-46AB-9878-0EE3FC7FFFF4";
paths = (
{
closed = 1;
nodes = (
"739 963 OFFCURVE",
"707 992 OFFCURVE",
"670 992 CURVE SMOOTH",
"630 992 OFFCURVE",
"600 963 OFFCURVE",
"600 924 CURVE SMOOTH",
"600 563 LINE",
"227 563 LINE SMOOTH",
"188 563 OFFCURVE",
"157 535 OFFCURVE",
"157 496 CURVE SMOOTH",
"157 460 OFFCURVE",
"188 429 OFFCURVE",
"227 429 CURVE SMOOTH",
"600 429 LINE",
"600 71 LINE SMOOTH",
"600 32 OFFCURVE",
"630 4 OFFCURVE",
"670 4 CURVE SMOOTH",
"707 4 OFFCURVE",
"739 34 OFFCURVE",
"739 71 CURVE SMOOTH",
"739 429 LINE",
"1113 429 LINE SMOOTH",
"1152 429 OFFCURVE",
"1183 460 OFFCURVE",
"1183 496 CURVE SMOOTH",
"1183 535 OFFCURVE",
"1152 563 OFFCURVE",
"1113 563 CURVE SMOOTH",
"739 563 LINE",
"739 924 LINE SMOOTH"
);
}
);
width = 1340;
},
{
associatedMasterId = "B7B71B2F-D3C2-46AB-9878-0EE3FC7FFFF4";
layerId = "4C0A4C52-A9D9-4A1D-B81B-0EDA934B9EB8";
name = "Light Backup";
paths = (
{
closed = 1;
nodes = (
"218 504 LINE",
"681 504 LINE",
"681 65 LINE",
"788 65 LINE",
"788 504 LINE",
"1256 504 LINE",
"1256 608 LINE",
"791 608 LINE",
"791 1047 LINE",
"685 1047 LINE",
"685 608 LINE",
"218 608 LINE"
);
}
);
width = 1458;
},
{
associatedMasterId = "B7B71B2F-D3C2-46AB-9878-0EE3FC7FFFF4";
layerId = "14713F14-1CA6-457F-BEE1-3124B2889DBE";
name = "Light Backup_Reg";
paths = (
{
closed = 1;
nodes = (
"200 485 LINE",
"646 485 LINE",
"644 62 LINE",
"795 62 LINE",
"798 485 LINE",
"1246 485 LINE",
"1245 624 LINE",
"797 624 LINE",
"799 1047 LINE",
"649 1047 LINE",
"646 624 LINE",
"198 624 LINE"
);
}
);
width = 1458;
}
);
note = plus;
unicode = 002B;
},
{
glyphname = comma;
lastChange = "2016-08-29 16:03:12 +0000";
layers = (
{
background = {
paths = (
{
closed = 1;
nodes = (
"204 185 LINE",
"111 -240 LINE",
"249 -240 LINE",
"401 185 LINE"
);
}
);
};
layerId = "B7B71B2F-D3C2-46AB-9878-0EE3FC7FFFF4";
paths = (
{
closed = 1;
nodes = (
"204 185 LINE",
"111 -240 LINE",
"249 -240 LINE",
"401 185 LINE"
);
}
);
width = 584;
},
{
associatedMasterId = "B7B71B2F-D3C2-46AB-9878-0EE3FC7FFFF4";
layerId = "4C0A4C52-A9D9-4A1D-B81B-0EDA934B9EB8";
name = "Light Backup";
paths = (
{
closed = 1;
nodes = (
"198 -265 LINE",
"353 176 LINE",
"213 176 LINE",
"107 -265 LINE"
);
}
);
width = 540;
},
{
associatedMasterId = "B7B71B2F-D3C2-46AB-9878-0EE3FC7FFFF4";
layerId = "14713F14-1CA6-457F-BEE1-3124B2889DBE";
name = "Light Backup_Reg";
paths = (
{
closed = 1;
nodes = (
"209 -256 LINE",
"372 207 LINE",
"185 207 LINE",
"78 -256 LINE"
);
}
);
width = 540;
}
);
note = comma;
unicode = 002C;
},
{
glyphname = hyphen;
lastChange = "2016-08-29 16:03:12 +0000";
layers = (
{
background = {
paths = (
{
closed = 1;
nodes = (
"534 457 OFFCURVE",
"566 487 OFFCURVE",
"566 526 CURVE SMOOTH",
"566 567 OFFCURVE",
"534 598 OFFCURVE",
"493 598 CURVE SMOOTH",
"104 598 LINE SMOOTH",
"61 598 OFFCURVE",
"30 567 OFFCURVE",
"30 526 CURVE SMOOTH",
"30 487 OFFCURVE",
"63 457 OFFCURVE",
"104 457 CURVE SMOOTH",
"493 457 LINE SMOOTH"
);
}
);
};
layerId = "B7B71B2F-D3C2-46AB-9878-0EE3FC7FFFF4";
paths = (
{
closed = 1;
nodes = (
"534 457 OFFCURVE",
"566 487 OFFCURVE",
"566 526 CURVE SMOOTH",
"566 567 OFFCURVE",
"534 598 OFFCURVE",
"493 598 CURVE SMOOTH",
"104 598 LINE SMOOTH",
"61 598 OFFCURVE",
"30 567 OFFCURVE",
"30 526 CURVE SMOOTH",
"30 487 OFFCURVE",
"63 457 OFFCURVE",
"104 457 CURVE SMOOTH",
"493 457 LINE SMOOTH"
);
}
);
width = 596;
},
{
associatedMasterId = "B7B71B2F-D3C2-46AB-9878-0EE3FC7FFFF4";
layerId = "4C0A4C52-A9D9-4A1D-B81B-0EDA934B9EB8";
name = "Light Backup";
paths = (
{
closed = 1;
nodes = (
"645 610 LINE",
"100 610 LINE",
"100 508 LINE",
"645 508 LINE"
);
}
);
width = 728;
},
{
associatedMasterId = "B7B71B2F-D3C2-46AB-9878-0EE3FC7FFFF4";
layerId = "14713F14-1CA6-457F-BEE1-3124B2889DBE";
name = "Light Backup_Reg";
paths = (
{
closed = 1;
nodes = (
"650 626 LINE",
"79 626 LINE",
"80 489 LINE",
"651 489 LINE"
);
}
);
width = 728;
}
);
note = hyphen;
unicode = 002D;
},
{
glyphname = period;
lastChange = "2016-08-29 16:03:12 +0000";
layers = (
{
background = {
paths = (
{
closed = 1;
nodes = (
"184 72 OFFCURVE",
"193 48 OFFCURVE",
"212 30 CURVE SMOOTH",
"231 12 OFFCURVE",
"257 -1 OFFCURVE",
"292 -1 CURVE SMOOTH",
"325 -1 OFFCURVE",
"352 12 OFFCURVE",
"371 30 CURVE SMOOTH",
"390 48 OFFCURVE",
"399 72 OFFCURVE",
"399 97 CURVE SMOOTH",
"399 121 OFFCURVE",
"390 146 OFFCURVE",
"371 164 CURVE SMOOTH",
"352 182 OFFCURVE",
"325 194 OFFCURVE",
"292 194 CURVE SMOOTH",
"257 194 OFFCURVE",
"231 182 OFFCURVE",
"212 164 CURVE SMOOTH",
"193 146 OFFCURVE",
"184 121 OFFCURVE",
"184 97 CURVE SMOOTH"
);
}
);
};
layerId = "B7B71B2F-D3C2-46AB-9878-0EE3FC7FFFF4";
paths = (
{
closed = 1;
nodes = (
"184 72 OFFCURVE",
"193 48 OFFCURVE",
"212 30 CURVE SMOOTH",
"231 12 OFFCURVE",
"257 -1 OFFCURVE",
"292 -1 CURVE SMOOTH",
"325 -1 OFFCURVE",
"352 12 OFFCURVE",
"371 30 CURVE SMOOTH",
"390 48 OFFCURVE",
"399 72 OFFCURVE",
"399 97 CURVE SMOOTH",
"399 121 OFFCURVE",
"390 146 OFFCURVE",
"371 164 CURVE SMOOTH",
"352 182 OFFCURVE",
"325 194 OFFCURVE",
"292 194 CURVE SMOOTH",
"257 194 OFFCURVE",
"231 182 OFFCURVE",
"212 164 CURVE SMOOTH",
"193 146 OFFCURVE",
"184 121 OFFCURVE",
"184 97 CURVE SMOOTH"
);
}
);
width = 584;
},
{
associatedMasterId = "B7B71B2F-D3C2-46AB-9878-0EE3FC7FFFF4";
layerId = "4C0A4C52-A9D9-4A1D-B81B-0EDA934B9EB8";
name = "Light Backup";
paths = (
{
closed = 1;
nodes = (
"188 168 LINE",
"188 -11 LINE",
"361 -11 LINE",
"361 168 LINE"
);
}
);
width = 540;
},
{
associatedMasterId = "B7B71B2F-D3C2-46AB-9878-0EE3FC7FFFF4";
layerId = "14713F14-1CA6-457F-BEE1-3124B2889DBE";
name = "Light Backup_Reg";
paths = (
{
closed = 1;
nodes = (
"159 199 LINE",
"159 -11 LINE",
"376 -11 LINE",
"376 199 LINE"
);
}
);
width = 540;
}
);
note = period;
unicode = 002E;
},
{
glyphname = slash;
lastChange = "2016-08-29 16:03:12 +0000";
layers = (
{
background = {
paths = (
{
closed = 1;
nodes = (
"606 1348 OFFCURVE",
"608 1358 OFFCURVE",
"608 1365 CURVE SMOOTH",
"608 1406 OFFCURVE",
"573 1430 OFFCURVE",
"537 1430 CURVE SMOOTH",
"508 1430 OFFCURVE",
"479 1415 OFFCURVE",
"468 1380 CURVE SMOOTH",
"-15 -83 LINE",
"-18 -94 OFFCURVE",
"-20 -103 OFFCURVE",
"-20 -110 CURVE SMOOTH",
"-20 -151 OFFCURVE",
"14 -175 OFFCURVE",
"49 -175 CURVE SMOOTH",
"77 -175 OFFCURVE",
"104 -160 OFFCURVE",
"116 -125 CURVE SMOOTH",
"603 1337 LINE"
);
}
);
};
layerId = "B7B71B2F-D3C2-46AB-9878-0EE3FC7FFFF4";
paths = (
{
closed = 1;
nodes = (
"606 1348 OFFCURVE",
"608 1358 OFFCURVE",
"608 1365 CURVE SMOOTH",
"608 1406 OFFCURVE",
"573 1430 OFFCURVE",
"537 1430 CURVE SMOOTH",
"508 1430 OFFCURVE",
"479 1415 OFFCURVE",
"468 1380 CURVE SMOOTH",
"-15 -83 LINE",
"-18 -94 OFFCURVE",
"-20 -103 OFFCURVE",
"-20 -110 CURVE SMOOTH",
"-20 -151 OFFCURVE",
"14 -175 OFFCURVE",
"49 -175 CURVE SMOOTH",
"77 -175 OFFCURVE",
"104 -160 OFFCURVE",
"116 -125 CURVE SMOOTH",
"603 1337 LINE"
);
}
);
width = 588;
},
{
associatedMasterId = "B7B71B2F-D3C2-46AB-9878-0EE3FC7FFFF4";
layerId = "4C0A4C52-A9D9-4A1D-B81B-0EDA934B9EB8";
name = "Light Backup";
paths = (
{
closed = 1;
nodes = (
"747 1467 LINE",
"626 1467 LINE",
"-22 -224 LINE",
"94 -224 LINE"
);
}
);
width = 717;
},
{
associatedMasterId = "B7B71B2F-D3C2-46AB-9878-0EE3FC7FFFF4";
layerId = "14713F14-1CA6-457F-BEE1-3124B2889DBE";
name = "Light Backup_Reg";
paths = (
{
closed = 1;
nodes = (
"757 1451 LINE",
"590 1451 LINE",
"-47 -215 LINE",
"116 -215 LINE"
);
}
);
width = 717;
}
);
note = slash;
unicode = 002F;
},
{
glyphname = zero;
lastChange = "2016-08-29 16:03:12 +0000";
layers = (
{
background = {
paths = (
{
closed = 1;
nodes = (
"677 1296 OFFCURVE",
"743 1257 OFFCURVE",
"788 1197 CURVE SMOOTH",
"833 1136 OFFCURVE",
"859 1053 OFFCURVE",
"874 969 CURVE SMOOTH",
"889 884 OFFCURVE",
"892 801 OFFCURVE",
"892 705 CURVE SMOOTH",
"892 620 OFFCURVE",
"889 533 OFFCURVE",
"874 448 CURVE SMOOTH",
"859 363 OFFCURVE",
"833 281 OFFCURVE",
"788 221 CURVE SMOOTH",
"743 160 OFFCURVE",
"677 120 OFFCURVE",
"584 120 CURVE SMOOTH",
"492 120 OFFCURVE",
"426 160 OFFCURVE",
"381 221 CURVE SMOOTH",
"336 281 OFFCURVE",
"310 363 OFFCURVE",
"296 448 CURVE SMOOTH",
"282 533 OFFCURVE",
"278 620 OFFCURVE",
"278 705 CURVE SMOOTH",
"278 801 OFFCURVE",
"282 884 OFFCURVE",
"296 969 CURVE SMOOTH",
"310 1053 OFFCURVE",
"336 1136 OFFCURVE",
"381 1197 CURVE SMOOTH",
"426 1257 OFFCURVE",
"491 1296 OFFCURVE",
"584 1296 CURVE SMOOTH"
);
},
{
closed = 1;
nodes = (
"453 1438 OFFCURVE",
"354 1399 OFFCURVE",
"282 1332 CURVE SMOOTH",
"209 1265 OFFCURVE",
"161 1173 OFFCURVE",
"133 1067 CURVE SMOOTH",
"104 961 OFFCURVE",
"93 846 OFFCURVE",
"93 705 CURVE SMOOTH",
"93 573 OFFCURVE",
"104 457 OFFCURVE",
"133 351 CURVE SMOOTH",
"161 245 OFFCURVE",
"209 151 OFFCURVE",
"282 85 CURVE SMOOTH",
"354 19 OFFCURVE",
"452 -22 OFFCURVE",
"584 -22 CURVE SMOOTH",
"716 -22 OFFCURVE",
"814 19 OFFCURVE",
"887 85 CURVE SMOOTH",
"959 151 OFFCURVE",
"1007 245 OFFCURVE",
"1036 351 CURVE SMOOTH",
"1064 457 OFFCURVE",
"1075 573 OFFCURVE",
"1075 705 CURVE SMOOTH",
"1075 846 OFFCURVE",
"1064 961 OFFCURVE",
"1036 1067 CURVE SMOOTH",
"1007 1173 OFFCURVE",
"959 1265 OFFCURVE",
"887 1332 CURVE SMOOTH",
"814 1399 OFFCURVE",
"716 1438 OFFCURVE",
"584 1438 CURVE SMOOTH"
);
}
);
};
layerId = "B7B71B2F-D3C2-46AB-9878-0EE3FC7FFFF4";
paths = (
{
closed = 1;
nodes = (
"677 1296 OFFCURVE",
"743 1257 OFFCURVE",
"788 1197 CURVE SMOOTH",
"833 1136 OFFCURVE",
"859 1053 OFFCURVE",
"874 969 CURVE SMOOTH",
"889 884 OFFCURVE",
"892 801 OFFCURVE",
"892 705 CURVE SMOOTH",
"892 620 OFFCURVE",
"889 533 OFFCURVE",
"874 448 CURVE SMOOTH",
"859 363 OFFCURVE",
"833 281 OFFCURVE",
"788 221 CURVE SMOOTH",
"743 160 OFFCURVE",
"677 120 OFFCURVE",
"584 120 CURVE SMOOTH",
"492 120 OFFCURVE",
"426 160 OFFCURVE",
"381 221 CURVE SMOOTH",
"336 281 OFFCURVE",
"310 363 OFFCURVE",
"296 448 CURVE SMOOTH",
"282 533 OFFCURVE",
"278 620 OFFCURVE",
"278 705 CURVE SMOOTH",
"278 801 OFFCURVE",
"282 884 OFFCURVE",
"296 969 CURVE SMOOTH",
"310 1053 OFFCURVE",
"336 1136 OFFCURVE",
"381 1197 CURVE SMOOTH",
"426 1257 OFFCURVE",
"491 1296 OFFCURVE",
"584 1296 CURVE SMOOTH"
);
},
{
closed = 1;
nodes = (
"453 1438 OFFCURVE",
"354 1399 OFFCURVE",
"282 1332 CURVE SMOOTH",
"209 1265 OFFCURVE",
"161 1173 OFFCURVE",
"133 1067 CURVE SMOOTH",
"104 961 OFFCURVE",
"93 846 OFFCURVE",
"93 705 CURVE SMOOTH",
"93 573 OFFCURVE",
"104 457 OFFCURVE",
"133 351 CURVE SMOOTH",
"161 245 OFFCURVE",
"209 151 OFFCURVE",
"282 85 CURVE SMOOTH",
"354 19 OFFCURVE",
"452 -22 OFFCURVE",
"584 -22 CURVE SMOOTH",
"716 -22 OFFCURVE",
"814 19 OFFCURVE",
"887 85 CURVE SMOOTH",
"959 151 OFFCURVE",
"1007 245 OFFCURVE",
"1036 351 CURVE SMOOTH",
"1064 457 OFFCURVE",
"1075 573 OFFCURVE",
"1075 705 CURVE SMOOTH",
"1075 846 OFFCURVE",
"1064 961 OFFCURVE",
"1036 1067 CURVE SMOOTH",
"1007 1173 OFFCURVE",
"959 1265 OFFCURVE",
"887 1332 CURVE SMOOTH",
"814 1399 OFFCURVE",
"716 1438 OFFCURVE",
"584 1438 CURVE SMOOTH"
);
}
);
width = 1169;
},
{
associatedMasterId = "B7B71B2F-D3C2-46AB-9878-0EE3FC7FFFF4";
layerId = "4C0A4C52-A9D9-4A1D-B81B-0EDA934B9EB8";
name = "Light Backup";
paths = (
{
closed = 1;
nodes = (
"445 1469 OFFCURVE",
"320 1397 OFFCURVE",
"235 1268 CURVE SMOOTH",
"150 1139 OFFCURVE",
"107 952 OFFCURVE",
"107 721 CURVE SMOOTH",
"107 505 OFFCURVE",
"143 319 OFFCURVE",
"221 187 CURVE SMOOTH",
"299 55 OFFCURVE",
"421 -23 OFFCURVE",
"594 -23 CURVE SMOOTH",
"761 -23 OFFCURVE",
"889 49 OFFCURVE",
"975 177 CURVE SMOOTH",
"1061 304 OFFCURVE",
"1105 484 OFFCURVE",
"1105 703 CURVE SMOOTH",
"1105 926 OFFCURVE",
"1074 1117 OFFCURVE",
"996 1253 CURVE SMOOTH",
"918 1389 OFFCURVE",
"795 1469 OFFCURVE",
"612 1469 CURVE SMOOTH"
);
},
{
closed = 1;
nodes = (
"702 1359 OFFCURVE",
"777 1320 OFFCURVE",
"831 1256 CURVE SMOOTH",
"885 1192 OFFCURVE",
"918 1104 OFFCURVE",
"938 1007 CURVE SMOOTH",
"958 910 OFFCURVE",
"965 803 OFFCURVE",
"965 703 CURVE SMOOTH",
"965 522 OFFCURVE",
"936 367 OFFCURVE",
"877 258 CURVE SMOOTH",
"818 149 OFFCURVE",
"727 85 OFFCURVE",
"606 85 CURVE SMOOTH",
"506 85 OFFCURVE",
"433 124 OFFCURVE",
"379 186 CURVE SMOOTH",
"325 248 OFFCURVE",
"290 333 OFFCURVE",
"270 429 CURVE SMOOTH",
"249 525 OFFCURVE",
"241 632 OFFCURVE",
"241 733 CURVE SMOOTH",
"241 918 OFFCURVE",
"271 1075 OFFCURVE",
"331 1185 CURVE SMOOTH",
"391 1295 OFFCURVE",
"481 1359 OFFCURVE",
"602 1359 CURVE SMOOTH"
);
}
);
width = 1190;
},
{
associatedMasterId = "B7B71B2F-D3C2-46AB-9878-0EE3FC7FFFF4";
layerId = "14713F14-1CA6-457F-BEE1-3124B2889DBE";
name = "Light Backup_Reg";
paths = (
{
closed = 1;
nodes = (
"429 1453 OFFCURVE",
"304 1383 OFFCURVE",
"218 1256 CURVE SMOOTH",
"132 1128 OFFCURVE",
"88 943 OFFCURVE",
"88 715 CURVE SMOOTH",
"88 499 OFFCURVE",
"124 315 OFFCURVE",
"204 184 CURVE SMOOTH",
"284 53 OFFCURVE",
"409 -23 OFFCURVE",
"586 -23 CURVE SMOOTH",
"754 -23 OFFCURVE",
"881 49 OFFCURVE",
"968 174 CURVE SMOOTH",
"1055 298 OFFCURVE",
"1099 478 OFFCURVE",
"1099 694 CURVE SMOOTH",
"1099 914 OFFCURVE",
"1069 1104 OFFCURVE",
"990 1239 CURVE SMOOTH",
"911 1374 OFFCURVE",
"785 1453 OFFCURVE",
"596 1453 CURVE SMOOTH"
);
},
{
closed = 1;
nodes = (
"684 1312 OFFCURVE",
"751 1273 OFFCURVE",
"799 1212 CURVE SMOOTH",
"847 1151 OFFCURVE",
"876 1066 OFFCURVE",
"893 974 CURVE SMOOTH",
"910 882 OFFCURVE",
"915 784 OFFCURVE",
"915 693 CURVE SMOOTH",
"915 525 OFFCURVE",
"889 381 OFFCURVE",
"837 280 CURVE SMOOTH",
"784 179 OFFCURVE",
"703 119 OFFCURVE",
"594 119 CURVE SMOOTH",
"502 119 OFFCURVE",
"435 155 OFFCURVE",
"387 215 CURVE SMOOTH",
"338 274 OFFCURVE",
"308 356 OFFCURVE",
"290 446 CURVE SMOOTH",
"272 536 OFFCURVE",
"266 634 OFFCURVE",
"266 727 CURVE SMOOTH",
"266 899 OFFCURVE",
"293 1045 OFFCURVE",
"347 1149 CURVE SMOOTH",
"401 1252 OFFCURVE",
"481 1312 OFFCURVE",
"592 1312 CURVE SMOOTH"
);
}
);
width = 1190;
}
);
note = zero;
unicode = 0030;
},
{
glyphname = one;
lastChange = "2016-08-29 16:03:12 +0000";
layers = (
{
background = {
paths = (
{
closed = 1;
nodes = (
"551 83 LINE SMOOTH",
"551 55 OFFCURVE",
"562 35 OFFCURVE",
"579 21 CURVE SMOOTH",
"595 7 OFFCURVE",
"617 0 OFFCURVE",
"638 0 CURVE SMOOTH",
"661 0 OFFCURVE",
"683 7 OFFCURVE",
"700 21 CURVE SMOOTH",
"716 35 OFFCURVE",
"727 55 OFFCURVE",
"727 83 CURVE SMOOTH",
"727 1340 LINE SMOOTH",
"727 1399 OFFCURVE",
"686 1426 OFFCURVE",
"643 1426 CURVE",
"626 1425 OFFCURVE",
"608 1421 OFFCURVE",
"593 1412 CURVE SMOOTH",
"257 1199 LINE",
"236 1184 OFFCURVE",
"227 1167 OFFCURVE",
"227 1148 CURVE SMOOTH",
"227 1113 OFFCURVE",
"257 1081 OFFCURVE",
"294 1081 CURVE SMOOTH",
"306 1081 OFFCURVE",
"318 1085 OFFCURVE",
"329 1092 CURVE SMOOTH",
"551 1236 LINE"
);
}
);
};
layerId = "B7B71B2F-D3C2-46AB-9878-0EE3FC7FFFF4";
paths = (
{
closed = 1;
nodes = (
"551 83 LINE SMOOTH",
"551 55 OFFCURVE",
"562 35 OFFCURVE",
"579 21 CURVE SMOOTH",
"595 7 OFFCURVE",
"617 0 OFFCURVE",
"638 0 CURVE SMOOTH",
"661 0 OFFCURVE",
"683 7 OFFCURVE",
"700 21 CURVE SMOOTH",
"716 35 OFFCURVE",
"727 55 OFFCURVE",
"727 83 CURVE SMOOTH",
"727 1340 LINE SMOOTH",
"727 1399 OFFCURVE",
"686 1426 OFFCURVE",
"643 1426 CURVE",
"626 1425 OFFCURVE",
"608 1421 OFFCURVE",
"593 1412 CURVE SMOOTH",
"257 1199 LINE",
"236 1184 OFFCURVE",
"227 1167 OFFCURVE",
"227 1148 CURVE SMOOTH",
"227 1113 OFFCURVE",
"257 1081 OFFCURVE",
"294 1081 CURVE SMOOTH",
"306 1081 OFFCURVE",
"318 1085 OFFCURVE",
"329 1092 CURVE SMOOTH",
"551 1236 LINE"
);
}
);
width = 1169;
},
{
associatedMasterId = "B7B71B2F-D3C2-46AB-9878-0EE3FC7FFFF4";
layerId = "4C0A4C52-A9D9-4A1D-B81B-0EDA934B9EB8";
name = "Light Backup";
paths = (
{
closed = 1;
nodes = (
"392 1201 OFFCURVE",
"492 1250 OFFCURVE",
"588 1310 CURVE",
"589 117 LINE",
"359 117 LINE",
"359 0 LINE",
"939 0 LINE",
"939 112 LINE",
"711 112 LINE",
"711 1447 LINE",
"581 1427 LINE",
"492 1367 OFFCURVE",
"398 1317 OFFCURVE",
"301 1285 CURVE",
"299 1166 LINE"
);
}
);
width = 1190;
},
{
associatedMasterId = "B7B71B2F-D3C2-46AB-9878-0EE3FC7FFFF4";
layerId = "14713F14-1CA6-457F-BEE1-3124B2889DBE";
name = "Light Backup_Reg";
paths = (
{
closed = 1;
nodes = (
"376 1153 OFFCURVE",
"463 1194 OFFCURVE",
"552 1245 CURVE",
"552 143 LINE",
"333 143 LINE",
"333 0 LINE",
"941 0 LINE",
"941 143 LINE",
"724 143 LINE",
"724 1438 LINE",
"559 1411 LINE",
"470 1355 OFFCURVE",
"376 1305 OFFCURVE",
"273 1269 CURVE",
"273 1113 LINE"
);
}
);
width = 1190;
}
);
note = one;
unicode = 0031;
},
{
glyphname = two;
lastChange = "2016-08-29 16:03:12 +0000";
layers = (
{
background = {
paths = (
{
closed = 1;
nodes = (
"653 1292 OFFCURVE",
"717 1275 OFFCURVE",
"765 1240 CURVE SMOOTH",
"812 1205 OFFCURVE",
"843 1155 OFFCURVE",
"843 1087 CURVE SMOOTH",
"843 1010 OFFCURVE",
"793 910 OFFCURVE",
"718 806 CURVE SMOOTH",
"642 702 OFFCURVE",
"543 591 OFFCURVE",
"446 493 CURVE SMOOTH",
"397 444 OFFCURVE",
"348 393 OFFCURVE",
"298 340 CURVE SMOOTH",
"248 287 OFFCURVE",
"206 246 OFFCURVE",
"173 216 CURVE SMOOTH",
"129 176 OFFCURVE",
"106 130 OFFCURVE",
"106 90 CURVE SMOOTH",
"106 39 OFFCURVE",
"143 0 OFFCURVE",
"227 0 CURVE SMOOTH",
"953 0 LINE SMOOTH",
"1000 0 OFFCURVE",
"1023 35 OFFCURVE",
"1023 71 CURVE SMOOTH",
"1023 108 OFFCURVE",
"1000 145 OFFCURVE",
"953 145 CURVE SMOOTH",
"313 145 LINE",
"355 182 OFFCURVE",
"404 228 OFFCURVE",
"460 284 CURVE SMOOTH",
"516 339 OFFCURVE",
"570 393 OFFCURVE",
"622 444 CURVE SMOOTH",
"725 547 OFFCURVE",
"825 662 OFFCURVE",
"901 774 CURVE SMOOTH",
"976 886 OFFCURVE",
"1025 998 OFFCURVE",
"1025 1101 CURVE SMOOTH",
"1025 1212 OFFCURVE",
"975 1296 OFFCURVE",
"898 1353 CURVE SMOOTH",
"821 1409 OFFCURVE",
"715 1438 OFFCURVE",
"602 1438 CURVE SMOOTH",
"549 1438 OFFCURVE",
"486 1428 OFFCURVE",
"427 1410 CURVE SMOOTH",
"367 1392 OFFCURVE",
"311 1367 OFFCURVE",
"270 1340 CURVE SMOOTH",
"229 1312 OFFCURVE",
"202 1282 OFFCURVE",
"202 1254 CURVE SMOOTH",
"202 1219 OFFCURVE",
"230 1193 OFFCURVE",
"269 1193 CURVE SMOOTH",
"286 1193 OFFCURVE",
"304 1198 OFFCURVE",
"323 1209 CURVE SMOOTH",
"356 1229 OFFCURVE",
"399 1249 OFFCURVE",
"444 1265 CURVE SMOOTH",
"489 1281 OFFCURVE",
"539 1292 OFFCURVE",
"588 1292 CURVE SMOOTH"
);
}
);
};
layerId = "B7B71B2F-D3C2-46AB-9878-0EE3FC7FFFF4";
paths = (
{
closed = 1;
nodes = (
"653 1292 OFFCURVE",
"717 1275 OFFCURVE",
"765 1240 CURVE SMOOTH",
"812 1205 OFFCURVE",
"843 1155 OFFCURVE",
"843 1087 CURVE SMOOTH",
"843 1010 OFFCURVE",
"793 910 OFFCURVE",
"718 806 CURVE SMOOTH",
"642 702 OFFCURVE",
"543 591 OFFCURVE",
"446 493 CURVE SMOOTH",
"397 444 OFFCURVE",
"348 393 OFFCURVE",
"298 340 CURVE SMOOTH",
"248 287 OFFCURVE",
"206 246 OFFCURVE",
"173 216 CURVE SMOOTH",
"129 176 OFFCURVE",
"106 130 OFFCURVE",
"106 90 CURVE SMOOTH",
"106 39 OFFCURVE",
"143 0 OFFCURVE",
"227 0 CURVE SMOOTH",
"953 0 LINE SMOOTH",
"1000 0 OFFCURVE",
"1023 35 OFFCURVE",
"1023 71 CURVE SMOOTH",
"1023 108 OFFCURVE",
"1000 145 OFFCURVE",
"953 145 CURVE SMOOTH",
"313 145 LINE",
"355 182 OFFCURVE",
"404 228 OFFCURVE",
"460 284 CURVE SMOOTH",
"516 339 OFFCURVE",
"570 393 OFFCURVE",
"622 444 CURVE SMOOTH",
"725 547 OFFCURVE",
"825 662 OFFCURVE",
"901 774 CURVE SMOOTH",
"976 886 OFFCURVE",
"1025 998 OFFCURVE",
"1025 1101 CURVE SMOOTH",
"1025 1212 OFFCURVE",
"975 1296 OFFCURVE",
"898 1353 CURVE SMOOTH",
"821 1409 OFFCURVE",
"715 1438 OFFCURVE",
"602 1438 CURVE SMOOTH",
"549 1438 OFFCURVE",
"486 1428 OFFCURVE",
"427 1410 CURVE SMOOTH",
"367 1392 OFFCURVE",
"311 1367 OFFCURVE",
"270 1340 CURVE SMOOTH",
"229 1312 OFFCURVE",
"202 1282 OFFCURVE",
"202 1254 CURVE SMOOTH",
"202 1219 OFFCURVE",
"230 1193 OFFCURVE",
"269 1193 CURVE SMOOTH",
"286 1193 OFFCURVE",
"304 1198 OFFCURVE",
"323 1209 CURVE SMOOTH",
"356 1229 OFFCURVE",
"399 1249 OFFCURVE",
"444 1265 CURVE SMOOTH",
"489 1281 OFFCURVE",
"539 1292 OFFCURVE",
"588 1292 CURVE SMOOTH"
);
}
);
width = 1169;
},
{
associatedMasterId = "B7B71B2F-D3C2-46AB-9878-0EE3FC7FFFF4";
layerId = "4C0A4C52-A9D9-4A1D-B81B-0EDA934B9EB8";
name = "Light Backup";
paths = (
{
closed = 1;
nodes = (
"1038 114 LINE",
"261 114 LINE",
"331 176 OFFCURVE",
"399 236 OFFCURVE",
"465 293 CURVE SMOOTH",
"531 350 OFFCURVE",
"593 405 OFFCURVE",
"650 460 CURVE SMOOTH",
"765 568 OFFCURVE",
"862 672 OFFCURVE",
"931 776 CURVE SMOOTH",
"999 880 OFFCURVE",
"1038 984 OFFCURVE",
"1038 1093 CURVE SMOOTH",
"1038 1208 OFFCURVE",
"991 1301 OFFCURVE",
"912 1365 CURVE SMOOTH",
"833 1429 OFFCURVE",
"724 1464 OFFCURVE",
"600 1464 CURVE SMOOTH",
"492 1464 OFFCURVE",
"393 1441 OFFCURVE",
"314 1398 CURVE SMOOTH",
"234 1355 OFFCURVE",
"175 1293 OFFCURVE",
"144 1213 CURVE",
"220 1140 LINE",
"249 1205 OFFCURVE",
"299 1260 OFFCURVE",
"361 1297 CURVE SMOOTH",
"423 1333 OFFCURVE",
"499 1354 OFFCURVE",
"583 1354 CURVE SMOOTH",
"680 1354 OFFCURVE",
"761 1327 OFFCURVE",
"817 1280 CURVE SMOOTH",
"873 1233 OFFCURVE",
"904 1167 OFFCURVE",
"904 1088 CURVE SMOOTH",
"904 1040 OFFCURVE",
"892 990 OFFCURVE",
"869 939 CURVE SMOOTH",
"822 836 OFFCURVE",
"742 730 OFFCURVE",
"638 621 CURVE SMOOTH",
"533 512 OFFCURVE",
"414 402 OFFCURVE",
"294 293 CURVE SMOOTH",
"233 238 OFFCURVE",
"175 184 OFFCURVE",
"119 131 CURVE",
"118 0 LINE",
"1038 0 LINE"
);
}
);
width = 1190;
},
{
associatedMasterId = "B7B71B2F-D3C2-46AB-9878-0EE3FC7FFFF4";
layerId = "14713F14-1CA6-457F-BEE1-3124B2889DBE";
name = "Light Backup_Reg";
paths = (
{
closed = 1;
nodes = (
"305 145 LINE",
"369 209 OFFCURVE",
"426 262 OFFCURVE",
"489 319 CURVE SMOOTH",
"633 451 OFFCURVE",
"769 580 OFFCURVE",
"869 707 CURVE SMOOTH",
"968 834 OFFCURVE",
"1032 958 OFFCURVE",
"1032 1078 CURVE SMOOTH",
"1032 1191 OFFCURVE",
"985 1284 OFFCURVE",
"905 1348 CURVE SMOOTH",
"825 1412 OFFCURVE",
"713 1448 OFFCURVE",
"584 1448 CURVE SMOOTH",
"477 1448 OFFCURVE",
"382 1423 OFFCURVE",
"303 1376 CURVE SMOOTH",
"224 1328 OFFCURVE",
"165 1260 OFFCURVE",
"133 1175 CURVE",
"230 1078 LINE",
"261 1149 OFFCURVE",
"307 1206 OFFCURVE",
"366 1246 CURVE SMOOTH",
"425 1285 OFFCURVE",
"496 1307 OFFCURVE",
"573 1307 CURVE SMOOTH",
"658 1307 OFFCURVE",
"730 1282 OFFCURVE",
"780 1241 CURVE SMOOTH",
"830 1200 OFFCURVE",
"857 1140 OFFCURVE",
"857 1071 CURVE SMOOTH",
"857 1029 OFFCURVE",
"845 983 OFFCURVE",
"821 934 CURVE SMOOTH",
"772 835 OFFCURVE",
"688 727 OFFCURVE",
"583 615 CURVE SMOOTH",
"478 503 OFFCURVE",
"364 394 OFFCURVE",
"252 291 CURVE SMOOTH",
"196 240 OFFCURVE",
"145 192 OFFCURVE",
"98 147 CURVE",
"99 0 LINE",
"1035 0 LINE",
"1035 145 LINE"
);
}
);
width = 1190;
}
);
note = two;
unicode = 0032;
},
{
glyphname = three;
lastChange = "2016-08-29 16:03:12 +0000";
layers = (
{
background = {
paths = (
{
closed = 1;
nodes = (
"423 794 OFFCURVE",
"400 760 OFFCURVE",
"400 725 CURVE SMOOTH",
"400 690 OFFCURVE",
"423 657 OFFCURVE",
"467 657 CURVE SMOOTH",
"542 657 LINE SMOOTH",
"627 657 OFFCURVE",
"709 631 OFFCURVE",
"769 582 CURVE SMOOTH",
"828 533 OFFCURVE",
"866 461 OFFCURVE",
"866 368 CURVE SMOOTH",
"866 289 OFFCURVE",
"838 230 OFFCURVE",
"788 189 CURVE SMOOTH",
"738 148 OFFCURVE",
"664 127 OFFCURVE",
"576 127 CURVE SMOOTH",
"517 127 OFFCURVE",
"461 137 OFFCURVE",
"410 150 CURVE SMOOTH",
"359 162 OFFCURVE",
"315 179 OFFCURVE",
"283 194 CURVE",
"275 197 OFFCURVE",
"267 198 OFFCURVE",
"258 198 CURVE SMOOTH",
"215 198 OFFCURVE",
"186 163 OFFCURVE",
"186 127 CURVE SMOOTH",
"186 96 OFFCURVE",
"215 70 OFFCURVE",
"258 48 CURVE SMOOTH",
"301 26 OFFCURVE",
"359 8 OFFCURVE",
"417 -4 CURVE SMOOTH",
"475 -16 OFFCURVE",
"531 -22 OFFCURVE",
"575 -22 CURVE SMOOTH",
"698 -22 OFFCURVE",
"816 6 OFFCURVE",
"904 70 CURVE SMOOTH",
"992 133 OFFCURVE",
"1050 231 OFFCURVE",
"1050 370 CURVE SMOOTH",
"1050 465 OFFCURVE",
"1020 546 OFFCURVE",
"968 608 CURVE SMOOTH",
"915 670 OFFCURVE",
"840 712 OFFCURVE",
"752 731 CURVE",
"752 735 LINE",
"827 751 OFFCURVE",
"896 788 OFFCURVE",
"946 842 CURVE SMOOTH",
"996 896 OFFCURVE",
"1026 964 OFFCURVE",
"1026 1049 CURVE SMOOTH",
"1026 1182 OFFCURVE",
"972 1279 OFFCURVE",
"885 1343 CURVE SMOOTH",
"798 1407 OFFCURVE",
"681 1438 OFFCURVE",
"554 1438 CURVE SMOOTH",
"426 1438 OFFCURVE",
"317 1408 OFFCURVE",
"217 1363 CURVE SMOOTH",
"185 1348 OFFCURVE",
"170 1324 OFFCURVE",
"170 1297 CURVE SMOOTH",
"170 1258 OFFCURVE",
"199 1221 OFFCURVE",
"243 1221 CURVE SMOOTH",
"251 1221 OFFCURVE",
"266 1225 OFFCURVE",
"287 1232 CURVE SMOOTH",
"308 1239 OFFCURVE",
"334 1246 OFFCURVE",
"363 1255 CURVE SMOOTH",
"421 1271 OFFCURVE",
"492 1288 OFFCURVE",
"563 1288 CURVE SMOOTH",
"638 1288 OFFCURVE",
"708 1267 OFFCURVE",
"760 1226 CURVE SMOOTH",
"811 1185 OFFCURVE",
"844 1124 OFFCURVE",
"844 1047 CURVE SMOOTH",
"844 959 OFFCURVE",
"806 899 OFFCURVE",
"747 858 CURVE SMOOTH",
"687 817 OFFCURVE",
"608 797 OFFCURVE",
"527 796 CURVE SMOOTH",
"467 795 LINE SMOOTH"
);
}
);
};
layerId = "B7B71B2F-D3C2-46AB-9878-0EE3FC7FFFF4";
paths = (
{
closed = 1;
nodes = (
"423 794 OFFCURVE",
"400 760 OFFCURVE",
"400 725 CURVE SMOOTH",
"400 690 OFFCURVE",
"423 657 OFFCURVE",
"467 657 CURVE SMOOTH",
"542 657 LINE SMOOTH",
"627 657 OFFCURVE",
"709 631 OFFCURVE",
"769 582 CURVE SMOOTH",
"828 533 OFFCURVE",
"866 461 OFFCURVE",
"866 368 CURVE SMOOTH",
"866 289 OFFCURVE",
"838 230 OFFCURVE",
"788 189 CURVE SMOOTH",
"738 148 OFFCURVE",
"664 127 OFFCURVE",
"576 127 CURVE SMOOTH",
"517 127 OFFCURVE",
"461 137 OFFCURVE",
"410 150 CURVE SMOOTH",
"359 162 OFFCURVE",
"315 179 OFFCURVE",
"283 194 CURVE",
"275 197 OFFCURVE",
"267 198 OFFCURVE",
"258 198 CURVE SMOOTH",
"215 198 OFFCURVE",
"186 163 OFFCURVE",
"186 127 CURVE SMOOTH",
"186 96 OFFCURVE",
"215 70 OFFCURVE",
"258 48 CURVE SMOOTH",
"301 26 OFFCURVE",
"359 8 OFFCURVE",
"417 -4 CURVE SMOOTH",
"475 -16 OFFCURVE",
"531 -22 OFFCURVE",
"575 -22 CURVE SMOOTH",
"698 -22 OFFCURVE",
"816 6 OFFCURVE",
"904 70 CURVE SMOOTH",
"992 133 OFFCURVE",
"1050 231 OFFCURVE",
"1050 370 CURVE SMOOTH",
"1050 465 OFFCURVE",
"1020 546 OFFCURVE",
"968 608 CURVE SMOOTH",
"915 670 OFFCURVE",
"840 712 OFFCURVE",
"752 731 CURVE",
"752 735 LINE",
"827 751 OFFCURVE",
"896 788 OFFCURVE",
"946 842 CURVE SMOOTH",
"996 896 OFFCURVE",
"1026 964 OFFCURVE",
"1026 1049 CURVE SMOOTH",
"1026 1182 OFFCURVE",
"972 1279 OFFCURVE",
"885 1343 CURVE SMOOTH",
"798 1407 OFFCURVE",
"681 1438 OFFCURVE",
"554 1438 CURVE SMOOTH",
"426 1438 OFFCURVE",
"317 1408 OFFCURVE",
"217 1363 CURVE SMOOTH",
"185 1348 OFFCURVE",
"170 1324 OFFCURVE",
"170 1297 CURVE SMOOTH",
"170 1258 OFFCURVE",
"199 1221 OFFCURVE",
"243 1221 CURVE SMOOTH",
"251 1221 OFFCURVE",
"266 1225 OFFCURVE",
"287 1232 CURVE SMOOTH",
"308 1239 OFFCURVE",
"334 1246 OFFCURVE",
"363 1255 CURVE SMOOTH",
"421 1271 OFFCURVE",
"492 1288 OFFCURVE",
"563 1288 CURVE SMOOTH",
"638 1288 OFFCURVE",
"708 1267 OFFCURVE",
"760 1226 CURVE SMOOTH",
"811 1185 OFFCURVE",
"844 1124 OFFCURVE",
"844 1047 CURVE SMOOTH",
"844 959 OFFCURVE",
"806 899 OFFCURVE",
"747 858 CURVE SMOOTH",
"687 817 OFFCURVE",
"608 797 OFFCURVE",
"527 796 CURVE SMOOTH",
"467 795 LINE SMOOTH"
);
}
);
width = 1169;
},
{
associatedMasterId = "B7B71B2F-D3C2-46AB-9878-0EE3FC7FFFF4";
layerId = "4C0A4C52-A9D9-4A1D-B81B-0EDA934B9EB8";
name = "Light Backup";
paths = (
{
closed = 1;
nodes = (
"296 1305 OFFCURVE",
"412 1353 OFFCURVE",
"553 1353 CURVE SMOOTH",
"646 1353 OFFCURVE",
"727 1333 OFFCURVE",
"784 1290 CURVE SMOOTH",
"840 1246 OFFCURVE",
"873 1180 OFFCURVE",
"873 1088 CURVE SMOOTH",
"873 984 OFFCURVE",
"831 913 OFFCURVE",
"757 869 CURVE SMOOTH",
"683 825 OFFCURVE",
"577 807 OFFCURVE",
"453 807 CURVE SMOOTH",
"428 807 LINE SMOOTH",
"423 807 OFFCURVE",
"419 807 OFFCURVE",
"416 808 CURVE",
"415 695 LINE",
"422 695 OFFCURVE",
"431 695 OFFCURVE",
"440 696 CURVE SMOOTH",
"449 697 OFFCURVE",
"458 697 OFFCURVE",
"467 697 CURVE SMOOTH",
"606 697 OFFCURVE",
"720 675 OFFCURVE",
"798 627 CURVE SMOOTH",
"876 578 OFFCURVE",
"919 501 OFFCURVE",
"919 389 CURVE SMOOTH",
"919 293 OFFCURVE",
"877 217 OFFCURVE",
"809 165 CURVE SMOOTH",
"740 113 OFFCURVE",
"645 85 OFFCURVE",
"540 85 CURVE SMOOTH",
"411 85 OFFCURVE",
"297 126 OFFCURVE",
"213 202 CURVE",
"156 113 LINE",
"251 21 OFFCURVE",
"389 -23 OFFCURVE",
"546 -23 CURVE SMOOTH",
"683 -23 OFFCURVE",
"810 16 OFFCURVE",
"903 87 CURVE SMOOTH",
"995 158 OFFCURVE",
"1053 261 OFFCURVE",
"1053 388 CURVE SMOOTH",
"1053 495 OFFCURVE",
"1013 581 OFFCURVE",
"943 643 CURVE SMOOTH",
"873 705 OFFCURVE",
"774 743 OFFCURVE",
"659 754 CURVE",
"659 758 LINE",
"772 767 OFFCURVE",
"862 805 OFFCURVE",
"922 865 CURVE SMOOTH",
"982 924 OFFCURVE",
"1014 1005 OFFCURVE",
"1014 1097 CURVE SMOOTH",
"1014 1217 OFFCURVE",
"959 1309 OFFCURVE",
"875 1371 CURVE SMOOTH",
"791 1433 OFFCURVE",
"678 1465 OFFCURVE",
"562 1465 CURVE SMOOTH",
"479 1465 OFFCURVE",
"401 1450 OFFCURVE",
"333 1426 CURVE SMOOTH",
"264 1401 OFFCURVE",
"204 1365 OFFCURVE",
"160 1324 CURVE",
"213 1232 LINE"
);
}
);
width = 1190;
},
{
associatedMasterId = "B7B71B2F-D3C2-46AB-9878-0EE3FC7FFFF4";
layerId = "14713F14-1CA6-457F-BEE1-3124B2889DBE";
name = "Light Backup_Reg";
paths = (
{
closed = 1;
nodes = (
"408 671 OFFCURVE",
"439 672 OFFCURVE",
"462 672 CURVE SMOOTH",
"587 672 OFFCURVE",
"690 653 OFFCURVE",
"761 609 CURVE SMOOTH",
"832 564 OFFCURVE",
"871 494 OFFCURVE",
"871 394 CURVE SMOOTH",
"871 307 OFFCURVE",
"834 239 OFFCURVE",
"772 192 CURVE SMOOTH",
"710 145 OFFCURVE",
"624 119 OFFCURVE",
"528 119 CURVE SMOOTH",
"451 119 OFFCURVE",
"379 137 OFFCURVE",
"320 172 CURVE SMOOTH",
"261 207 OFFCURVE",
"216 257 OFFCURVE",
"191 324 CURVE",
"108 223 LINE",
"127 142 OFFCURVE",
"178 80 OFFCURVE",
"250 39 CURVE SMOOTH",
"322 -2 OFFCURVE",
"415 -23 OFFCURVE",
"519 -23 CURVE SMOOTH",
"662 -23 OFFCURVE",
"794 16 OFFCURVE",
"891 88 CURVE SMOOTH",
"988 159 OFFCURVE",
"1049 263 OFFCURVE",
"1049 391 CURVE SMOOTH",
"1049 487 OFFCURVE",
"1016 565 OFFCURVE",
"960 625 CURVE SMOOTH",
"904 685 OFFCURVE",
"824 725 OFFCURVE",
"731 744 CURVE SMOOTH",
"721 746 LINE",
"808 770 OFFCURVE",
"879 811 OFFCURVE",
"930 868 CURVE SMOOTH",
"981 925 OFFCURVE",
"1010 998 OFFCURVE",
"1010 1086 CURVE SMOOTH",
"1010 1203 OFFCURVE",
"953 1295 OFFCURVE",
"868 1356 CURVE SMOOTH",
"783 1417 OFFCURVE",
"667 1449 OFFCURVE",
"550 1449 CURVE SMOOTH",
"451 1449 OFFCURVE",
"359 1427 OFFCURVE",
"284 1387 CURVE SMOOTH",
"208 1347 OFFCURVE",
"150 1289 OFFCURVE",
"121 1217 CURVE",
"219 1128 LINE",
"290 1248 OFFCURVE",
"403 1306 OFFCURVE",
"544 1306 CURVE SMOOTH",
"625 1306 OFFCURVE",
"697 1288 OFFCURVE",
"747 1252 CURVE SMOOTH",
"797 1216 OFFCURVE",
"826 1161 OFFCURVE",
"826 1085 CURVE SMOOTH",
"826 982 OFFCURVE",
"789 915 OFFCURVE",
"724 872 CURVE SMOOTH",
"659 829 OFFCURVE",
"563 813 OFFCURVE",
"446 813 CURVE SMOOTH",
"437 813 OFFCURVE",
"426 813 OFFCURVE",
"415 813 CURVE SMOOTH",
"404 813 OFFCURVE",
"393 813 OFFCURVE",
"383 814 CURVE",
"385 670 LINE"
);
}
);
width = 1190;
}
);
note = three;
unicode = 0033;
},
{
glyphname = four;
lastChange = "2016-08-29 16:03:12 +0000";
layers = (
{
background = {
paths = (
{
closed = 1;
nodes = (
"42 454 OFFCURVE",
"38 431 OFFCURVE",
"38 411 CURVE SMOOTH",
"38 360 OFFCURVE",
"75 316 OFFCURVE",
"134 316 CURVE SMOOTH",
"711 316 LINE",
"711 80 LINE SMOOTH",
"711 53 OFFCURVE",
"723 33 OFFCURVE",
"739 20 CURVE SMOOTH",
"755 7 OFFCURVE",
"777 0 OFFCURVE",
"798 0 CURVE SMOOTH",
"819 0 OFFCURVE",
"840 7 OFFCURVE",
"856 20 CURVE SMOOTH",
"872 33 OFFCURVE",
"883 53 OFFCURVE",
"883 80 CURVE SMOOTH",
"883 316 LINE",
"1038 316 LINE SMOOTH",
"1082 316 OFFCURVE",
"1104 349 OFFCURVE",
"1104 382 CURVE SMOOTH",
"1104 415 OFFCURVE",
"1082 448 OFFCURVE",
"1038 448 CURVE SMOOTH",
"884 448 LINE",
"884 1303 LINE SMOOTH",
"884 1346 OFFCURVE",
"870 1377 OFFCURVE",
"847 1397 CURVE SMOOTH",
"823 1417 OFFCURVE",
"792 1426 OFFCURVE",
"760 1426 CURVE SMOOTH",
"704 1426 OFFCURVE",
"653 1402 OFFCURVE",
"618 1345 CURVE SMOOTH",
"57 474 LINE"
);
},
{
closed = 1;
nodes = (
"711 448 LINE",
"191 448 LINE",
"711 1263 LINE"
);
}
);
};
layerId = "B7B71B2F-D3C2-46AB-9878-0EE3FC7FFFF4";
paths = (
{
closed = 1;
nodes = (
"42 454 OFFCURVE",
"38 431 OFFCURVE",
"38 411 CURVE SMOOTH",
"38 360 OFFCURVE",
"75 316 OFFCURVE",
"134 316 CURVE SMOOTH",
"711 316 LINE",
"711 80 LINE SMOOTH",
"711 53 OFFCURVE",
"723 33 OFFCURVE",
"739 20 CURVE SMOOTH",
"755 7 OFFCURVE",
"777 0 OFFCURVE",
"798 0 CURVE SMOOTH",
"819 0 OFFCURVE",
"840 7 OFFCURVE",
"856 20 CURVE SMOOTH",
"872 33 OFFCURVE",
"883 53 OFFCURVE",
"883 80 CURVE SMOOTH",
"883 316 LINE",
"1038 316 LINE SMOOTH",
"1082 316 OFFCURVE",
"1104 349 OFFCURVE",
"1104 382 CURVE SMOOTH",
"1104 415 OFFCURVE",
"1082 448 OFFCURVE",
"1038 448 CURVE SMOOTH",
"884 448 LINE",
"884 1303 LINE SMOOTH",
"884 1346 OFFCURVE",
"870 1377 OFFCURVE",
"847 1397 CURVE SMOOTH",
"823 1417 OFFCURVE",
"792 1426 OFFCURVE",
"760 1426 CURVE SMOOTH",
"704 1426 OFFCURVE",
"653 1402 OFFCURVE",
"618 1345 CURVE SMOOTH",
"57 474 LINE"
);
},
{
closed = 1;
nodes = (
"711 448 LINE",
"191 448 LINE",
"711 1263 LINE"
);
}
);
width = 1169;
},
{
associatedMasterId = "B7B71B2F-D3C2-46AB-9878-0EE3FC7FFFF4";
layerId = "4C0A4C52-A9D9-4A1D-B81B-0EDA934B9EB8";
name = "Light Backup";
paths = (
{
closed = 1;
nodes = (
"893 363 LINE",
"1119 363 LINE",
"1119 464 LINE",
"897 464 LINE",
"897 1436 LINE",
"721 1436 LINE",
"41 469 LINE",
"41 363 LINE",
"769 363 LINE",
"769 0 LINE",
"893 0 LINE"
);
},
{
closed = 1;
nodes = (
"657 1180 LINE",
"765 1348 LINE",
"765 464 LINE",
"151 464 LINE"
);
}
);
width = 1189;
},
{
associatedMasterId = "B7B71B2F-D3C2-46AB-9878-0EE3FC7FFFF4";
layerId = "14713F14-1CA6-457F-BEE1-3124B2889DBE";
name = "Light Backup_Reg";
paths = (
{
closed = 1;
nodes = (
"898 351 LINE",
"1112 351 LINE",
"1112 483 LINE",
"898 483 LINE",
"898 1420 LINE",
"690 1420 LINE",
"25 475 LINE",
"25 351 LINE",
"726 351 LINE",
"726 0 LINE",
"898 0 LINE"
);
},
{
closed = 1;
nodes = (
"638 1146 LINE",
"726 1292 LINE",
"726 483 LINE",
"196 483 LINE"
);
}
);
width = 1189;
}
);
note = four;
unicode = 0034;
},
{
glyphname = five;
lastChange = "2016-08-29 16:03:12 +0000";
layers = (
{
background = {
paths = (
{
closed = 1;
nodes = (
"183 614 OFFCURVE",
"216 588 OFFCURVE",
"253 588 CURVE SMOOTH",
"285 588 OFFCURVE",
"320 606 OFFCURVE",
"341 645 CURVE",
"360 676 OFFCURVE",
"391 711 OFFCURVE",
"436 739 CURVE SMOOTH",
"480 767 OFFCURVE",
"538 787 OFFCURVE",
"610 787 CURVE SMOOTH",
"698 787 OFFCURVE",
"768 751 OFFCURVE",
"816 694 CURVE SMOOTH",
"864 637 OFFCURVE",
"889 560 OFFCURVE",
"889 464 CURVE SMOOTH",
"889 364 OFFCURVE",
"864 280 OFFCURVE",
"813 218 CURVE SMOOTH",
"761 156 OFFCURVE",
"683 118 OFFCURVE",
"578 118 CURVE SMOOTH",
"509 118 OFFCURVE",
"445 133 OFFCURVE",
"392 162 CURVE SMOOTH",
"339 191 OFFCURVE",
"297 237 OFFCURVE",
"273 297 CURVE",
"254 330 OFFCURVE",
"228 344 OFFCURVE",
"204 344 CURVE SMOOTH",
"171 344 OFFCURVE",
"141 319 OFFCURVE",
"141 276 CURVE SMOOTH",
"141 261 OFFCURVE",
"145 249 OFFCURVE",
"152 230 CURVE SMOOTH",
"184 143 OFFCURVE",
"244 80 OFFCURVE",
"321 39 CURVE SMOOTH",
"398 -2 OFFCURVE",
"492 -22 OFFCURVE",
"595 -22 CURVE SMOOTH",
"738 -22 OFFCURVE",
"857 29 OFFCURVE",
"941 114 CURVE SMOOTH",
"1024 198 OFFCURVE",
"1072 316 OFFCURVE",
"1072 457 CURVE SMOOTH",
"1072 592 OFFCURVE",
"1030 705 OFFCURVE",
"955 789 CURVE SMOOTH",
"880 872 OFFCURVE",
"772 924 OFFCURVE",
"640 924 CURVE SMOOTH",
"512 924 OFFCURVE",
"405 872 OFFCURVE",
"322 783 CURVE",
"324 1285 LINE",
"934 1285 LINE SMOOTH",
"981 1285 OFFCURVE",
"1003 1320 OFFCURVE",
"1003 1356 CURVE SMOOTH",
"1003 1391 OFFCURVE",
"981 1426 OFFCURVE",
"934 1426 CURVE SMOOTH",
"266 1426 LINE SMOOTH",
"210 1426 OFFCURVE",
"183 1395 OFFCURVE",
"183 1348 CURVE SMOOTH",
"183 665 LINE SMOOTH"
);
}
);
};
layerId = "B7B71B2F-D3C2-46AB-9878-0EE3FC7FFFF4";
paths = (
{
closed = 1;
nodes = (
"183 614 OFFCURVE",
"216 588 OFFCURVE",
"253 588 CURVE SMOOTH",
"285 588 OFFCURVE",
"320 606 OFFCURVE",
"341 645 CURVE",
"360 676 OFFCURVE",
"391 711 OFFCURVE",
"436 739 CURVE SMOOTH",
"480 767 OFFCURVE",
"538 787 OFFCURVE",
"610 787 CURVE SMOOTH",
"698 787 OFFCURVE",
"768 751 OFFCURVE",
"816 694 CURVE SMOOTH",
"864 637 OFFCURVE",
"889 560 OFFCURVE",
"889 464 CURVE SMOOTH",
"889 364 OFFCURVE",
"864 280 OFFCURVE",
"813 218 CURVE SMOOTH",
"761 156 OFFCURVE",
"683 118 OFFCURVE",
"578 118 CURVE SMOOTH",
"509 118 OFFCURVE",
"445 133 OFFCURVE",
"392 162 CURVE SMOOTH",
"339 191 OFFCURVE",
"297 237 OFFCURVE",
"273 297 CURVE",
"254 330 OFFCURVE",
"228 344 OFFCURVE",
"204 344 CURVE SMOOTH",
"171 344 OFFCURVE",
"141 319 OFFCURVE",
"141 276 CURVE SMOOTH",
"141 261 OFFCURVE",
"145 249 OFFCURVE",
"152 230 CURVE SMOOTH",
"184 143 OFFCURVE",
"244 80 OFFCURVE",
"321 39 CURVE SMOOTH",
"398 -2 OFFCURVE",
"492 -22 OFFCURVE",
"595 -22 CURVE SMOOTH",
"738 -22 OFFCURVE",
"857 29 OFFCURVE",
"941 114 CURVE SMOOTH",
"1024 198 OFFCURVE",
"1072 316 OFFCURVE",
"1072 457 CURVE SMOOTH",
"1072 592 OFFCURVE",
"1030 705 OFFCURVE",
"955 789 CURVE SMOOTH",
"880 872 OFFCURVE",
"772 924 OFFCURVE",
"640 924 CURVE SMOOTH",
"512 924 OFFCURVE",
"405 872 OFFCURVE",
"322 783 CURVE",
"324 1285 LINE",
"934 1285 LINE SMOOTH",
"981 1285 OFFCURVE",
"1003 1320 OFFCURVE",
"1003 1356 CURVE SMOOTH",
"1003 1391 OFFCURVE",
"981 1426 OFFCURVE",
"934 1426 CURVE SMOOTH",
"266 1426 LINE SMOOTH",
"210 1426 OFFCURVE",
"183 1395 OFFCURVE",
"183 1348 CURVE SMOOTH",
"183 665 LINE SMOOTH"
);
}
);
width = 1169;
},
{
associatedMasterId = "B7B71B2F-D3C2-46AB-9878-0EE3FC7FFFF4";
layerId = "4C0A4C52-A9D9-4A1D-B81B-0EDA934B9EB8";
name = "Light Backup";
paths = (
{
closed = 1;
nodes = (
"301 18 OFFCURVE",
"425 -23 OFFCURVE",
"557 -23 CURVE SMOOTH",
"717 -23 OFFCURVE",
"846 28 OFFCURVE",
"935 112 CURVE SMOOTH",
"1023 196 OFFCURVE",
"1072 313 OFFCURVE",
"1072 448 CURVE SMOOTH",
"1072 580 OFFCURVE",
"1029 693 OFFCURVE",
"950 774 CURVE SMOOTH",
"870 854 OFFCURVE",
"755 902 OFFCURVE",
"612 902 CURVE SMOOTH",
"560 902 OFFCURVE",
"507 895 OFFCURVE",
"459 880 CURVE SMOOTH",
"410 864 OFFCURVE",
"365 842 OFFCURVE",
"330 811 CURVE",
"345 1327 LINE",
"996 1327 LINE",
"996 1441 LINE",
"203 1441 LINE",
"203 682 LINE",
"257 682 LINE SMOOTH",
"272 682 OFFCURVE",
"287 682 OFFCURVE",
"302 683 CURVE",
"317 683 OFFCURVE",
"330 683 OFFCURVE",
"339 683 CURVE",
"390 747 OFFCURVE",
"487 786 OFFCURVE",
"604 786 CURVE SMOOTH",
"712 786 OFFCURVE",
"796 747 OFFCURVE",
"853 687 CURVE SMOOTH",
"909 626 OFFCURVE",
"939 542 OFFCURVE",
"939 451 CURVE SMOOTH",
"939 351 OFFCURVE",
"904 259 OFFCURVE",
"840 193 CURVE SMOOTH",
"775 127 OFFCURVE",
"678 85 OFFCURVE",
"557 85 CURVE SMOOTH",
"440 85 OFFCURVE",
"338 126 OFFCURVE",
"254 214 CURVE",
"206 110 LINE"
);
}
);
width = 1190;
},
{
associatedMasterId = "B7B71B2F-D3C2-46AB-9878-0EE3FC7FFFF4";
layerId = "14713F14-1CA6-457F-BEE1-3124B2889DBE";
name = "Light Backup_Reg";
paths = (
{
closed = 1;
nodes = (
"191 105 OFFCURVE",
"251 56 OFFCURVE",
"320 24 CURVE SMOOTH",
"389 -8 OFFCURVE",
"468 -23 OFFCURVE",
"548 -23 CURVE SMOOTH",
"709 -23 OFFCURVE",
"840 29 OFFCURVE",
"929 114 CURVE SMOOTH",
"1018 198 OFFCURVE",
"1068 316 OFFCURVE",
"1068 449 CURVE SMOOTH",
"1068 580 OFFCURVE",
"1023 694 OFFCURVE",
"943 775 CURVE SMOOTH",
"862 856 OFFCURVE",
"744 905 OFFCURVE",
"599 905 CURVE SMOOTH",
"507 905 OFFCURVE",
"428 883 OFFCURVE",
"352 839 CURVE",
"366 1280 LINE",
"994 1280 LINE",
"994 1425 LINE",
"203 1425 LINE",
"203 652 LINE",
"379 658 LINE",
"422 722 OFFCURVE",
"500 758 OFFCURVE",
"593 758 CURVE SMOOTH",
"689 758 OFFCURVE",
"765 724 OFFCURVE",
"815 669 CURVE SMOOTH",
"865 613 OFFCURVE",
"891 537 OFFCURVE",
"891 452 CURVE SMOOTH",
"891 361 OFFCURVE",
"861 278 OFFCURVE",
"802 218 CURVE SMOOTH",
"743 157 OFFCURVE",
"657 119 OFFCURVE",
"546 119 CURVE SMOOTH",
"421 119 OFFCURVE",
"308 173 OFFCURVE",
"228 289 CURVE",
"147 173 LINE"
);
}
);
width = 1190;
}
);
note = five;
unicode = 0035;
},
{
glyphname = six;
lastChange = "2016-08-29 16:03:12 +0000";
layers = (
{
background = {
paths = (
{
closed = 1;
nodes = (
"882 1413 OFFCURVE",
"777 1438 OFFCURVE",
"666 1438 CURVE SMOOTH",
"501 1438 OFFCURVE",
"383 1392 OFFCURVE",
"297 1317 CURVE SMOOTH",
"211 1241 OFFCURVE",
"159 1138 OFFCURVE",
"129 1022 CURVE SMOOTH",
"99 906 OFFCURVE",
"89 778 OFFCURVE",
"89 655 CURVE SMOOTH",
"89 542 OFFCURVE",
"103 405 OFFCURVE",
"136 309 CURVE SMOOTH",
"169 213 OFFCURVE",
"222 130 OFFCURVE",
"300 71 CURVE SMOOTH",
"378 12 OFFCURVE",
"480 -22 OFFCURVE",
"613 -22 CURVE SMOOTH",
"758 -22 OFFCURVE",
"876 29 OFFCURVE",
"957 113 CURVE SMOOTH",
"1037 197 OFFCURVE",
"1081 309 OFFCURVE",
"1081 464 CURVE SMOOTH",
"1081 609 OFFCURVE",
"1040 719 OFFCURVE",
"965 799 CURVE SMOOTH",
"889 879 OFFCURVE",
"779 926 OFFCURVE",
"640 926 CURVE SMOOTH",
"476 926 OFFCURVE",
"342 857 OFFCURVE",
"271 714 CURVE",
"271 799 OFFCURVE",
"277 892 OFFCURVE",
"297 978 CURVE SMOOTH",
"317 1064 OFFCURVE",
"352 1143 OFFCURVE",
"412 1200 CURVE SMOOTH",
"472 1257 OFFCURVE",
"555 1294 OFFCURVE",
"674 1294 CURVE SMOOTH",
"745 1294 OFFCURVE",
"831 1273 OFFCURVE",
"920 1238 CURVE",
"926 1236 OFFCURVE",
"932 1235 OFFCURVE",
"937 1235 CURVE SMOOTH",
"956 1235 OFFCURVE",
"972 1245 OFFCURVE",
"984 1260 CURVE SMOOTH",
"996 1275 OFFCURVE",
"1003 1294 OFFCURVE",
"1003 1313 CURVE SMOOTH",
"1003 1334 OFFCURVE",
"994 1355 OFFCURVE",
"971 1366 CURVE"
);
},
{
closed = 1;
nodes = (
"509 118 OFFCURVE",
"435 155 OFFCURVE",
"381 212 CURVE SMOOTH",
"327 268 OFFCURVE",
"295 342 OFFCURVE",
"295 447 CURVE SMOOTH",
"295 558 OFFCURVE",
"323 640 OFFCURVE",
"379 701 CURVE SMOOTH",
"434 762 OFFCURVE",
"515 799 OFFCURVE",
"620 799 CURVE SMOOTH",
"720 799 OFFCURVE",
"790 759 OFFCURVE",
"836 698 CURVE SMOOTH",
"882 637 OFFCURVE",
"902 556 OFFCURVE",
"902 455 CURVE SMOOTH",
"902 340 OFFCURVE",
"875 265 OFFCURVE",
"823 209 CURVE SMOOTH",
"771 152 OFFCURVE",
"694 118 OFFCURVE",
"597 118 CURVE SMOOTH"
);
}
);
};
layerId = "B7B71B2F-D3C2-46AB-9878-0EE3FC7FFFF4";
paths = (
{
closed = 1;
nodes = (
"882 1413 OFFCURVE",
"777 1438 OFFCURVE",
"666 1438 CURVE SMOOTH",
"501 1438 OFFCURVE",
"383 1392 OFFCURVE",
"297 1317 CURVE SMOOTH",
"211 1241 OFFCURVE",
"159 1138 OFFCURVE",
"129 1022 CURVE SMOOTH",
"99 906 OFFCURVE",
"89 778 OFFCURVE",
"89 655 CURVE SMOOTH",
"89 542 OFFCURVE",
"103 405 OFFCURVE",
"136 309 CURVE SMOOTH",
"169 213 OFFCURVE",
"222 130 OFFCURVE",
"300 71 CURVE SMOOTH",
"378 12 OFFCURVE",
"480 -22 OFFCURVE",
"613 -22 CURVE SMOOTH",
"758 -22 OFFCURVE",
"876 29 OFFCURVE",
"957 113 CURVE SMOOTH",
"1037 197 OFFCURVE",
"1081 309 OFFCURVE",
"1081 464 CURVE SMOOTH",
"1081 609 OFFCURVE",
"1040 719 OFFCURVE",
"965 799 CURVE SMOOTH",
"889 879 OFFCURVE",
"779 926 OFFCURVE",
"640 926 CURVE SMOOTH",
"476 926 OFFCURVE",
"342 857 OFFCURVE",
"271 714 CURVE",
"271 799 OFFCURVE",
"277 892 OFFCURVE",
"297 978 CURVE SMOOTH",
"317 1064 OFFCURVE",
"352 1143 OFFCURVE",
"412 1200 CURVE SMOOTH",
"472 1257 OFFCURVE",
"555 1294 OFFCURVE",
"674 1294 CURVE SMOOTH",
"745 1294 OFFCURVE",
"831 1273 OFFCURVE",
"920 1238 CURVE",
"926 1236 OFFCURVE",
"932 1235 OFFCURVE",
"937 1235 CURVE SMOOTH",
"956 1235 OFFCURVE",
"972 1245 OFFCURVE",
"984 1260 CURVE SMOOTH",
"996 1275 OFFCURVE",
"1003 1294 OFFCURVE",
"1003 1313 CURVE SMOOTH",
"1003 1334 OFFCURVE",
"994 1355 OFFCURVE",
"971 1366 CURVE"
);
},
{
closed = 1;
nodes = (
"509 118 OFFCURVE",
"435 155 OFFCURVE",
"381 212 CURVE SMOOTH",
"327 268 OFFCURVE",
"295 342 OFFCURVE",
"295 447 CURVE SMOOTH",
"295 558 OFFCURVE",
"323 640 OFFCURVE",
"379 701 CURVE SMOOTH",
"434 762 OFFCURVE",
"515 799 OFFCURVE",
"620 799 CURVE SMOOTH",
"720 799 OFFCURVE",
"790 759 OFFCURVE",
"836 698 CURVE SMOOTH",
"882 637 OFFCURVE",
"902 556 OFFCURVE",
"902 455 CURVE SMOOTH",
"902 340 OFFCURVE",
"875 265 OFFCURVE",
"823 209 CURVE SMOOTH",
"771 152 OFFCURVE",
"694 118 OFFCURVE",
"597 118 CURVE SMOOTH"
);
}
);
width = 1169;
},
{
associatedMasterId = "B7B71B2F-D3C2-46AB-9878-0EE3FC7FFFF4";
layerId = "4C0A4C52-A9D9-4A1D-B81B-0EDA934B9EB8";
name = "Light Backup";
paths = (
{
closed = 1;
nodes = (
"930 1428 OFFCURVE",
"824 1469 OFFCURVE",
"691 1469 CURVE SMOOTH",
"503 1469 OFFCURVE",
"357 1380 OFFCURVE",
"260 1237 CURVE SMOOTH",
"163 1093 OFFCURVE",
"112 897 OFFCURVE",
"112 682 CURVE SMOOTH",
"112 474 OFFCURVE",
"154 298 OFFCURVE",
"239 174 CURVE SMOOTH",
"323 49 OFFCURVE",
"450 -23 OFFCURVE",
"621 -23 CURVE SMOOTH",
"768 -23 OFFCURVE",
"889 29 OFFCURVE",
"973 114 CURVE SMOOTH",
"1057 199 OFFCURVE",
"1105 319 OFFCURVE",
"1105 455 CURVE SMOOTH",
"1105 595 OFFCURVE",
"1062 708 OFFCURVE",
"986 788 CURVE SMOOTH",
"909 867 OFFCURVE",
"798 911 OFFCURVE",
"663 911 CURVE SMOOTH",
"564 911 OFFCURVE",
"475 888 OFFCURVE",
"403 841 CURVE SMOOTH",
"331 794 OFFCURVE",
"274 724 OFFCURVE",
"241 629 CURVE",
"241 630 OFFCURVE",
"241 631 OFFCURVE",
"241 632 CURVE",
"240 632 OFFCURVE",
"240 634 OFFCURVE",
"239 638 CURVE",
"238 641 OFFCURVE",
"238 648 OFFCURVE",
"238 657 CURVE",
"237 666 OFFCURVE",
"237 680 OFFCURVE",
"237 699 CURVE SMOOTH",
"237 808 OFFCURVE",
"253 919 OFFCURVE",
"286 1017 CURVE SMOOTH",
"318 1115 OFFCURVE",
"367 1200 OFFCURVE",
"435 1261 CURVE SMOOTH",
"502 1322 OFFCURVE",
"586 1359 OFFCURVE",
"690 1359 CURVE SMOOTH",
"806 1359 OFFCURVE",
"897 1329 OFFCURVE",
"966 1273 CURVE",
"1009 1352 LINE"
);
},
{
closed = 1;
nodes = (
"748 806 OFFCURVE",
"832 767 OFFCURVE",
"887 703 CURVE SMOOTH",
"942 638 OFFCURVE",
"968 547 OFFCURVE",
"968 446 CURVE SMOOTH",
"968 343 OFFCURVE",
"936 253 OFFCURVE",
"877 189 CURVE SMOOTH",
"818 124 OFFCURVE",
"734 85 OFFCURVE",
"630 85 CURVE SMOOTH",
"490 85 OFFCURVE",
"398 143 OFFCURVE",
"342 224 CURVE SMOOTH",
"285 305 OFFCURVE",
"264 412 OFFCURVE",
"264 508 CURVE SMOOTH",
"264 593 OFFCURVE",
"309 668 OFFCURVE",
"377 721 CURVE SMOOTH",
"445 774 OFFCURVE",
"536 806 OFFCURVE",
"631 806 CURVE SMOOTH"
);
}
);
width = 1190;
},
{
associatedMasterId = "B7B71B2F-D3C2-46AB-9878-0EE3FC7FFFF4";
layerId = "14713F14-1CA6-457F-BEE1-3124B2889DBE";
name = "Light Backup_Reg";
paths = (
{
closed = 1;
nodes = (
"935 1405 OFFCURVE",
"819 1453 OFFCURVE",
"674 1453 CURVE SMOOTH",
"483 1453 OFFCURVE",
"339 1365 OFFCURVE",
"241 1225 CURVE SMOOTH",
"143 1084 OFFCURVE",
"92 890 OFFCURVE",
"92 678 CURVE SMOOTH",
"92 470 OFFCURVE",
"134 295 OFFCURVE",
"221 172 CURVE SMOOTH",
"308 48 OFFCURVE",
"437 -23 OFFCURVE",
"612 -23 CURVE SMOOTH",
"760 -23 OFFCURVE",
"882 29 OFFCURVE",
"966 114 CURVE SMOOTH",
"1050 199 OFFCURVE",
"1098 318 OFFCURVE",
"1098 454 CURVE SMOOTH",
"1098 595 OFFCURVE",
"1054 710 OFFCURVE",
"975 790 CURVE SMOOTH",
"896 870 OFFCURVE",
"782 914 OFFCURVE",
"645 914 CURVE SMOOTH",
"564 914 OFFCURVE",
"488 900 OFFCURVE",
"424 869 CURVE SMOOTH",
"360 837 OFFCURVE",
"308 789 OFFCURVE",
"272 724 CURVE",
"272 823 OFFCURVE",
"286 921 OFFCURVE",
"315 1008 CURVE SMOOTH",
"343 1095 OFFCURVE",
"387 1172 OFFCURVE",
"447 1226 CURVE SMOOTH",
"507 1280 OFFCURVE",
"583 1312 OFFCURVE",
"675 1312 CURVE SMOOTH",
"787 1312 OFFCURVE",
"877 1273 OFFCURVE",
"944 1201 CURVE",
"999 1313 LINE"
);
},
{
closed = 1;
nodes = (
"721 778 OFFCURVE",
"797 742 OFFCURVE",
"847 683 CURVE SMOOTH",
"897 623 OFFCURVE",
"920 541 OFFCURVE",
"920 448 CURVE SMOOTH",
"920 355 OFFCURVE",
"890 273 OFFCURVE",
"837 214 CURVE SMOOTH",
"784 154 OFFCURVE",
"707 119 OFFCURVE",
"614 119 CURVE SMOOTH",
"506 119 OFFCURVE",
"425 164 OFFCURVE",
"371 235 CURVE SMOOTH",
"317 306 OFFCURVE",
"290 401 OFFCURVE",
"290 501 CURVE SMOOTH",
"290 503 OFFCURVE",
"290 505 OFFCURVE",
"290 508 CURVE SMOOTH",
"290 511 OFFCURVE",
"290 514 OFFCURVE",
"290 519 CURVE SMOOTH",
"290 528 OFFCURVE",
"291 542 OFFCURVE",
"292 566 CURVE",
"316 629 OFFCURVE",
"358 682 OFFCURVE",
"414 719 CURVE SMOOTH",
"470 756 OFFCURVE",
"540 778 OFFCURVE",
"620 778 CURVE SMOOTH"
);
}
);
width = 1190;
}
);
note = six;
unicode = 0036;
},
{
glyphname = seven;
lastChange = "2016-08-29 16:03:12 +0000";
layers = (
{
background = {
paths = (
{
closed = 1;
nodes = (
"1040 1290 OFFCURVE",
"1045 1313 OFFCURVE",
"1045 1336 CURVE SMOOTH",
"1045 1387 OFFCURVE",
"1013 1426 OFFCURVE",
"941 1426 CURVE SMOOTH",
"176 1426 LINE SMOOTH",
"127 1426 OFFCURVE",
"103 1389 OFFCURVE",
"103 1353 CURVE SMOOTH",
"103 1317 OFFCURVE",
"127 1281 OFFCURVE",
"176 1281 CURVE SMOOTH",
"856 1281 LINE",
"347 119 LINE SMOOTH",
"341 106 OFFCURVE",
"338 94 OFFCURVE",
"338 83 CURVE SMOOTH",
"338 59 OFFCURVE",
"351 38 OFFCURVE",
"369 23 CURVE SMOOTH",
"387 8 OFFCURVE",
"410 0 OFFCURVE",
"434 0 CURVE SMOOTH",
"465 0 OFFCURVE",
"497 14 OFFCURVE",
"512 49 CURVE SMOOTH",
"1029 1267 LINE"
);
}
);
};
layerId = "B7B71B2F-D3C2-46AB-9878-0EE3FC7FFFF4";
paths = (
{
closed = 1;
nodes = (
"1040 1290 OFFCURVE",
"1045 1313 OFFCURVE",
"1045 1336 CURVE SMOOTH",
"1045 1387 OFFCURVE",
"1013 1426 OFFCURVE",
"941 1426 CURVE SMOOTH",
"176 1426 LINE SMOOTH",
"127 1426 OFFCURVE",
"103 1389 OFFCURVE",
"103 1353 CURVE SMOOTH",
"103 1317 OFFCURVE",
"127 1281 OFFCURVE",
"176 1281 CURVE SMOOTH",
"856 1281 LINE",
"347 119 LINE SMOOTH",
"341 106 OFFCURVE",
"338 94 OFFCURVE",
"338 83 CURVE SMOOTH",
"338 59 OFFCURVE",
"351 38 OFFCURVE",
"369 23 CURVE SMOOTH",
"387 8 OFFCURVE",
"410 0 OFFCURVE",
"434 0 CURVE SMOOTH",
"465 0 OFFCURVE",
"497 14 OFFCURVE",
"512 49 CURVE SMOOTH",
"1029 1267 LINE"
);
}
);
width = 1169;
},
{
associatedMasterId = "B7B71B2F-D3C2-46AB-9878-0EE3FC7FFFF4";
layerId = "4C0A4C52-A9D9-4A1D-B81B-0EDA934B9EB8";
name = "Light Backup";
paths = (
{
closed = 1;
nodes = (
"113 1322 LINE",
"930 1322 LINE",
"327 0 LINE",
"470 0 LINE",
"1071 1363 LINE",
"1071 1436 LINE",
"113 1436 LINE"
);
}
);
width = 1189;
},
{
associatedMasterId = "B7B71B2F-D3C2-46AB-9878-0EE3FC7FFFF4";
layerId = "14713F14-1CA6-457F-BEE1-3124B2889DBE";
name = "Light Backup_Reg";
paths = (
{
closed = 1;
nodes = (
"95 1275 LINE",
"873 1275 LINE",
"293 0 LINE",
"479 0 LINE",
"1065 1329 LINE",
"1065 1420 LINE",
"95 1420 LINE"
);
}
);
width = 1189;
}
);
note = seven;
unicode = 0037;
},
{
glyphname = eight;
lastChange = "2016-08-29 16:03:12 +0000";
layers = (
{
background = {
paths = (
{
closed = 1;
nodes = (
"299 714 OFFCURVE",
"221 655 OFFCURVE",
"168 597 CURVE SMOOTH",
"115 539 OFFCURVE",
"85 464 OFFCURVE",
"85 377 CURVE SMOOTH",
"85 248 OFFCURVE",
"144 145 OFFCURVE",
"236 78 CURVE SMOOTH",
"327 11 OFFCURVE",
"452 -22 OFFCURVE",
"584 -22 CURVE SMOOTH",
"716 -22 OFFCURVE",
"841 11 OFFCURVE",
"933 78 CURVE SMOOTH",
"1025 145 OFFCURVE",
"1084 248 OFFCURVE",
"1084 377 CURVE SMOOTH",
"1084 557 OFFCURVE",
"970 682 OFFCURVE",
"779 735 CURVE",
"779 737 LINE",
"860 754 OFFCURVE",
"932 804 OFFCURVE",
"982 857 CURVE SMOOTH",
"1032 910 OFFCURVE",
"1062 980 OFFCURVE",
"1062 1064 CURVE SMOOTH",
"1062 1191 OFFCURVE",
"1004 1284 OFFCURVE",
"916 1346 CURVE SMOOTH",
"828 1408 OFFCURVE",
"708 1438 OFFCURVE",
"584 1438 CURVE SMOOTH",
"461 1438 OFFCURVE",
"342 1408 OFFCURVE",
"254 1346 CURVE SMOOTH",
"165 1284 OFFCURVE",
"107 1191 OFFCURVE",
"107 1064 CURVE SMOOTH",
"107 983 OFFCURVE",
"137 908 OFFCURVE",
"188 852 CURVE SMOOTH",
"239 796 OFFCURVE",
"309 746 OFFCURVE",
"392 737 CURVE",
"392 733 LINE"
);
},
{
closed = 1;
nodes = (
"279 1149 OFFCURVE",
"319 1210 OFFCURVE",
"376 1250 CURVE SMOOTH",
"433 1289 OFFCURVE",
"509 1307 OFFCURVE",
"584 1307 CURVE SMOOTH",
"659 1307 OFFCURVE",
"736 1289 OFFCURVE",
"794 1250 CURVE SMOOTH",
"852 1210 OFFCURVE",
"890 1149 OFFCURVE",
"890 1061 CURVE SMOOTH",
"890 980 OFFCURVE",
"858 919 OFFCURVE",
"804 879 CURVE SMOOTH",
"750 838 OFFCURVE",
"673 818 OFFCURVE",
"584 818 CURVE SMOOTH",
"496 818 OFFCURVE",
"420 838 OFFCURVE",
"366 879 CURVE SMOOTH",
"312 919 OFFCURVE",
"279 980 OFFCURVE",
"279 1061 CURVE SMOOTH"
);
},
{
closed = 1;
nodes = (
"267 476 OFFCURVE",
"305 543 OFFCURVE",
"364 587 CURVE SMOOTH",
"423 631 OFFCURVE",
"501 664 OFFCURVE",
"584 664 CURVE SMOOTH",
"667 664 OFFCURVE",
"746 631 OFFCURVE",
"805 587 CURVE SMOOTH",
"864 543 OFFCURVE",
"901 476 OFFCURVE",
"901 383 CURVE SMOOTH",
"901 295 OFFCURVE",
"864 226 OFFCURVE",
"805 182 CURVE SMOOTH",
"746 138 OFFCURVE",
"667 118 OFFCURVE",
"584 118 CURVE SMOOTH",
"501 118 OFFCURVE",
"423 138 OFFCURVE",
"364 182 CURVE SMOOTH",
"305 226 OFFCURVE",
"267 295 OFFCURVE",
"267 383 CURVE SMOOTH"
);
}
);
};
layerId = "B7B71B2F-D3C2-46AB-9878-0EE3FC7FFFF4";
paths = (
{
closed = 1;
nodes = (
"299 714 OFFCURVE",
"221 655 OFFCURVE",
"168 597 CURVE SMOOTH",
"115 539 OFFCURVE",
"85 464 OFFCURVE",
"85 377 CURVE SMOOTH",
"85 248 OFFCURVE",
"144 145 OFFCURVE",
"236 78 CURVE SMOOTH",
"327 11 OFFCURVE",
"452 -22 OFFCURVE",
"584 -22 CURVE SMOOTH",
"716 -22 OFFCURVE",
"841 11 OFFCURVE",
"933 78 CURVE SMOOTH",
"1025 145 OFFCURVE",
"1084 248 OFFCURVE",
"1084 377 CURVE SMOOTH",
"1084 557 OFFCURVE",
"970 682 OFFCURVE",
"779 735 CURVE",
"779 737 LINE",
"860 754 OFFCURVE",
"932 804 OFFCURVE",
"982 857 CURVE SMOOTH",
"1032 910 OFFCURVE",
"1062 980 OFFCURVE",
"1062 1064 CURVE SMOOTH",
"1062 1191 OFFCURVE",
"1004 1284 OFFCURVE",
"916 1346 CURVE SMOOTH",
"828 1408 OFFCURVE",
"708 1438 OFFCURVE",
"584 1438 CURVE SMOOTH",
"461 1438 OFFCURVE",
"342 1408 OFFCURVE",
"254 1346 CURVE SMOOTH",
"165 1284 OFFCURVE",
"107 1191 OFFCURVE",
"107 1064 CURVE SMOOTH",
"107 983 OFFCURVE",
"137 908 OFFCURVE",
"188 852 CURVE SMOOTH",
"239 796 OFFCURVE",
"309 746 OFFCURVE",
"392 737 CURVE",
"392 733 LINE"
);
},
{
closed = 1;
nodes = (
"279 1149 OFFCURVE",
"319 1210 OFFCURVE",
"376 1250 CURVE SMOOTH",
"433 1289 OFFCURVE",
"509 1307 OFFCURVE",
"584 1307 CURVE SMOOTH",
"659 1307 OFFCURVE",
"736 1289 OFFCURVE",
"794 1250 CURVE SMOOTH",
"852 1210 OFFCURVE",
"890 1149 OFFCURVE",
"890 1061 CURVE SMOOTH",
"890 980 OFFCURVE",
"858 919 OFFCURVE",
"804 879 CURVE SMOOTH",
"750 838 OFFCURVE",
"673 818 OFFCURVE",
"584 818 CURVE SMOOTH",
"496 818 OFFCURVE",
"420 838 OFFCURVE",
"366 879 CURVE SMOOTH",
"312 919 OFFCURVE",
"279 980 OFFCURVE",
"279 1061 CURVE SMOOTH"
);
},
{
closed = 1;
nodes = (
"267 476 OFFCURVE",
"305 543 OFFCURVE",
"364 587 CURVE SMOOTH",
"423 631 OFFCURVE",
"501 664 OFFCURVE",
"584 664 CURVE SMOOTH",
"667 664 OFFCURVE",
"746 631 OFFCURVE",
"805 587 CURVE SMOOTH",
"864 543 OFFCURVE",
"901 476 OFFCURVE",
"901 383 CURVE SMOOTH",
"901 295 OFFCURVE",
"864 226 OFFCURVE",
"805 182 CURVE SMOOTH",
"746 138 OFFCURVE",
"667 118 OFFCURVE",
"584 118 CURVE SMOOTH",
"501 118 OFFCURVE",
"423 138 OFFCURVE",
"364 182 CURVE SMOOTH",
"305 226 OFFCURVE",
"267 295 OFFCURVE",
"267 383 CURVE SMOOTH"
);
}
);
width = 1169;
},
{
associatedMasterId = "B7B71B2F-D3C2-46AB-9878-0EE3FC7FFFF4";
layerId = "4C0A4C52-A9D9-4A1D-B81B-0EDA934B9EB8";
name = "Light Backup";
paths = (
{
closed = 1;
nodes = (
"113 237 OFFCURVE",
"168 141 OFFCURVE",
"255 76 CURVE SMOOTH",
"342 11 OFFCURVE",
"459 -23 OFFCURVE",
"586 -23 CURVE SMOOTH",
"726 -23 OFFCURVE",
"854 12 OFFCURVE",
"947 79 CURVE SMOOTH",
"1039 146 OFFCURVE",
"1097 244 OFFCURVE",
"1097 369 CURVE SMOOTH",
"1097 568 OFFCURVE",
"980 692 OFFCURVE",
"733 756 CURVE",
"733 759 LINE",
"832 787 OFFCURVE",
"913 834 OFFCURVE",
"970 895 CURVE SMOOTH",
"1027 955 OFFCURVE",
"1059 1032 OFFCURVE",
"1059 1117 CURVE SMOOTH",
"1059 1229 OFFCURVE",
"1006 1317 OFFCURVE",
"925 1377 CURVE SMOOTH",
"844 1437 OFFCURVE",
"733 1469 OFFCURVE",
"616 1469 CURVE SMOOTH",
"493 1469 OFFCURVE",
"377 1436 OFFCURVE",
"291 1374 CURVE SMOOTH",
"205 1312 OFFCURVE",
"150 1221 OFFCURVE",
"150 1109 CURVE SMOOTH",
"150 1021 OFFCURVE",
"180 943 OFFCURVE",
"236 883 CURVE SMOOTH",
"292 823 OFFCURVE",
"373 779 OFFCURVE",
"476 758 CURVE",
"476 755 LINE",
"361 727 OFFCURVE",
"271 678 OFFCURVE",
"209 611 CURVE SMOOTH",
"147 543 OFFCURVE",
"113 458 OFFCURVE",
"113 361 CURVE SMOOTH"
);
},
{
closed = 1;
nodes = (
"245 467 OFFCURVE",
"282 538 OFFCURVE",
"344 591 CURVE SMOOTH",
"406 644 OFFCURVE",
"494 679 OFFCURVE",
"598 698 CURVE",
"707 681 OFFCURVE",
"797 649 OFFCURVE",
"860 597 CURVE SMOOTH",
"923 545 OFFCURVE",
"958 473 OFFCURVE",
"958 374 CURVE SMOOTH",
"958 285 OFFCURVE",
"920 213 OFFCURVE",
"857 163 CURVE SMOOTH",
"793 113 OFFCURVE",
"705 85 OFFCURVE",
"604 85 CURVE SMOOTH",
"503 85 OFFCURVE",
"413 111 OFFCURVE",
"349 160 CURVE SMOOTH",
"284 208 OFFCURVE",
"245 282 OFFCURVE",
"245 378 CURVE SMOOTH"
);
},
{
closed = 1;
nodes = (
"277 1192 OFFCURVE",
"319 1255 OFFCURVE",
"380 1299 CURVE SMOOTH",
"441 1342 OFFCURVE",
"523 1364 OFFCURVE",
"606 1364 CURVE SMOOTH",
"693 1364 OFFCURVE",
"774 1343 OFFCURVE",
"834 1299 CURVE SMOOTH",
"893 1255 OFFCURVE",
"931 1189 OFFCURVE",
"931 1098 CURVE SMOOTH",
"931 938 OFFCURVE",
"819 843 OFFCURVE",
"604 814 CURVE",
"391 849 OFFCURVE",
"277 941 OFFCURVE",
"277 1109 CURVE SMOOTH"
);
}
);
width = 1190;
},
{
associatedMasterId = "B7B71B2F-D3C2-46AB-9878-0EE3FC7FFFF4";
layerId = "14713F14-1CA6-457F-BEE1-3124B2889DBE";
name = "Light Backup_Reg";
paths = (
{
closed = 1;
nodes = (
"459 1453 OFFCURVE",
"345 1420 OFFCURVE",
"262 1358 CURVE SMOOTH",
"179 1296 OFFCURVE",
"128 1204 OFFCURVE",
"128 1091 CURVE SMOOTH",
"128 922 OFFCURVE",
"232 803 OFFCURVE",
"409 747 CURVE",
"204 686 OFFCURVE",
"93 550 OFFCURVE",
"93 367 CURVE SMOOTH",
"93 242 OFFCURVE",
"151 144 OFFCURVE",
"243 78 CURVE SMOOTH",
"334 12 OFFCURVE",
"456 -23 OFFCURVE",
"587 -23 CURVE SMOOTH",
"716 -23 OFFCURVE",
"840 12 OFFCURVE",
"932 78 CURVE SMOOTH",
"1023 144 OFFCURVE",
"1081 242 OFFCURVE",
"1081 367 CURVE SMOOTH",
"1081 550 OFFCURVE",
"970 686 OFFCURVE",
"765 747 CURVE",
"942 803 OFFCURVE",
"1046 922 OFFCURVE",
"1046 1091 CURVE SMOOTH",
"1046 1204 OFFCURVE",
"995 1296 OFFCURVE",
"912 1358 CURVE SMOOTH",
"829 1420 OFFCURVE",
"715 1453 OFFCURVE",
"587 1453 CURVE SMOOTH"
);
},
{
closed = 1;
nodes = (
"495 119 OFFCURVE",
"415 142 OFFCURVE",
"359 186 CURVE SMOOTH",
"303 230 OFFCURVE",
"270 295 OFFCURVE",
"270 380 CURVE SMOOTH",
"270 460 OFFCURVE",
"303 525 OFFCURVE",
"359 574 CURVE SMOOTH",
"415 622 OFFCURVE",
"495 654 OFFCURVE",
"587 673 CURVE",
"679 654 OFFCURVE",
"759 622 OFFCURVE",
"815 574 CURVE SMOOTH",
"871 525 OFFCURVE",
"904 460 OFFCURVE",
"904 380 CURVE SMOOTH",
"904 295 OFFCURVE",
"871 230 OFFCURVE",
"815 186 CURVE SMOOTH",
"759 142 OFFCURVE",
"679 119 OFFCURVE",
"587 119 CURVE SMOOTH"
);
},
{
closed = 1;
nodes = (
"664 1317 OFFCURVE",
"736 1297 OFFCURVE",
"789 1258 CURVE SMOOTH",
"841 1218 OFFCURVE",
"874 1161 OFFCURVE",
"874 1086 CURVE SMOOTH",
"874 941 OFFCURVE",
"771 855 OFFCURVE",
"587 820 CURVE",
"403 855 OFFCURVE",
"300 941 OFFCURVE",
"300 1086 CURVE SMOOTH",
"300 1161 OFFCURVE",
"333 1218 OFFCURVE",
"386 1258 CURVE SMOOTH",
"438 1297 OFFCURVE",
"510 1317 OFFCURVE",
"587 1317 CURVE SMOOTH"
);
}
);
width = 1190;
}
);
note = eight;
unicode = 0038;
},
{
glyphname = nine;
lastChange = "2016-08-29 16:03:12 +0000";
layers = (
{
background = {
paths = (
{
closed = 1;
nodes = (
"287 3 OFFCURVE",
"393 -22 OFFCURVE",
"504 -22 CURVE SMOOTH",
"669 -22 OFFCURVE",
"788 28 OFFCURVE",
"874 109 CURVE SMOOTH",
"960 189 OFFCURVE",
"1012 301 OFFCURVE",
"1042 425 CURVE SMOOTH",
"1072 549 OFFCURVE",
"1081 658 OFFCURVE",
"1081 787 CURVE SMOOTH",
"1081 900 OFFCURVE",
"1067 1011 OFFCURVE",
"1034 1107 CURVE SMOOTH",
"1001 1203 OFFCURVE",
"949 1286 OFFCURVE",
"871 1345 CURVE SMOOTH",
"793 1404 OFFCURVE",
"689 1438 OFFCURVE",
"556 1438 CURVE SMOOTH",
"411 1438 OFFCURVE",
"294 1387 OFFCURVE",
"214 1303 CURVE SMOOTH",
"133 1219 OFFCURVE",
"89 1101 OFFCURVE",
"89 968 CURVE SMOOTH",
"89 836 OFFCURVE",
"129 723 OFFCURVE",
"205 643 CURVE SMOOTH",
"280 563 OFFCURVE",
"390 517 OFFCURVE",
"529 517 CURVE SMOOTH",
"609 517 OFFCURVE",
"685 534 OFFCURVE",
"748 569 CURVE SMOOTH",
"811 604 OFFCURVE",
"863 657 OFFCURVE",
"895 728 CURVE",
"895 728 OFFCURVE",
"896 728 OFFCURVE",
"897 728 CURVE SMOOTH",
"899 728 LINE",
"899 628 OFFCURVE",
"893 553 OFFCURVE",
"873 460 CURVE SMOOTH",
"853 367 OFFCURVE",
"818 283 OFFCURVE",
"761 223 CURVE SMOOTH",
"704 163 OFFCURVE",
"623 126 OFFCURVE",
"511 126 CURVE SMOOTH",
"438 126 OFFCURVE",
"345 145 OFFCURVE",
"249 182 CURVE",
"243 184 OFFCURVE",
"237 185 OFFCURVE",
"232 185 CURVE SMOOTH",
"213 185 OFFCURVE",
"197 175 OFFCURVE",
"185 160 CURVE SMOOTH",
"173 144 OFFCURVE",
"166 124 OFFCURVE",
"166 104 CURVE SMOOTH",
"166 81 OFFCURVE",
"175 61 OFFCURVE",
"198 50 CURVE"
);
},
{
closed = 1;
nodes = (
"660 1298 OFFCURVE",
"736 1261 OFFCURVE",
"789 1205 CURVE SMOOTH",
"842 1148 OFFCURVE",
"874 1069 OFFCURVE",
"874 985 CURVE SMOOTH",
"874 888 OFFCURVE",
"846 802 OFFCURVE",
"791 741 CURVE SMOOTH",
"735 680 OFFCURVE",
"654 643 OFFCURVE",
"549 643 CURVE SMOOTH",
"449 643 OFFCURVE",
"379 683 OFFCURVE",
"334 744 CURVE SMOOTH",
"289 805 OFFCURVE",
"268 889 OFFCURVE",
"268 977 CURVE SMOOTH",
"268 1070 OFFCURVE",
"295 1151 OFFCURVE",
"347 1208 CURVE SMOOTH",
"398 1264 OFFCURVE",
"473 1298 OFFCURVE",
"572 1298 CURVE SMOOTH"
);
}
);
};
layerId = "B7B71B2F-D3C2-46AB-9878-0EE3FC7FFFF4";
paths = (
{
closed = 1;
nodes = (
"287 3 OFFCURVE",
"393 -22 OFFCURVE",
"504 -22 CURVE SMOOTH",
"669 -22 OFFCURVE",
"788 28 OFFCURVE",
"874 109 CURVE SMOOTH",
"960 189 OFFCURVE",
"1012 301 OFFCURVE",
"1042 425 CURVE SMOOTH",
"1072 549 OFFCURVE",
"1081 658 OFFCURVE",
"1081 787 CURVE SMOOTH",
"1081 900 OFFCURVE",
"1067 1011 OFFCURVE",
"1034 1107 CURVE SMOOTH",
"1001 1203 OFFCURVE",
"949 1286 OFFCURVE",
"871 1345 CURVE SMOOTH",
"793 1404 OFFCURVE",
"689 1438 OFFCURVE",
"556 1438 CURVE SMOOTH",
"411 1438 OFFCURVE",
"294 1387 OFFCURVE",
"214 1303 CURVE SMOOTH",
"133 1219 OFFCURVE",
"89 1101 OFFCURVE",
"89 968 CURVE SMOOTH",
"89 836 OFFCURVE",
"129 723 OFFCURVE",
"205 643 CURVE SMOOTH",
"280 563 OFFCURVE",
"390 517 OFFCURVE",
"529 517 CURVE SMOOTH",
"609 517 OFFCURVE",
"685 534 OFFCURVE",
"748 569 CURVE SMOOTH",
"811 604 OFFCURVE",
"863 657 OFFCURVE",
"895 728 CURVE",
"895 728 OFFCURVE",
"896 728 OFFCURVE",
"897 728 CURVE SMOOTH",
"899 728 LINE",
"899 628 OFFCURVE",
"893 553 OFFCURVE",
"873 460 CURVE SMOOTH",
"853 367 OFFCURVE",
"818 283 OFFCURVE",
"761 223 CURVE SMOOTH",
"704 163 OFFCURVE",
"623 126 OFFCURVE",
"511 126 CURVE SMOOTH",
"438 126 OFFCURVE",
"345 145 OFFCURVE",
"249 182 CURVE",
"243 184 OFFCURVE",
"237 185 OFFCURVE",
"232 185 CURVE SMOOTH",
"213 185 OFFCURVE",
"197 175 OFFCURVE",
"185 160 CURVE SMOOTH",
"173 144 OFFCURVE",
"166 124 OFFCURVE",
"166 104 CURVE SMOOTH",
"166 81 OFFCURVE",
"175 61 OFFCURVE",
"198 50 CURVE"
);
},
{
closed = 1;
nodes = (
"660 1298 OFFCURVE",
"736 1261 OFFCURVE",
"789 1205 CURVE SMOOTH",
"842 1148 OFFCURVE",
"874 1069 OFFCURVE",
"874 985 CURVE SMOOTH",
"874 888 OFFCURVE",
"846 802 OFFCURVE",
"791 741 CURVE SMOOTH",
"735 680 OFFCURVE",
"654 643 OFFCURVE",
"549 643 CURVE SMOOTH",
"449 643 OFFCURVE",
"379 683 OFFCURVE",
"334 744 CURVE SMOOTH",
"289 805 OFFCURVE",
"268 889 OFFCURVE",
"268 977 CURVE SMOOTH",
"268 1070 OFFCURVE",
"295 1151 OFFCURVE",
"347 1208 CURVE SMOOTH",
"398 1264 OFFCURVE",
"473 1298 OFFCURVE",
"572 1298 CURVE SMOOTH"
);
}
);
width = 1169;
},
{
associatedMasterId = "B7B71B2F-D3C2-46AB-9878-0EE3FC7FFFF4";
layerId = "4C0A4C52-A9D9-4A1D-B81B-0EDA934B9EB8";
name = "Light Backup";
paths = (
{
closed = 1;
nodes = (
"273 21 OFFCURVE",
"379 -23 OFFCURVE",
"520 -23 CURVE SMOOTH",
"705 -23 OFFCURVE",
"851 58 OFFCURVE",
"949 198 CURVE SMOOTH",
"1047 338 OFFCURVE",
"1098 536 OFFCURVE",
"1098 768 CURVE SMOOTH",
"1098 995 OFFCURVE",
"1053 1170 OFFCURVE",
"967 1289 CURVE SMOOTH",
"881 1408 OFFCURVE",
"753 1469 OFFCURVE",
"592 1469 CURVE SMOOTH",
"444 1469 OFFCURVE",
"322 1418 OFFCURVE",
"238 1334 CURVE SMOOTH",
"154 1250 OFFCURVE",
"106 1132 OFFCURVE",
"106 1000 CURVE SMOOTH",
"106 869 OFFCURVE",
"150 758 OFFCURVE",
"228 679 CURVE SMOOTH",
"306 599 OFFCURVE",
"417 552 OFFCURVE",
"553 552 CURVE SMOOTH",
"756 552 OFFCURVE",
"901 641 OFFCURVE",
"973 808 CURVE",
"974 785 OFFCURVE",
"975 762 OFFCURVE",
"975 739 CURVE SMOOTH",
"975 564 OFFCURVE",
"938 399 OFFCURVE",
"863 276 CURVE SMOOTH",
"787 153 OFFCURVE",
"675 75 OFFCURVE",
"526 75 CURVE SMOOTH",
"398 75 OFFCURVE",
"304 116 OFFCURVE",
"243 184 CURVE",
"206 105 LINE"
);
},
{
closed = 1;
nodes = (
"463 661 OFFCURVE",
"377 699 OFFCURVE",
"321 761 CURVE SMOOTH",
"265 823 OFFCURVE",
"238 908 OFFCURVE",
"238 1007 CURVE SMOOTH",
"238 1107 OFFCURVE",
"273 1195 OFFCURVE",
"333 1259 CURVE SMOOTH",
"393 1322 OFFCURVE",
"479 1359 OFFCURVE",
"582 1359 CURVE SMOOTH",
"714 1359 OFFCURVE",
"806 1305 OFFCURVE",
"866 1228 CURVE SMOOTH",
"925 1151 OFFCURVE",
"951 1049 OFFCURVE",
"951 953 CURVE SMOOTH",
"951 870 OFFCURVE",
"905 797 OFFCURVE",
"836 745 CURVE SMOOTH",
"767 693 OFFCURVE",
"674 661 OFFCURVE",
"582 661 CURVE SMOOTH"
);
}
);
width = 1190;
},
{
associatedMasterId = "B7B71B2F-D3C2-46AB-9878-0EE3FC7FFFF4";
layerId = "14713F14-1CA6-457F-BEE1-3124B2889DBE";
name = "Light Backup_Reg";
paths = (
{
closed = 1;
nodes = (
"254 29 OFFCURVE",
"369 -23 OFFCURVE",
"514 -23 CURVE SMOOTH",
"699 -23 OFFCURVE",
"844 57 OFFCURVE",
"943 195 CURVE SMOOTH",
"1042 333 OFFCURVE",
"1093 527 OFFCURVE",
"1093 758 CURVE SMOOTH",
"1093 982 OFFCURVE",
"1047 1156 OFFCURVE",
"960 1274 CURVE SMOOTH",
"872 1392 OFFCURVE",
"744 1453 OFFCURVE",
"581 1453 CURVE SMOOTH",
"430 1453 OFFCURVE",
"306 1402 OFFCURVE",
"221 1318 CURVE SMOOTH",
"136 1234 OFFCURVE",
"88 1116 OFFCURVE",
"88 984 CURVE SMOOTH",
"88 852 OFFCURVE",
"132 739 OFFCURVE",
"212 660 CURVE SMOOTH",
"291 580 OFFCURVE",
"405 533 OFFCURVE",
"545 533 CURVE SMOOTH",
"712 533 OFFCURVE",
"842 587 OFFCURVE",
"918 707 CURVE",
"918 705 LINE SMOOTH",
"918 549 OFFCURVE",
"885 403 OFFCURVE",
"818 296 CURVE SMOOTH",
"750 188 OFFCURVE",
"650 119 OFFCURVE",
"517 119 CURVE SMOOTH",
"401 119 OFFCURVE",
"308 158 OFFCURVE",
"237 234 CURVE",
"183 121 LINE"
);
},
{
closed = 1;
nodes = (
"467 673 OFFCURVE",
"390 707 OFFCURVE",
"339 764 CURVE SMOOTH",
"288 820 OFFCURVE",
"264 900 OFFCURVE",
"264 989 CURVE SMOOTH",
"264 1081 OFFCURVE",
"295 1162 OFFCURVE",
"349 1220 CURVE SMOOTH",
"403 1278 OFFCURVE",
"480 1312 OFFCURVE",
"573 1312 CURVE SMOOTH",
"689 1312 OFFCURVE",
"772 1263 OFFCURVE",
"825 1191 CURVE SMOOTH",
"878 1118 OFFCURVE",
"902 1022 OFFCURVE",
"902 929 CURVE SMOOTH",
"902 924 OFFCURVE",
"902 918 OFFCURVE",
"902 911 CURVE SMOOTH",
"902 904 OFFCURVE",
"902 899 OFFCURVE",
"903 894 CURVE",
"880 829 OFFCURVE",
"837 774 OFFCURVE",
"780 735 CURVE SMOOTH",
"723 695 OFFCURVE",
"652 673 OFFCURVE",
"572 673 CURVE SMOOTH"
);
}
);
width = 1190;
}
);
note = nine;
unicode = 0039;
},
{
glyphname = colon;
lastChange = "2016-08-29 16:03:12 +0000";
layers = (
{
background = {
paths = (
{
closed = 1;
nodes = (
"184 877 OFFCURVE",
"193 853 OFFCURVE",
"212 835 CURVE SMOOTH",
"231 817 OFFCURVE",
"257 805 OFFCURVE",
"292 805 CURVE SMOOTH",
"325 805 OFFCURVE",
"352 817 OFFCURVE",
"371 835 CURVE SMOOTH",
"390 853 OFFCURVE",
"399 877 OFFCURVE",
"399 902 CURVE SMOOTH",
"399 927 OFFCURVE",
"390 952 OFFCURVE",
"371 970 CURVE SMOOTH",
"352 988 OFFCURVE",
"325 1000 OFFCURVE",
"292 1000 CURVE SMOOTH",
"257 1000 OFFCURVE",
"231 988 OFFCURVE",
"212 970 CURVE SMOOTH",
"193 952 OFFCURVE",
"184 927 OFFCURVE",
"184 902 CURVE SMOOTH"
);
},
{
closed = 1;
nodes = (
"184 72 OFFCURVE",
"193 48 OFFCURVE",
"212 30 CURVE SMOOTH",
"231 12 OFFCURVE",
"257 -1 OFFCURVE",
"292 -1 CURVE SMOOTH",
"325 -1 OFFCURVE",
"352 12 OFFCURVE",
"371 30 CURVE SMOOTH",
"390 48 OFFCURVE",
"399 72 OFFCURVE",
"399 97 CURVE SMOOTH",
"399 121 OFFCURVE",
"390 146 OFFCURVE",
"371 164 CURVE SMOOTH",
"352 182 OFFCURVE",
"325 194 OFFCURVE",
"292 194 CURVE SMOOTH",
"257 194 OFFCURVE",
"231 182 OFFCURVE",
"212 164 CURVE SMOOTH",
"193 146 OFFCURVE",
"184 121 OFFCURVE",
"184 97 CURVE SMOOTH"
);
}
);
};
layerId = "B7B71B2F-D3C2-46AB-9878-0EE3FC7FFFF4";
paths = (
{
closed = 1;
nodes = (
"184 877 OFFCURVE",
"193 853 OFFCURVE",
"212 835 CURVE SMOOTH",
"231 817 OFFCURVE",
"257 805 OFFCURVE",
"292 805 CURVE SMOOTH",
"325 805 OFFCURVE",
"352 817 OFFCURVE",
"371 835 CURVE SMOOTH",
"390 853 OFFCURVE",
"399 877 OFFCURVE",
"399 902 CURVE SMOOTH",
"399 927 OFFCURVE",
"390 952 OFFCURVE",
"371 970 CURVE SMOOTH",
"352 988 OFFCURVE",
"325 1000 OFFCURVE",
"292 1000 CURVE SMOOTH",
"257 1000 OFFCURVE",
"231 988 OFFCURVE",
"212 970 CURVE SMOOTH",
"193 952 OFFCURVE",
"184 927 OFFCURVE",
"184 902 CURVE SMOOTH"
);
},
{
closed = 1;
nodes = (
"184 72 OFFCURVE",
"193 48 OFFCURVE",
"212 30 CURVE SMOOTH",
"231 12 OFFCURVE",
"257 -1 OFFCURVE",
"292 -1 CURVE SMOOTH",
"325 -1 OFFCURVE",
"352 12 OFFCURVE",
"371 30 CURVE SMOOTH",
"390 48 OFFCURVE",
"399 72 OFFCURVE",
"399 97 CURVE SMOOTH",
"399 121 OFFCURVE",
"390 146 OFFCURVE",
"371 164 CURVE SMOOTH",
"352 182 OFFCURVE",
"325 194 OFFCURVE",
"292 194 CURVE SMOOTH",
"257 194 OFFCURVE",
"231 182 OFFCURVE",
"212 164 CURVE SMOOTH",
"193 146 OFFCURVE",
"184 121 OFFCURVE",
"184 97 CURVE SMOOTH"
);
}
);
width = 584;
},
{
associatedMasterId = "B7B71B2F-D3C2-46AB-9878-0EE3FC7FFFF4";
layerId = "4C0A4C52-A9D9-4A1D-B81B-0EDA934B9EB8";
name = "Light Backup";
paths = (
{
closed = 1;
nodes = (
"159 948 LINE",
"159 769 LINE",
"331 769 LINE",
"332 948 LINE"
);
},
{
closed = 1;
nodes = (
"188 168 LINE",
"188 -11 LINE",
"361 -11 LINE",
"361 168 LINE"
);
}
);
width = 540;
},
{
associatedMasterId = "B7B71B2F-D3C2-46AB-9878-0EE3FC7FFFF4";
layerId = "14713F14-1CA6-457F-BEE1-3124B2889DBE";
name = "Light Backup_Reg";
paths = (
{
closed = 1;
nodes = (
"159 1051 LINE",
"159 841 LINE",
"376 841 LINE",
"376 1051 LINE"
);
},
{
closed = 1;
nodes = (
"159 199 LINE",
"159 -11 LINE",
"376 -11 LINE",
"376 199 LINE"
);
}
);
width = 540;
}
);
note = colon;
unicode = 003A;
},
{
glyphname = semicolon;
lastChange = "2016-08-29 16:03:12 +0000";
layers = (
{
background = {
paths = (
{
closed = 1;
nodes = (
"210 899 OFFCURVE",
"220 874 OFFCURVE",
"238 856 CURVE SMOOTH",
"256 838 OFFCURVE",
"282 825 OFFCURVE",
"317 825 CURVE SMOOTH",
"352 825 OFFCURVE",
"378 838 OFFCURVE",
"397 856 CURVE SMOOTH",
"416 874 OFFCURVE",
"425 899 OFFCURVE",
"425 924 CURVE SMOOTH",
"425 948 OFFCURVE",
"416 973 OFFCURVE",
"397 991 CURVE SMOOTH",
"378 1009 OFFCURVE",
"352 1020 OFFCURVE",
"317 1020 CURVE SMOOTH",
"282 1020 OFFCURVE",
"256 1009 OFFCURVE",
"238 991 CURVE SMOOTH",
"220 973 OFFCURVE",
"210 948 OFFCURVE",
"210 924 CURVE SMOOTH"
);
},
{
closed = 1;
nodes = (
"239 185 LINE",
"146 -240 LINE",
"284 -240 LINE",
"436 185 LINE"
);
}
);
};
layerId = "B7B71B2F-D3C2-46AB-9878-0EE3FC7FFFF4";
paths = (
{
closed = 1;
nodes = (
"210 899 OFFCURVE",
"220 874 OFFCURVE",
"238 856 CURVE SMOOTH",
"256 838 OFFCURVE",
"282 825 OFFCURVE",
"317 825 CURVE SMOOTH",
"352 825 OFFCURVE",
"378 838 OFFCURVE",
"397 856 CURVE SMOOTH",
"416 874 OFFCURVE",
"425 899 OFFCURVE",
"425 924 CURVE SMOOTH",
"425 948 OFFCURVE",
"416 973 OFFCURVE",
"397 991 CURVE SMOOTH",
"378 1009 OFFCURVE",
"352 1020 OFFCURVE",
"317 1020 CURVE SMOOTH",
"282 1020 OFFCURVE",
"256 1009 OFFCURVE",
"238 991 CURVE SMOOTH",
"220 973 OFFCURVE",
"210 948 OFFCURVE",
"210 924 CURVE SMOOTH"
);
},
{
closed = 1;
nodes = (
"239 185 LINE",
"146 -240 LINE",
"284 -240 LINE",
"436 185 LINE"
);
}
);
width = 584;
},
{
associatedMasterId = "B7B71B2F-D3C2-46AB-9878-0EE3FC7FFFF4";
layerId = "4C0A4C52-A9D9-4A1D-B81B-0EDA934B9EB8";
name = "Light Backup";
paths = (
{
closed = 1;
nodes = (
"198 -265 LINE",
"353 176 LINE",
"213 176 LINE",
"107 -265 LINE"
);
},
{
closed = 1;
nodes = (
"159 945 LINE",
"159 769 LINE",
"333 769 LINE",
"333 945 LINE"
);
}
);
width = 540;
},
{
associatedMasterId = "B7B71B2F-D3C2-46AB-9878-0EE3FC7FFFF4";
layerId = "14713F14-1CA6-457F-BEE1-3124B2889DBE";
name = "Light Backup_Reg";
paths = (
{
closed = 1;
nodes = (
"231 -256 LINE",
"394 207 LINE",
"206 207 LINE",
"100 -256 LINE"
);
},
{
closed = 1;
nodes = (
"159 1051 LINE",
"159 841 LINE",
"376 841 LINE",
"376 1051 LINE"
);
}
);
width = 540;
}
);
note = semicolon;
unicode = 003B;
},
{
glyphname = less;
lastChange = "2016-08-29 16:03:12 +0000";
layers = (
{
background = {
paths = (
{
closed = 1;
nodes = (
"1099 18 OFFCURVE",
"1108 16 OFFCURVE",
"1117 16 CURVE SMOOTH",
"1154 16 OFFCURVE",
"1181 49 OFFCURVE",
"1181 82 CURVE SMOOTH",
"1181 105 OFFCURVE",
"1170 125 OFFCURVE",
"1142 138 CURVE SMOOTH",
"338 495 LINE",
"1139 833 LINE SMOOTH",
"1168 845 OFFCURVE",
"1180 866 OFFCURVE",
"1180 889 CURVE SMOOTH",
"1180 922 OFFCURVE",
"1152 956 OFFCURVE",
"1112 956 CURVE SMOOTH",
"1103 956 OFFCURVE",
"1095 955 OFFCURVE",
"1087 952 CURVE",
"200 574 LINE SMOOTH",
"157 555 OFFCURVE",
"138 524 OFFCURVE",
"138 495 CURVE SMOOTH",
"138 467 OFFCURVE",
"156 438 OFFCURVE",
"197 419 CURVE SMOOTH",
"1089 22 LINE"
);
}
);
};
layerId = "B7B71B2F-D3C2-46AB-9878-0EE3FC7FFFF4";
paths = (
{
closed = 1;
nodes = (
"1099 18 OFFCURVE",
"1108 16 OFFCURVE",
"1117 16 CURVE SMOOTH",
"1154 16 OFFCURVE",
"1181 49 OFFCURVE",
"1181 82 CURVE SMOOTH",
"1181 105 OFFCURVE",
"1170 125 OFFCURVE",
"1142 138 CURVE SMOOTH",
"338 495 LINE",
"1139 833 LINE SMOOTH",
"1168 845 OFFCURVE",
"1180 866 OFFCURVE",
"1180 889 CURVE SMOOTH",
"1180 922 OFFCURVE",
"1152 956 OFFCURVE",
"1112 956 CURVE SMOOTH",
"1103 956 OFFCURVE",
"1095 955 OFFCURVE",
"1087 952 CURVE",
"200 574 LINE SMOOTH",
"157 555 OFFCURVE",
"138 524 OFFCURVE",
"138 495 CURVE SMOOTH",
"138 467 OFFCURVE",
"156 438 OFFCURVE",
"197 419 CURVE SMOOTH",
"1089 22 LINE"
);
}
);
width = 1340;
},
{
associatedMasterId = "B7B71B2F-D3C2-46AB-9878-0EE3FC7FFFF4";
layerId = "4C0A4C52-A9D9-4A1D-B81B-0EDA934B9EB8";
name = "Light Backup";
paths = (
{
closed = 1;
nodes = (
"1234 1055 LINE",
"242 589 LINE",
"237 514 LINE",
"1230 64 LINE",
"1230 178 LINE",
"398 552 LINE",
"1234 939 LINE"
);
}
);
width = 1458;
},
{
associatedMasterId = "B7B71B2F-D3C2-46AB-9878-0EE3FC7FFFF4";
layerId = "14713F14-1CA6-457F-BEE1-3124B2889DBE";
name = "Light Backup_Reg";
paths = (
{
closed = 1;
nodes = (
"1226 1067 LINE",
"219 595 LINE",
"218 508 LINE",
"1223 48 LINE",
"1222 200 LINE",
"438 552 LINE",
"1227 914 LINE"
);
}
);
width = 1458;
}
);
note = less;
unicode = 003C;
},
{
glyphname = equal;
lastChange = "2016-08-29 16:03:12 +0000";
layers = (
{
background = {
paths = (
{
closed = 1;
nodes = (
"1152 233 OFFCURVE",
"1182 263 OFFCURVE",
"1182 299 CURVE SMOOTH",
"1182 338 OFFCURVE",
"1152 367 OFFCURVE",
"1113 367 CURVE SMOOTH",
"227 367 LINE SMOOTH",
"188 367 OFFCURVE",
"157 338 OFFCURVE",
"157 299 CURVE SMOOTH",
"157 263 OFFCURVE",
"188 233 OFFCURVE",
"227 233 CURVE SMOOTH",
"1113 233 LINE SMOOTH"
);
},
{
closed = 1;
nodes = (
"1152 625 OFFCURVE",
"1182 656 OFFCURVE",
"1182 692 CURVE SMOOTH",
"1182 731 OFFCURVE",
"1152 760 OFFCURVE",
"1113 760 CURVE SMOOTH",
"227 760 LINE SMOOTH",
"188 760 OFFCURVE",
"157 731 OFFCURVE",
"157 692 CURVE SMOOTH",
"157 656 OFFCURVE",
"188 625 OFFCURVE",
"227 625 CURVE SMOOTH",
"1113 625 LINE SMOOTH"
);
}
);
};
layerId = "B7B71B2F-D3C2-46AB-9878-0EE3FC7FFFF4";
paths = (
{
closed = 1;
nodes = (
"1152 233 OFFCURVE",
"1182 263 OFFCURVE",
"1182 299 CURVE SMOOTH",
"1182 338 OFFCURVE",
"1152 367 OFFCURVE",
"1113 367 CURVE SMOOTH",
"227 367 LINE SMOOTH",
"188 367 OFFCURVE",
"157 338 OFFCURVE",
"157 299 CURVE SMOOTH",
"157 263 OFFCURVE",
"188 233 OFFCURVE",
"227 233 CURVE SMOOTH",
"1113 233 LINE SMOOTH"
);
},
{
closed = 1;
nodes = (
"1152 625 OFFCURVE",
"1182 656 OFFCURVE",
"1182 692 CURVE SMOOTH",
"1182 731 OFFCURVE",
"1152 760 OFFCURVE",
"1113 760 CURVE SMOOTH",
"227 760 LINE SMOOTH",
"188 760 OFFCURVE",
"157 731 OFFCURVE",
"157 692 CURVE SMOOTH",
"157 656 OFFCURVE",
"188 625 OFFCURVE",
"227 625 CURVE SMOOTH",
"1113 625 LINE SMOOTH"
);
}
);
width = 1340;
},
{
associatedMasterId = "B7B71B2F-D3C2-46AB-9878-0EE3FC7FFFF4";
layerId = "4C0A4C52-A9D9-4A1D-B81B-0EDA934B9EB8";
name = "Light Backup";
paths = (
{
closed = 1;
nodes = (
"218 292 LINE",
"1254 292 LINE",
"1254 398 LINE",
"218 398 LINE"
);
},
{
closed = 1;
nodes = (
"216 714 LINE",
"1254 714 LINE",
"1254 821 LINE",
"216 821 LINE"
);
}
);
width = 1458;
},
{
associatedMasterId = "B7B71B2F-D3C2-46AB-9878-0EE3FC7FFFF4";
layerId = "14713F14-1CA6-457F-BEE1-3124B2889DBE";
name = "Light Backup_Reg";
paths = (
{
closed = 1;
nodes = (
"198 283 LINE",
"1247 283 LINE",
"1247 420 LINE",
"198 420 LINE"
);
},
{
closed = 1;
nodes = (
"197 689 LINE",
"1246 689 LINE",
"1246 827 LINE",
"197 827 LINE"
);
}
);
width = 1458;
}
);
note = equal;
unicode = 003D;
},
{
glyphname = greater;
lastChange = "2016-08-29 16:03:12 +0000";
layers = (
{
background = {
paths = (
{
closed = 1;
nodes = (
"240 972 OFFCURVE",
"230 974 OFFCURVE",
"221 974 CURVE SMOOTH",
"184 974 OFFCURVE",
"158 941 OFFCURVE",
"158 908 CURVE SMOOTH",
"158 885 OFFCURVE",
"170 864 OFFCURVE",
"197 852 CURVE SMOOTH",
"1001 495 LINE",
"199 157 LINE SMOOTH",
"171 145 OFFCURVE",
"159 124 OFFCURVE",
"159 101 CURVE SMOOTH",
"159 66 OFFCURVE",
"186 33 OFFCURVE",
"226 33 CURVE SMOOTH",
"233 33 OFFCURVE",
"242 35 OFFCURVE",
"252 38 CURVE",
"1139 416 LINE SMOOTH",
"1182 435 OFFCURVE",
"1201 464 OFFCURVE",
"1201 495 CURVE SMOOTH",
"1201 522 OFFCURVE",
"1183 552 OFFCURVE",
"1142 571 CURVE SMOOTH",
"250 968 LINE"
);
}
);
};
layerId = "B7B71B2F-D3C2-46AB-9878-0EE3FC7FFFF4";
paths = (
{
closed = 1;
nodes = (
"240 972 OFFCURVE",
"230 974 OFFCURVE",
"221 974 CURVE SMOOTH",
"184 974 OFFCURVE",
"158 941 OFFCURVE",
"158 908 CURVE SMOOTH",
"158 885 OFFCURVE",
"170 864 OFFCURVE",
"197 852 CURVE SMOOTH",
"1001 495 LINE",
"199 157 LINE SMOOTH",
"171 145 OFFCURVE",
"159 124 OFFCURVE",
"159 101 CURVE SMOOTH",
"159 66 OFFCURVE",
"186 33 OFFCURVE",
"226 33 CURVE SMOOTH",
"233 33 OFFCURVE",
"242 35 OFFCURVE",
"252 38 CURVE",
"1139 416 LINE SMOOTH",
"1182 435 OFFCURVE",
"1201 464 OFFCURVE",
"1201 495 CURVE SMOOTH",
"1201 522 OFFCURVE",
"1183 552 OFFCURVE",
"1142 571 CURVE SMOOTH",
"250 968 LINE"
);
}
);
width = 1340;
},
{
associatedMasterId = "B7B71B2F-D3C2-46AB-9878-0EE3FC7FFFF4";
layerId = "4C0A4C52-A9D9-4A1D-B81B-0EDA934B9EB8";
name = "Light Backup";
paths = (
{
closed = 1;
nodes = (
"237 77 LINE",
"1230 517 LINE",
"1236 588 LINE",
"241 1066 LINE",
"241 951 LINE",
"1083 552 LINE",
"237 187 LINE"
);
}
);
width = 1458;
},
{
associatedMasterId = "B7B71B2F-D3C2-46AB-9878-0EE3FC7FFFF4";
layerId = "14713F14-1CA6-457F-BEE1-3124B2889DBE";
name = "Light Backup_Reg";
paths = (
{
closed = 1;
nodes = (
"215 58 LINE",
"1225 505 LINE",
"1225 594 LINE",
"220 1078 LINE",
"220 926 LINE",
"1004 555 LINE",
"215 212 LINE"
);
}
);
width = 1458;
}
);
note = greater;
unicode = 003E;
},
{
glyphname = question;
lastChange = "2016-08-29 16:03:12 +0000";
layers = (
{
background = {
paths = (
{
closed = 1;
nodes = (
"261 1342 OFFCURVE",
"309 1349 OFFCURVE",
"351 1353 CURVE SMOOTH",
"393 1357 OFFCURVE",
"429 1359 OFFCURVE",
"448 1359 CURVE SMOOTH",
"515 1359 OFFCURVE",
"581 1346 OFFCURVE",
"630 1311 CURVE SMOOTH",
"678 1275 OFFCURVE",
"711 1217 OFFCURVE",
"711 1128 CURVE SMOOTH",
"711 1087 OFFCURVE",
"702 1049 OFFCURVE",
"684 1015 CURVE SMOOTH",
"648 947 OFFCURVE",
"592 887 OFFCURVE",
"529 832 CURVE SMOOTH",
"498 805 OFFCURVE",
"468 777 OFFCURVE",
"441 750 CURVE SMOOTH",
"386 694 OFFCURVE",
"345 638 OFFCURVE",
"342 571 CURVE",
"342 537 OFFCURVE",
"342 507 OFFCURVE",
"341 480 CURVE SMOOTH",
"340 453 OFFCURVE",
"342 430 OFFCURVE",
"346 412 CURVE SMOOTH",
"354 375 OFFCURVE",
"373 355 OFFCURVE",
"420 355 CURVE SMOOTH",
"459 355 OFFCURVE",
"497 379 OFFCURVE",
"497 426 CURVE SMOOTH",
"497 447 OFFCURVE",
"497 465 OFFCURVE",
"497 478 CURVE",
"496 491 OFFCURVE",
"496 502 OFFCURVE",
"496 509 CURVE SMOOTH",
"496 524 LINE",
"497 547 OFFCURVE",
"501 566 OFFCURVE",
"508 582 CURVE SMOOTH",
"522 613 OFFCURVE",
"551 644 OFFCURVE",
"598 687 CURVE SMOOTH",
"621 708 OFFCURVE",
"649 736 OFFCURVE",
"681 769 CURVE",
"737 822 OFFCURVE",
"790 874 OFFCURVE",
"828 932 CURVE SMOOTH",
"866 990 OFFCURVE",
"889 1055 OFFCURVE",
"889 1140 CURVE SMOOTH",
"889 1267 OFFCURVE",
"843 1359 OFFCURVE",
"770 1420 CURVE SMOOTH",
"697 1481 OFFCURVE",
"597 1510 OFFCURVE",
"488 1510 CURVE SMOOTH",
"396 1510 OFFCURVE",
"297 1503 OFFCURVE",
"205 1479 CURVE SMOOTH",
"161 1468 OFFCURVE",
"143 1436 OFFCURVE",
"143 1405 CURVE SMOOTH",
"143 1368 OFFCURVE",
"168 1331 OFFCURVE",
"207 1331 CURVE SMOOTH",
"210 1331 OFFCURVE",
"215 1332 OFFCURVE",
"222 1333 CURVE"
);
},
{
closed = 1;
nodes = (
"317 63 OFFCURVE",
"327 38 OFFCURVE",
"345 20 CURVE SMOOTH",
"363 2 OFFCURVE",
"389 -11 OFFCURVE",
"424 -11 CURVE SMOOTH",
"459 -11 OFFCURVE",
"485 2 OFFCURVE",
"504 20 CURVE SMOOTH",
"523 38 OFFCURVE",
"532 63 OFFCURVE",
"532 88 CURVE SMOOTH",
"532 112 OFFCURVE",
"523 137 OFFCURVE",
"504 155 CURVE SMOOTH",
"485 173 OFFCURVE",
"459 184 OFFCURVE",
"424 184 CURVE SMOOTH",
"389 184 OFFCURVE",
"363 173 OFFCURVE",
"345 155 CURVE SMOOTH",
"327 137 OFFCURVE",
"317 112 OFFCURVE",
"317 88 CURVE SMOOTH"
);
}
);
};
layerId = "B7B71B2F-D3C2-46AB-9878-0EE3FC7FFFF4";
paths = (
{
closed = 1;
nodes = (
"261 1342 OFFCURVE",
"309 1349 OFFCURVE",
"351 1353 CURVE SMOOTH",
"393 1357 OFFCURVE",
"429 1359 OFFCURVE",
"448 1359 CURVE SMOOTH",
"515 1359 OFFCURVE",
"581 1346 OFFCURVE",
"630 1311 CURVE SMOOTH",
"678 1275 OFFCURVE",
"711 1217 OFFCURVE",
"711 1128 CURVE SMOOTH",
"711 1087 OFFCURVE",
"702 1049 OFFCURVE",
"684 1015 CURVE SMOOTH",
"648 947 OFFCURVE",
"592 887 OFFCURVE",
"529 832 CURVE SMOOTH",
"498 805 OFFCURVE",
"468 777 OFFCURVE",
"441 750 CURVE SMOOTH",
"386 694 OFFCURVE",
"345 638 OFFCURVE",
"342 571 CURVE",
"342 537 OFFCURVE",
"342 507 OFFCURVE",
"341 480 CURVE SMOOTH",
"340 453 OFFCURVE",
"342 430 OFFCURVE",
"346 412 CURVE SMOOTH",
"354 375 OFFCURVE",
"373 355 OFFCURVE",
"420 355 CURVE SMOOTH",
"459 355 OFFCURVE",
"497 379 OFFCURVE",
"497 426 CURVE SMOOTH",
"497 447 OFFCURVE",
"497 465 OFFCURVE",
"497 478 CURVE",
"496 491 OFFCURVE",
"496 502 OFFCURVE",
"496 509 CURVE SMOOTH",
"496 524 LINE",
"497 547 OFFCURVE",
"501 566 OFFCURVE",
"508 582 CURVE SMOOTH",
"522 613 OFFCURVE",
"551 644 OFFCURVE",
"598 687 CURVE SMOOTH",
"621 708 OFFCURVE",
"649 736 OFFCURVE",
"681 769 CURVE",
"737 822 OFFCURVE",
"790 874 OFFCURVE",
"828 932 CURVE SMOOTH",
"866 990 OFFCURVE",
"889 1055 OFFCURVE",
"889 1140 CURVE SMOOTH",
"889 1267 OFFCURVE",
"843 1359 OFFCURVE",
"770 1420 CURVE SMOOTH",
"697 1481 OFFCURVE",
"597 1510 OFFCURVE",
"488 1510 CURVE SMOOTH",
"396 1510 OFFCURVE",
"297 1503 OFFCURVE",
"205 1479 CURVE SMOOTH",
"161 1468 OFFCURVE",
"143 1436 OFFCURVE",
"143 1405 CURVE SMOOTH",
"143 1368 OFFCURVE",
"168 1331 OFFCURVE",
"207 1331 CURVE SMOOTH",
"210 1331 OFFCURVE",
"215 1332 OFFCURVE",
"222 1333 CURVE"
);
},
{
closed = 1;
nodes = (
"317 63 OFFCURVE",
"327 38 OFFCURVE",
"345 20 CURVE SMOOTH",
"363 2 OFFCURVE",
"389 -11 OFFCURVE",
"424 -11 CURVE SMOOTH",
"459 -11 OFFCURVE",
"485 2 OFFCURVE",
"504 20 CURVE SMOOTH",
"523 38 OFFCURVE",
"532 63 OFFCURVE",
"532 88 CURVE SMOOTH",
"532 112 OFFCURVE",
"523 137 OFFCURVE",
"504 155 CURVE SMOOTH",
"485 173 OFFCURVE",
"459 184 OFFCURVE",
"424 184 CURVE SMOOTH",
"389 184 OFFCURVE",
"363 173 OFFCURVE",
"345 155 CURVE SMOOTH",
"327 137 OFFCURVE",
"317 112 OFFCURVE",
"317 88 CURVE SMOOTH"
);
}
);
width = 1032;
},
{
associatedMasterId = "B7B71B2F-D3C2-46AB-9878-0EE3FC7FFFF4";
layerId = "4C0A4C52-A9D9-4A1D-B81B-0EDA934B9EB8";
name = "Light Backup";
paths = (
{
closed = 1;
nodes = (
"491 449 LINE SMOOTH",
"489 473 OFFCURVE",
"488 495 OFFCURVE",
"488 514 CURVE SMOOTH",
"488 546 OFFCURVE",
"491 573 OFFCURVE",
"498 594 CURVE SMOOTH",
"511 637 OFFCURVE",
"543 676 OFFCURVE",
"599 725 CURVE SMOOTH",
"626 750 OFFCURVE",
"661 782 OFFCURVE",
"703 821 CURVE SMOOTH",
"712 829 OFFCURVE",
"721 836 OFFCURVE",
"728 843 CURVE",
"735 849 OFFCURVE",
"745 857 OFFCURVE",
"756 866 CURVE SMOOTH",
"839 934 OFFCURVE",
"898 1027 OFFCURVE",
"898 1155 CURVE SMOOTH",
"898 1270 OFFCURVE",
"851 1355 OFFCURVE",
"775 1411 CURVE SMOOTH",
"698 1467 OFFCURVE",
"592 1494 OFFCURVE",
"473 1494 CURVE SMOOTH",
"389 1494 OFFCURVE",
"293 1475 OFFCURVE",
"208 1428 CURVE",
"208 1322 LINE",
"227 1328 OFFCURVE",
"247 1335 OFFCURVE",
"268 1342 CURVE SMOOTH",
"289 1349 OFFCURVE",
"312 1356 OFFCURVE",
"336 1363 CURVE SMOOTH",
"384 1376 OFFCURVE",
"437 1386 OFFCURVE",
"500 1386 CURVE SMOOTH",
"569 1386 OFFCURVE",
"637 1369 OFFCURVE",
"688 1330 CURVE SMOOTH",
"739 1291 OFFCURVE",
"773 1231 OFFCURVE",
"773 1146 CURVE SMOOTH",
"773 1103 OFFCURVE",
"763 1065 OFFCURVE",
"744 1030 CURVE SMOOTH",
"704 960 OFFCURVE",
"643 899 OFFCURVE",
"574 843 CURVE SMOOTH",
"539 815 OFFCURVE",
"507 787 OFFCURVE",
"478 759 CURVE SMOOTH",
"419 702 OFFCURVE",
"375 643 OFFCURVE",
"375 571 CURVE SMOOTH",
"375 565 OFFCURVE",
"375 560 OFFCURVE",
"376 557 CURVE",
"390 380 LINE",
"496 380 LINE"
);
},
{
closed = 1;
nodes = (
"377 168 LINE",
"377 -11 LINE",
"550 -11 LINE",
"550 168 LINE"
);
}
);
width = 1032;
},
{
associatedMasterId = "B7B71B2F-D3C2-46AB-9878-0EE3FC7FFFF4";
layerId = "14713F14-1CA6-457F-BEE1-3124B2889DBE";
name = "Light Backup_Reg";
paths = (
{
closed = 1;
nodes = (
"517 384 OFFCURVE",
"514 401 OFFCURVE",
"511 418 CURVE",
"507 447 OFFCURVE",
"503 482 OFFCURVE",
"503 513 CURVE SMOOTH",
"503 544 OFFCURVE",
"513 576 OFFCURVE",
"533 607 CURVE SMOOTH",
"572 670 OFFCURVE",
"633 733 OFFCURVE",
"701 799 CURVE SMOOTH",
"735 832 OFFCURVE",
"767 866 OFFCURVE",
"796 902 CURVE SMOOTH",
"855 973 OFFCURVE",
"899 1048 OFFCURVE",
"899 1133 CURVE SMOOTH",
"899 1249 OFFCURVE",
"852 1335 OFFCURVE",
"774 1392 CURVE SMOOTH",
"696 1449 OFFCURVE",
"587 1478 OFFCURVE",
"464 1478 CURVE SMOOTH",
"380 1478 OFFCURVE",
"279 1460 OFFCURVE",
"183 1413 CURVE",
"183 1267 LINE",
"263 1312 OFFCURVE",
"352 1336 OFFCURVE",
"444 1336 CURVE SMOOTH",
"517 1336 OFFCURVE",
"589 1322 OFFCURVE",
"642 1288 CURVE SMOOTH",
"695 1254 OFFCURVE",
"730 1201 OFFCURVE",
"730 1125 CURVE SMOOTH",
"730 1085 OFFCURVE",
"721 1048 OFFCURVE",
"702 1015 CURVE SMOOTH",
"664 947 OFFCURVE",
"605 887 OFFCURVE",
"538 829 CURVE SMOOTH",
"505 800 OFFCURVE",
"474 770 OFFCURVE",
"446 739 CURVE SMOOTH",
"389 678 OFFCURVE",
"346 611 OFFCURVE",
"346 530 CURVE SMOOTH",
"346 516 OFFCURVE",
"347 500 OFFCURVE",
"348 482 CURVE SMOOTH",
"350 445 OFFCURVE",
"352 408 OFFCURVE",
"356 368 CURVE",
"520 368 LINE"
);
},
{
closed = 1;
nodes = (
"329 199 LINE",
"329 -11 LINE",
"546 -11 LINE",
"546 199 LINE"
);
}
);
width = 1032;
}
);
note = question;
unicode = 003F;
},
{
glyphname = at;
lastChange = "2016-08-29 16:03:12 +0000";
layers = (
{
background = {
paths = (
{
closed = 1;
nodes = (
"538 663 OFFCURVE",
"553 733 OFFCURVE",
"581 801 CURVE SMOOTH",
"608 868 OFFCURVE",
"649 932 OFFCURVE",
"699 980 CURVE SMOOTH",
"749 1027 OFFCURVE",
"809 1057 OFFCURVE",
"877 1057 CURVE SMOOTH",
"913 1057 OFFCURVE",
"956 1042 OFFCURVE",
"989 1015 CURVE SMOOTH",
"1021 987 OFFCURVE",
"1046 947 OFFCURVE",
"1046 898 CURVE SMOOTH",
"1046 881 OFFCURVE",
"1043 863 OFFCURVE",
"1037 844 CURVE SMOOTH",
"956 596 LINE SMOOTH",
"936 536 OFFCURVE",
"896 491 OFFCURVE",
"848 460 CURVE SMOOTH",
"800 429 OFFCURVE",
"744 414 OFFCURVE",
"695 414 CURVE SMOOTH",
"646 414 OFFCURVE",
"607 437 OFFCURVE",
"580 472 CURVE SMOOTH",
"552 507 OFFCURVE",
"538 555 OFFCURVE",
"538 604 CURVE SMOOTH"
);
},
{
closed = 1;
nodes = (
"998 96 OFFCURVE",
"910 82 OFFCURVE",
"825 82 CURVE SMOOTH",
"654 82 OFFCURVE",
"496 136 OFFCURVE",
"381 244 CURVE SMOOTH",
"265 352 OFFCURVE",
"192 513 OFFCURVE",
"192 728 CURVE SMOOTH",
"192 871 OFFCURVE",
"233 992 OFFCURVE",
"300 1092 CURVE SMOOTH",
"367 1191 OFFCURVE",
"460 1268 OFFCURVE",
"564 1320 CURVE SMOOTH",
"668 1372 OFFCURVE",
"783 1399 OFFCURVE",
"894 1399 CURVE SMOOTH",
"1031 1399 OFFCURVE",
"1162 1358 OFFCURVE",
"1259 1271 CURVE SMOOTH",
"1355 1184 OFFCURVE",
"1417 1051 OFFCURVE",
"1417 870 CURVE SMOOTH",
"1417 759 OFFCURVE",
"1379 642 OFFCURVE",
"1323 551 CURVE SMOOTH",
"1266 460 OFFCURVE",
"1189 398 OFFCURVE",
"1110 398 CURVE SMOOTH",
"1067 398 OFFCURVE",
"1054 417 OFFCURVE",
"1054 449 CURVE SMOOTH",
"1054 477 OFFCURVE",
"1063 515 OFFCURVE",
"1078 558 CURVE SMOOTH",
"1242 1063 LINE",
"1245 1071 OFFCURVE",
"1246 1079 OFFCURVE",
"1246 1088 CURVE SMOOTH",
"1246 1124 OFFCURVE",
"1216 1143 OFFCURVE",
"1184 1143 CURVE SMOOTH",
"1153 1143 OFFCURVE",
"1120 1126 OFFCURVE",
"1109 1091 CURVE SMOOTH",
"1100 1061 LINE",
"1079 1105 OFFCURVE",
"1045 1138 OFFCURVE",
"1005 1160 CURVE SMOOTH",
"964 1182 OFFCURVE",
"918 1193 OFFCURVE",
"870 1193 CURVE SMOOTH",
"771 1193 OFFCURVE",
"684 1157 OFFCURVE",
"610 1098 CURVE SMOOTH",
"536 1039 OFFCURVE",
"477 958 OFFCURVE",
"437 870 CURVE SMOOTH",
"396 781 OFFCURVE",
"374 685 OFFCURVE",
"374 594 CURVE SMOOTH",
"374 509 OFFCURVE",
"401 431 OFFCURVE",
"450 375 CURVE SMOOTH",
"499 318 OFFCURVE",
"572 283 OFFCURVE",
"661 283 CURVE SMOOTH",
"750 283 OFFCURVE",
"846 321 OFFCURVE",
"909 386 CURVE",
"921 350 OFFCURVE",
"945 323 OFFCURVE",
"977 307 CURVE",
"1008 290 OFFCURVE",
"1044 281 OFFCURVE",
"1080 281 CURVE SMOOTH",
"1151 281 OFFCURVE",
"1227 311 OFFCURVE",
"1296 363 CURVE SMOOTH",
"1365 414 OFFCURVE",
"1429 487 OFFCURVE",
"1475 575 CURVE SMOOTH",
"1521 662 OFFCURVE",
"1549 763 OFFCURVE",
"1549 871 CURVE SMOOTH",
"1549 1091 OFFCURVE",
"1470 1251 OFFCURVE",
"1348 1356 CURVE SMOOTH",
"1226 1461 OFFCURVE",
"1062 1512 OFFCURVE",
"891 1512 CURVE SMOOTH",
"758 1512 OFFCURVE",
"621 1481 OFFCURVE",
"498 1422 CURVE SMOOTH",
"374 1362 OFFCURVE",
"264 1275 OFFCURVE",
"185 1160 CURVE SMOOTH",
"106 1045 OFFCURVE",
"58 905 OFFCURVE",
"58 740 CURVE SMOOTH",
"58 500 OFFCURVE",
"139 309 OFFCURVE",
"273 178 CURVE SMOOTH",
"407 46 OFFCURVE",
"594 -25 OFFCURVE",
"807 -25 CURVE SMOOTH",
"911 -25 OFFCURVE",
"1019 -8 OFFCURVE",
"1130 26 CURVE SMOOTH",
"1154 33 OFFCURVE",
"1165 54 OFFCURVE",
"1165 75 CURVE SMOOTH",
"1165 102 OFFCURVE",
"1148 127 OFFCURVE",
"1113 127 CURVE SMOOTH",
"1104 127 OFFCURVE",
"1095 126 OFFCURVE",
"1087 123 CURVE"
);
}
);
};
layerId = "B7B71B2F-D3C2-46AB-9878-0EE3FC7FFFF4";
paths = (
{
closed = 1;
nodes = (
"538 663 OFFCURVE",
"553 733 OFFCURVE",
"581 801 CURVE SMOOTH",
"608 868 OFFCURVE",
"649 932 OFFCURVE",
"699 980 CURVE SMOOTH",
"749 1027 OFFCURVE",
"809 1057 OFFCURVE",
"877 1057 CURVE SMOOTH",
"913 1057 OFFCURVE",
"956 1042 OFFCURVE",
"989 1015 CURVE SMOOTH",
"1021 987 OFFCURVE",
"1046 947 OFFCURVE",
"1046 898 CURVE SMOOTH",
"1046 881 OFFCURVE",
"1043 863 OFFCURVE",
"1037 844 CURVE SMOOTH",
"956 596 LINE SMOOTH",
"936 536 OFFCURVE",
"896 491 OFFCURVE",
"848 460 CURVE SMOOTH",
"800 429 OFFCURVE",
"744 414 OFFCURVE",
"695 414 CURVE SMOOTH",
"646 414 OFFCURVE",
"607 437 OFFCURVE",
"580 472 CURVE SMOOTH",
"552 507 OFFCURVE",
"538 555 OFFCURVE",
"538 604 CURVE SMOOTH"
);
},
{
closed = 1;
nodes = (
"998 96 OFFCURVE",
"910 82 OFFCURVE",
"825 82 CURVE SMOOTH",
"654 82 OFFCURVE",
"496 136 OFFCURVE",
"381 244 CURVE SMOOTH",
"265 352 OFFCURVE",
"192 513 OFFCURVE",
"192 728 CURVE SMOOTH",
"192 871 OFFCURVE",
"233 992 OFFCURVE",
"300 1092 CURVE SMOOTH",
"367 1191 OFFCURVE",
"460 1268 OFFCURVE",
"564 1320 CURVE SMOOTH",
"668 1372 OFFCURVE",
"783 1399 OFFCURVE",
"894 1399 CURVE SMOOTH",
"1031 1399 OFFCURVE",
"1162 1358 OFFCURVE",
"1259 1271 CURVE SMOOTH",
"1355 1184 OFFCURVE",
"1417 1051 OFFCURVE",
"1417 870 CURVE SMOOTH",
"1417 759 OFFCURVE",
"1379 642 OFFCURVE",
"1323 551 CURVE SMOOTH",
"1266 460 OFFCURVE",
"1189 398 OFFCURVE",
"1110 398 CURVE SMOOTH",
"1067 398 OFFCURVE",
"1054 417 OFFCURVE",
"1054 449 CURVE SMOOTH",
"1054 477 OFFCURVE",
"1063 515 OFFCURVE",
"1078 558 CURVE SMOOTH",
"1242 1063 LINE",
"1245 1071 OFFCURVE",
"1246 1079 OFFCURVE",
"1246 1088 CURVE SMOOTH",
"1246 1124 OFFCURVE",
"1216 1143 OFFCURVE",
"1184 1143 CURVE SMOOTH",
"1153 1143 OFFCURVE",
"1120 1126 OFFCURVE",
"1109 1091 CURVE SMOOTH",
"1100 1061 LINE",
"1079 1105 OFFCURVE",
"1045 1138 OFFCURVE",
"1005 1160 CURVE SMOOTH",
"964 1182 OFFCURVE",
"918 1193 OFFCURVE",
"870 1193 CURVE SMOOTH",
"771 1193 OFFCURVE",
"684 1157 OFFCURVE",
"610 1098 CURVE SMOOTH",
"536 1039 OFFCURVE",
"477 958 OFFCURVE",
"437 870 CURVE SMOOTH",
"396 781 OFFCURVE",
"374 685 OFFCURVE",
"374 594 CURVE SMOOTH",
"374 509 OFFCURVE",
"401 431 OFFCURVE",
"450 375 CURVE SMOOTH",
"499 318 OFFCURVE",
"572 283 OFFCURVE",
"661 283 CURVE SMOOTH",
"750 283 OFFCURVE",
"846 321 OFFCURVE",
"909 386 CURVE",
"921 350 OFFCURVE",
"945 323 OFFCURVE",
"977 307 CURVE",
"1008 290 OFFCURVE",
"1044 281 OFFCURVE",
"1080 281 CURVE SMOOTH",
"1151 281 OFFCURVE",
"1227 311 OFFCURVE",
"1296 363 CURVE SMOOTH",
"1365 414 OFFCURVE",
"1429 487 OFFCURVE",
"1475 575 CURVE SMOOTH",
"1521 662 OFFCURVE",
"1549 763 OFFCURVE",
"1549 871 CURVE SMOOTH",
"1549 1091 OFFCURVE",
"1470 1251 OFFCURVE",
"1348 1356 CURVE SMOOTH",
"1226 1461 OFFCURVE",
"1062 1512 OFFCURVE",
"891 1512 CURVE SMOOTH",
"758 1512 OFFCURVE",
"621 1481 OFFCURVE",
"498 1422 CURVE SMOOTH",
"374 1362 OFFCURVE",
"264 1275 OFFCURVE",
"185 1160 CURVE SMOOTH",
"106 1045 OFFCURVE",
"58 905 OFFCURVE",
"58 740 CURVE SMOOTH",
"58 500 OFFCURVE",
"139 309 OFFCURVE",
"273 178 CURVE SMOOTH",
"407 46 OFFCURVE",
"594 -25 OFFCURVE",
"807 -25 CURVE SMOOTH",
"911 -25 OFFCURVE",
"1019 -8 OFFCURVE",
"1130 26 CURVE SMOOTH",
"1154 33 OFFCURVE",
"1165 54 OFFCURVE",
"1165 75 CURVE SMOOTH",
"1165 102 OFFCURVE",
"1148 127 OFFCURVE",
"1113 127 CURVE SMOOTH",
"1104 127 OFFCURVE",
"1095 126 OFFCURVE",
"1087 123 CURVE"
);
}
);
width = 1638;
},
{
associatedMasterId = "B7B71B2F-D3C2-46AB-9878-0EE3FC7FFFF4";
layerId = "4C0A4C52-A9D9-4A1D-B81B-0EDA934B9EB8";
name = "Light Backup";
paths = (
{
closed = 1;
nodes = (
"1229 1026 OFFCURVE",
"1201 1067 OFFCURVE",
"1159 1096 CURVE SMOOTH",
"1117 1125 OFFCURVE",
"1062 1141 OFFCURVE",
"1001 1141 CURVE SMOOTH",
"920 1141 OFFCURVE",
"840 1113 OFFCURVE",
"769 1065 CURVE SMOOTH",
"698 1017 OFFCURVE",
"636 950 OFFCURVE",
"593 872 CURVE SMOOTH",
"549 794 OFFCURVE",
"523 704 OFFCURVE",
"523 612 CURVE SMOOTH",
"523 497 OFFCURVE",
"560 412 OFFCURVE",
"617 354 CURVE SMOOTH",
"673 296 OFFCURVE",
"749 266 OFFCURVE",
"825 266 CURVE SMOOTH",
"877 266 OFFCURVE",
"931 280 OFFCURVE",
"980 308 CURVE SMOOTH",
"1029 336 OFFCURVE",
"1072 378 OFFCURVE",
"1107 434 CURVE",
"1119 310 OFFCURVE",
"1199 234 OFFCURVE",
"1315 234 CURVE SMOOTH",
"1430 234 OFFCURVE",
"1547 296 OFFCURVE",
"1635 399 CURVE SMOOTH",
"1723 502 OFFCURVE",
"1782 643 OFFCURVE",
"1782 803 CURVE SMOOTH",
"1782 1003 OFFCURVE",
"1695 1174 OFFCURVE",
"1553 1297 CURVE SMOOTH",
"1411 1420 OFFCURVE",
"1212 1492 OFFCURVE",
"992 1492 CURVE SMOOTH",
"833 1492 OFFCURVE",
"687 1452 OFFCURVE",
"561 1384 CURVE SMOOTH",
"435 1315 OFFCURVE",
"330 1215 OFFCURVE",
"257 1096 CURVE SMOOTH",
"184 976 OFFCURVE",
"142 835 OFFCURVE",
"142 683 CURVE SMOOTH",
"142 455 OFFCURVE",
"231 257 OFFCURVE",
"380 115 CURVE SMOOTH",
"529 -27 OFFCURVE",
"740 -112 OFFCURVE",
"983 -112 CURVE SMOOTH",
"1103 -112 OFFCURVE",
"1220 -90 OFFCURVE",
"1322 -52 CURVE SMOOTH",
"1424 -14 OFFCURVE",
"1512 39 OFFCURVE",
"1576 106 CURVE",
"1526 152 LINE",
"1393 36 OFFCURVE",
"1204 -25 OFFCURVE",
"991 -25 CURVE SMOOTH",
"843 -25 OFFCURVE",
"712 9 OFFCURVE",
"602 69 CURVE SMOOTH",
"492 129 OFFCURVE",
"404 215 OFFCURVE",
"344 320 CURVE SMOOTH",
"283 424 OFFCURVE",
"250 547 OFFCURVE",
"250 682 CURVE SMOOTH",
"250 814 OFFCURVE",
"284 939 OFFCURVE",
"347 1047 CURVE SMOOTH",
"410 1154 OFFCURVE",
"499 1244 OFFCURVE",
"608 1308 CURVE SMOOTH",
"716 1371 OFFCURVE",
"845 1407 OFFCURVE",
"985 1407 CURVE SMOOTH",
"1188 1407 OFFCURVE",
"1361 1345 OFFCURVE",
"1483 1239 CURVE SMOOTH",
"1605 1133 OFFCURVE",
"1675 982 OFFCURVE",
"1675 807 CURVE SMOOTH",
"1675 683 OFFCURVE",
"1635 562 OFFCURVE",
"1574 473 CURVE SMOOTH",
"1513 384 OFFCURVE",
"1430 325 OFFCURVE",
"1342 325 CURVE SMOOTH",
"1254 325 OFFCURVE",
"1229 367 OFFCURVE",
"1229 436 CURVE SMOOTH",
"1229 472 OFFCURVE",
"1238 522 OFFCURVE",
"1255 593 CURVE SMOOTH",
"1271 664 OFFCURVE",
"1295 754 OFFCURVE",
"1326 869 CURVE SMOOTH",
"1393 1123 LINE",
"1275 1114 LINE",
"1242 975 LINE",
"1240 975 LINE"
);
},
{
closed = 1;
nodes = (
"636 690 OFFCURVE",
"674 804 OFFCURVE",
"738 893 CURVE SMOOTH",
"802 981 OFFCURVE",
"892 1044 OFFCURVE",
"996 1044 CURVE SMOOTH",
"1068 1044 OFFCURVE",
"1116 1022 OFFCURVE",
"1147 985 CURVE SMOOTH",
"1178 948 OFFCURVE",
"1191 894 OFFCURVE",
"1191 833 CURVE SMOOTH",
"1191 716 OFFCURVE",
"1154 597 OFFCURVE",
"1092 509 CURVE SMOOTH",
"1030 420 OFFCURVE",
"942 360 OFFCURVE",
"845 360 CURVE SMOOTH",
"778 360 OFFCURVE",
"727 383 OFFCURVE",
"691 423 CURVE SMOOTH",
"655 463 OFFCURVE",
"636 519 OFFCURVE",
"636 586 CURVE SMOOTH"
);
}
);
width = 1895;
},
{
associatedMasterId = "B7B71B2F-D3C2-46AB-9878-0EE3FC7FFFF4";
layerId = "14713F14-1CA6-457F-BEE1-3124B2889DBE";
name = "Light Backup_Reg";
paths = (
{
closed = 1;
nodes = (
"1167 1094 OFFCURVE",
"1082 1138 OFFCURVE",
"978 1138 CURVE SMOOTH",
"895 1138 OFFCURVE",
"816 1110 OFFCURVE",
"745 1062 CURVE SMOOTH",
"673 1014 OFFCURVE",
"612 947 OFFCURVE",
"568 869 CURVE SMOOTH",
"524 791 OFFCURVE",
"498 701 OFFCURVE",
"498 610 CURVE SMOOTH",
"498 494 OFFCURVE",
"537 406 OFFCURVE",
"596 347 CURVE SMOOTH",
"655 287 OFFCURVE",
"734 257 OFFCURVE",
"814 257 CURVE SMOOTH",
"910 257 OFFCURVE",
"1002 299 OFFCURVE",
"1071 384 CURVE",
"1091 271 OFFCURVE",
"1171 225 OFFCURVE",
"1288 225 CURVE SMOOTH",
"1404 225 OFFCURVE",
"1523 288 OFFCURVE",
"1612 390 CURVE SMOOTH",
"1700 492 OFFCURVE",
"1760 632 OFFCURVE",
"1760 791 CURVE SMOOTH",
"1760 924 OFFCURVE",
"1721 1045 OFFCURVE",
"1654 1146 CURVE SMOOTH",
"1586 1247 OFFCURVE",
"1488 1330 OFFCURVE",
"1372 1387 CURVE SMOOTH",
"1255 1444 OFFCURVE",
"1118 1476 OFFCURVE",
"971 1476 CURVE SMOOTH",
"814 1476 OFFCURVE",
"669 1437 OFFCURVE",
"545 1369 CURVE SMOOTH",
"420 1301 OFFCURVE",
"316 1204 OFFCURVE",
"244 1086 CURVE SMOOTH",
"171 968 OFFCURVE",
"130 828 OFFCURVE",
"130 679 CURVE SMOOTH",
"130 454 OFFCURVE",
"218 257 OFFCURVE",
"367 117 CURVE SMOOTH",
"515 -24 OFFCURVE",
"724 -109 OFFCURVE",
"967 -109 CURVE SMOOTH",
"1087 -109 OFFCURVE",
"1203 -87 OFFCURVE",
"1306 -47 CURVE SMOOTH",
"1409 -7 OFFCURVE",
"1499 50 OFFCURVE",
"1566 122 CURVE",
"1486 192 LINE",
"1350 75 OFFCURVE",
"1168 12 OFFCURVE",
"972 12 CURVE SMOOTH",
"764 12 OFFCURVE",
"592 83 OFFCURVE",
"471 203 CURVE SMOOTH",
"350 322 OFFCURVE",
"281 488 OFFCURVE",
"281 677 CURVE SMOOTH",
"281 864 OFFCURVE",
"354 1034 OFFCURVE",
"476 1158 CURVE SMOOTH",
"598 1281 OFFCURVE",
"769 1357 OFFCURVE",
"966 1357 CURVE SMOOTH",
"1154 1357 OFFCURVE",
"1315 1299 OFFCURVE",
"1428 1200 CURVE SMOOTH",
"1540 1100 OFFCURVE",
"1607 960 OFFCURVE",
"1607 796 CURVE SMOOTH",
"1607 680 OFFCURVE",
"1572 568 OFFCURVE",
"1517 486 CURVE SMOOTH",
"1462 404 OFFCURVE",
"1388 350 OFFCURVE",
"1309 350 CURVE SMOOTH",
"1248 350 OFFCURVE",
"1226 385 OFFCURVE",
"1226 434 CURVE",
"1225 463 OFFCURVE",
"1233 512 OFFCURVE",
"1250 581 CURVE SMOOTH",
"1266 650 OFFCURVE",
"1287 742 OFFCURVE",
"1314 857 CURVE SMOOTH",
"1371 1107 LINE",
"1225 1107 LINE",
"1207 1022 LINE"
);
},
{
closed = 1;
nodes = (
"655 678 OFFCURVE",
"689 783 OFFCURVE",
"746 866 CURVE SMOOTH",
"803 949 OFFCURVE",
"885 1007 OFFCURVE",
"980 1007 CURVE SMOOTH",
"1039 1007 OFFCURVE",
"1079 989 OFFCURVE",
"1105 957 CURVE SMOOTH",
"1131 924 OFFCURVE",
"1141 877 OFFCURVE",
"1141 821 CURVE SMOOTH",
"1141 712 OFFCURVE",
"1108 604 OFFCURVE",
"1053 522 CURVE SMOOTH",
"997 440 OFFCURVE",
"919 385 OFFCURVE",
"831 385 CURVE SMOOTH",
"775 385 OFFCURVE",
"731 405 OFFCURVE",
"701 440 CURVE SMOOTH",
"671 475 OFFCURVE",
"655 523 OFFCURVE",
"655 582 CURVE SMOOTH"
);
}
);
width = 1895;
}
);
note = at;
unicode = 0040;
},
{
glyphname = A;
lastChange = "2016-08-29 16:03:12 +0000";
layers = (
{
background = {
paths = (
{
closed = 1;
nodes = (
"832 1337 OFFCURVE",
"809 1375 OFFCURVE",
"782 1398 CURVE SMOOTH",
"755 1421 OFFCURVE",
"727 1426 OFFCURVE",
"694 1426 CURVE SMOOTH",
"661 1426 OFFCURVE",
"633 1421 OFFCURVE",
"607 1399 CURVE SMOOTH",
"581 1377 OFFCURVE",
"555 1337 OFFCURVE",
"530 1270 CURVE SMOOTH",
"54 108 LINE",
"50 97 OFFCURVE",
"48 87 OFFCURVE",
"48 78 CURVE SMOOTH",
"48 55 OFFCURVE",
"60 36 OFFCURVE",
"77 22 CURVE SMOOTH",
"93 8 OFFCURVE",
"115 0 OFFCURVE",
"138 0 CURVE SMOOTH",
"169 0 OFFCURVE",
"198 14 OFFCURVE",
"211 53 CURVE",
"338 373 LINE",
"1045 373 LINE",
"1173 53 LINE",
"1185 16 OFFCURVE",
"1216 0 OFFCURVE",
"1248 0 CURVE SMOOTH",
"1271 0 OFFCURVE",
"1295 8 OFFCURVE",
"1313 22 CURVE SMOOTH",
"1331 36 OFFCURVE",
"1342 56 OFFCURVE",
"1342 80 CURVE SMOOTH",
"1342 87 OFFCURVE",
"1340 97 OFFCURVE",
"1337 108 CURVE",
"859 1270 LINE SMOOTH"
);
},
{
closed = 1;
nodes = (
"995 508 LINE",
"388 508 LINE",
"691 1279 LINE",
"693 1279 LINE"
);
}
);
};
layerId = "B7B71B2F-D3C2-46AB-9878-0EE3FC7FFFF4";
paths = (
{
closed = 1;
nodes = (
"832 1337 OFFCURVE",
"809 1375 OFFCURVE",
"782 1398 CURVE SMOOTH",
"755 1421 OFFCURVE",
"727 1426 OFFCURVE",
"694 1426 CURVE SMOOTH",
"661 1426 OFFCURVE",
"633 1421 OFFCURVE",
"607 1399 CURVE SMOOTH",
"581 1377 OFFCURVE",
"555 1337 OFFCURVE",
"530 1270 CURVE SMOOTH",
"54 108 LINE",
"50 97 OFFCURVE",
"48 87 OFFCURVE",
"48 78 CURVE SMOOTH",
"48 55 OFFCURVE",
"60 36 OFFCURVE",
"77 22 CURVE SMOOTH",
"93 8 OFFCURVE",
"115 0 OFFCURVE",
"138 0 CURVE SMOOTH",
"169 0 OFFCURVE",
"198 14 OFFCURVE",
"211 53 CURVE",
"338 373 LINE",
"1045 373 LINE",
"1173 53 LINE",
"1185 16 OFFCURVE",
"1216 0 OFFCURVE",
"1248 0 CURVE SMOOTH",
"1271 0 OFFCURVE",
"1295 8 OFFCURVE",
"1313 22 CURVE SMOOTH",
"1331 36 OFFCURVE",
"1342 56 OFFCURVE",
"1342 80 CURVE SMOOTH",
"1342 87 OFFCURVE",
"1340 97 OFFCURVE",
"1337 108 CURVE",
"859 1270 LINE SMOOTH"
);
},
{
closed = 1;
nodes = (
"995 508 LINE",
"388 508 LINE",
"691 1279 LINE",
"693 1279 LINE"
);
}
);
width = 1392;
},
{
associatedMasterId = "B7B71B2F-D3C2-46AB-9878-0EE3FC7FFFF4";
layerId = "4C0A4C52-A9D9-4A1D-B81B-0EDA934B9EB8";
name = "Light Backup";
paths = (
{
closed = 1;
nodes = (
"1081 426 LINE",
"1260 0 LINE",
"1401 0 LINE",
"798 1456 LINE",
"647 1456 LINE",
"38 0 LINE",
"177 0 LINE",
"347 426 LINE"
);
},
{
closed = 1;
nodes = (
"722 1389 LINE",
"801 1168 LINE",
"1047 520 LINE",
"382 520 LINE",
"645 1168 LINE"
);
}
);
width = 1425;
visible = 1;
},
{
associatedMasterId = "B7B71B2F-D3C2-46AB-9878-0EE3FC7FFFF4";
layerId = "14713F14-1CA6-457F-BEE1-3124B2889DBE";
name = "Light Backup_Reg";
paths = (
{
closed = 1;
nodes = (
"1053 397 LINE",
"1216 0 LINE",
"1407 0 LINE",
"802 1456 LINE",
"617 1456 LINE",
"13 0 LINE",
"199 0 LINE",
"355 397 LINE"
);
},
{
closed = 1;
nodes = (
"658 1158 OFFCURVE",
"663 1171 OFFCURVE",
"670 1188 CURVE SMOOTH",
"682 1220 OFFCURVE",
"694 1255 OFFCURVE",
"707 1298 CURVE",
"713 1279 OFFCURVE",
"719 1261 OFFCURVE",
"726 1243 CURVE SMOOTH",
"737 1212 OFFCURVE",
"749 1175 OFFCURVE",
"760 1150 CURVE",
"994 545 LINE",
"410 545 LINE",
"655 1149 LINE"
);
}
);
width = 1425;
}
);
note = A;
unicode = 0041;
},
{
glyphname = B;
lastChange = "2016-08-29 16:03:12 +0000";
layers = (
{
background = {
paths = (
{
closed = 1;
nodes = (
"195 61 OFFCURVE",
"205 40 OFFCURVE",
"221 25 CURVE SMOOTH",
"237 9 OFFCURVE",
"259 0 OFFCURVE",
"283 0 CURVE SMOOTH",
"761 0 LINE SMOOTH",
"925 0 OFFCURVE",
"1052 49 OFFCURVE",
"1130 121 CURVE SMOOTH",
"1208 193 OFFCURVE",
"1237 288 OFFCURVE",
"1237 383 CURVE SMOOTH",
"1237 483 OFFCURVE",
"1204 565 OFFCURVE",
"1146 626 CURVE SMOOTH",
"1088 686 OFFCURVE",
"1003 726 OFFCURVE",
"903 742 CURVE",
"903 746 LINE",
"982 763 OFFCURVE",
"1051 805 OFFCURVE",
"1100 862 CURVE SMOOTH",
"1148 918 OFFCURVE",
"1178 989 OFFCURVE",
"1178 1068 CURVE SMOOTH",
"1178 1177 OFFCURVE",
"1131 1267 OFFCURVE",
"1055 1329 CURVE SMOOTH",
"979 1391 OFFCURVE",
"869 1426 OFFCURVE",
"742 1426 CURVE SMOOTH",
"283 1426 LINE SMOOTH",
"259 1426 OFFCURVE",
"237 1417 OFFCURVE",
"221 1402 CURVE SMOOTH",
"205 1386 OFFCURVE",
"195 1365 OFFCURVE",
"195 1341 CURVE SMOOTH",
"195 85 LINE SMOOTH"
);
},
{
closed = 1;
nodes = (
"599 672 LINE SMOOTH",
"731 672 OFFCURVE",
"844 663 OFFCURVE",
"924 624 CURVE SMOOTH",
"1004 585 OFFCURVE",
"1052 518 OFFCURVE",
"1052 405 CURVE SMOOTH",
"1052 300 OFFCURVE",
"1017 233 OFFCURVE",
"953 193 CURVE SMOOTH",
"888 152 OFFCURVE",
"792 138 OFFCURVE",
"671 138 CURVE SMOOTH",
"370 138 LINE",
"370 672 LINE"
);
},
{
closed = 1;
nodes = (
"745 1288 OFFCURVE",
"828 1277 OFFCURVE",
"891 1242 CURVE SMOOTH",
"954 1206 OFFCURVE",
"995 1146 OFFCURVE",
"995 1049 CURVE SMOOTH",
"995 957 OFFCURVE",
"955 896 OFFCURVE",
"894 857 CURVE SMOOTH",
"833 817 OFFCURVE",
"750 801 OFFCURVE",
"666 801 CURVE SMOOTH",
"370 801 LINE",
"370 1288 LINE",
"661 1288 LINE SMOOTH"
);
}
);
};
layerId = "B7B71B2F-D3C2-46AB-9878-0EE3FC7FFFF4";
paths = (
{
closed = 1;
nodes = (
"195 61 OFFCURVE",
"205 40 OFFCURVE",
"221 25 CURVE SMOOTH",
"237 9 OFFCURVE",
"259 0 OFFCURVE",
"283 0 CURVE SMOOTH",
"761 0 LINE SMOOTH",
"925 0 OFFCURVE",
"1052 49 OFFCURVE",
"1130 121 CURVE SMOOTH",
"1208 193 OFFCURVE",
"1237 288 OFFCURVE",
"1237 383 CURVE SMOOTH",
"1237 483 OFFCURVE",
"1204 565 OFFCURVE",
"1146 626 CURVE SMOOTH",
"1088 686 OFFCURVE",
"1003 726 OFFCURVE",
"903 742 CURVE",
"903 746 LINE",
"982 763 OFFCURVE",
"1051 805 OFFCURVE",
"1100 862 CURVE SMOOTH",
"1148 918 OFFCURVE",
"1178 989 OFFCURVE",
"1178 1068 CURVE SMOOTH",
"1178 1177 OFFCURVE",
"1131 1267 OFFCURVE",
"1055 1329 CURVE SMOOTH",
"979 1391 OFFCURVE",
"869 1426 OFFCURVE",
"742 1426 CURVE SMOOTH",
"283 1426 LINE SMOOTH",
"259 1426 OFFCURVE",
"237 1417 OFFCURVE",
"221 1402 CURVE SMOOTH",
"205 1386 OFFCURVE",
"195 1365 OFFCURVE",
"195 1341 CURVE SMOOTH",
"195 85 LINE SMOOTH"
);
},
{
closed = 1;
nodes = (
"599 672 LINE SMOOTH",
"731 672 OFFCURVE",
"844 663 OFFCURVE",
"924 624 CURVE SMOOTH",
"1004 585 OFFCURVE",
"1052 518 OFFCURVE",
"1052 405 CURVE SMOOTH",
"1052 300 OFFCURVE",
"1017 233 OFFCURVE",
"953 193 CURVE SMOOTH",
"888 152 OFFCURVE",
"792 138 OFFCURVE",
"671 138 CURVE SMOOTH",
"370 138 LINE",
"370 672 LINE"
);
},
{
closed = 1;
nodes = (
"745 1288 OFFCURVE",
"828 1277 OFFCURVE",
"891 1242 CURVE SMOOTH",
"954 1206 OFFCURVE",
"995 1146 OFFCURVE",
"995 1049 CURVE SMOOTH",
"995 957 OFFCURVE",
"955 896 OFFCURVE",
"894 857 CURVE SMOOTH",
"833 817 OFFCURVE",
"750 801 OFFCURVE",
"666 801 CURVE SMOOTH",
"370 801 LINE",
"370 1288 LINE",
"661 1288 LINE SMOOTH"
);
}
);
width = 1385;
},
{
associatedMasterId = "B7B71B2F-D3C2-46AB-9878-0EE3FC7FFFF4";
layerId = "4C0A4C52-A9D9-4A1D-B81B-0EDA934B9EB8";
name = "Light Backup";
paths = (
{
closed = 1;
nodes = (
"896 0 OFFCURVE",
"1014 47 OFFCURVE",
"1093 120 CURVE SMOOTH",
"1172 192 OFFCURVE",
"1212 292 OFFCURVE",
"1212 397 CURVE SMOOTH",
"1212 509 OFFCURVE",
"1171 598 OFFCURVE",
"1102 661 CURVE SMOOTH",
"1033 724 OFFCURVE",
"932 759 OFFCURVE",
"815 763 CURVE",
"907 780 OFFCURVE",
"989 823 OFFCURVE",
"1048 884 CURVE SMOOTH",
"1107 944 OFFCURVE",
"1143 1023 OFFCURVE",
"1143 1115 CURVE SMOOTH",
"1143 1228 OFFCURVE",
"1100 1304 OFFCURVE",
"1033 1355 CURVE SMOOTH",
"966 1406 OFFCURVE",
"875 1431 OFFCURVE",
"780 1444 CURVE SMOOTH",
"685 1456 OFFCURVE",
"585 1456 OFFCURVE",
"501 1456 CURVE SMOOTH",
"224 1456 LINE",
"224 0 LINE",
"739 0 LINE SMOOTH"
);
},
{
closed = 1;
nodes = (
"759 699 OFFCURVE",
"876 682 OFFCURVE",
"956 635 CURVE SMOOTH",
"1035 588 OFFCURVE",
"1077 513 OFFCURVE",
"1077 398 CURVE SMOOTH",
"1077 203 OFFCURVE",
"929 114 OFFCURVE",
"670 114 CURVE SMOOTH",
"354 114 LINE",
"354 699 LINE",
"607 699 LINE SMOOTH"
);
},
{
closed = 1;
nodes = (
"591 1342 LINE SMOOTH",
"708 1342 OFFCURVE",
"812 1332 OFFCURVE",
"887 1295 CURVE SMOOTH",
"962 1258 OFFCURVE",
"1008 1193 OFFCURVE",
"1008 1085 CURVE SMOOTH",
"1008 977 OFFCURVE",
"954 908 OFFCURVE",
"873 867 CURVE SMOOTH",
"792 826 OFFCURVE",
"684 812 OFFCURVE",
"579 812 CURVE SMOOTH",
"356 812 LINE",
"356 1342 LINE"
);
}
);
width = 1352;
},
{
associatedMasterId = "B7B71B2F-D3C2-46AB-9878-0EE3FC7FFFF4";
layerId = "14713F14-1CA6-457F-BEE1-3124B2889DBE";
name = "Light Backup_Reg";
paths = (
{
closed = 1;
nodes = (
"889 0 OFFCURVE",
"1010 48 OFFCURVE",
"1091 122 CURVE SMOOTH",
"1172 196 OFFCURVE",
"1213 296 OFFCURVE",
"1213 403 CURVE SMOOTH",
"1213 503 OFFCURVE",
"1180 584 OFFCURVE",
"1123 646 CURVE SMOOTH",
"1066 708 OFFCURVE",
"984 748 OFFCURVE",
"888 768 CURVE",
"887 768 OFFCURVE",
"885 768 OFFCURVE",
"884 769 CURVE",
"882 769 OFFCURVE",
"880 769 OFFCURVE",
"879 769 CURVE",
"956 792 OFFCURVE",
"1023 836 OFFCURVE",
"1070 894 CURVE SMOOTH",
"1117 952 OFFCURVE",
"1144 1025 OFFCURVE",
"1144 1105 CURVE SMOOTH",
"1144 1198 OFFCURVE",
"1107 1278 OFFCURVE",
"1044 1336 CURVE SMOOTH",
"981 1394 OFFCURVE",
"893 1432 OFFCURVE",
"792 1444 CURVE SMOOTH",
"700 1455 OFFCURVE",
"600 1456 OFFCURVE",
"492 1456 CURVE SMOOTH",
"202 1456 LINE",
"202 0 LINE",
"729 0 LINE SMOOTH"
);
},
{
closed = 1;
nodes = (
"582 1308 LINE SMOOTH",
"690 1308 OFFCURVE",
"785 1299 OFFCURVE",
"853 1266 CURVE SMOOTH",
"921 1233 OFFCURVE",
"963 1174 OFFCURVE",
"963 1077 CURVE SMOOTH",
"963 978 OFFCURVE",
"914 916 OFFCURVE",
"840 879 CURVE SMOOTH",
"766 842 OFFCURVE",
"667 828 OFFCURVE",
"570 828 CURVE SMOOTH",
"374 828 LINE",
"374 1308 LINE"
);
},
{
closed = 1;
nodes = (
"740 680 OFFCURVE",
"847 665 OFFCURVE",
"920 623 CURVE SMOOTH",
"993 581 OFFCURVE",
"1031 511 OFFCURVE",
"1031 406 CURVE SMOOTH",
"1031 230 OFFCURVE",
"896 148 OFFCURVE",
"657 148 CURVE SMOOTH",
"374 148 LINE",
"374 680 LINE",
"600 680 LINE SMOOTH"
);
}
);
width = 1352;
visible = 1;
}
);
note = B;
unicode = 0042;
},
{
glyphname = C;
lastChange = "2016-08-29 16:03:12 +0000";
layers = (
{
background = {
paths = (
{
closed = 1;
nodes = (
"118 520 OFFCURVE",
"169 331 OFFCURVE",
"277 196 CURVE SMOOTH",
"384 61 OFFCURVE",
"546 -22 OFFCURVE",
"769 -22 CURVE SMOOTH",
"822 -22 OFFCURVE",
"890 -14 OFFCURVE",
"954 2 CURVE SMOOTH",
"1018 17 OFFCURVE",
"1081 39 OFFCURVE",
"1128 67 CURVE SMOOTH",
"1175 95 OFFCURVE",
"1205 128 OFFCURVE",
"1205 167 CURVE SMOOTH",
"1205 202 OFFCURVE",
"1180 232 OFFCURVE",
"1145 232 CURVE SMOOTH",
"1134 232 OFFCURVE",
"1121 230 OFFCURVE",
"1109 223 CURVE SMOOTH",
"1054 191 OFFCURVE",
"995 169 OFFCURVE",
"938 154 CURVE SMOOTH",
"881 138 OFFCURVE",
"825 131 OFFCURVE",
"780 131 CURVE SMOOTH",
"660 131 OFFCURVE",
"569 165 OFFCURVE",
"499 221 CURVE SMOOTH",
"429 276 OFFCURVE",
"381 353 OFFCURVE",
"350 441 CURVE SMOOTH",
"319 528 OFFCURVE",
"307 625 OFFCURVE",
"307 706 CURVE SMOOTH",
"307 790 OFFCURVE",
"319 886 OFFCURVE",
"350 974 CURVE SMOOTH",
"381 1061 OFFCURVE",
"429 1138 OFFCURVE",
"499 1194 CURVE SMOOTH",
"569 1249 OFFCURVE",
"660 1283 OFFCURVE",
"780 1283 CURVE SMOOTH",
"868 1283 OFFCURVE",
"979 1259 OFFCURVE",
"1084 1220 CURVE",
"1091 1217 OFFCURVE",
"1099 1216 OFFCURVE",
"1107 1216 CURVE SMOOTH",
"1146 1216 OFFCURVE",
"1170 1251 OFFCURVE",
"1170 1288 CURVE SMOOTH",
"1170 1315 OFFCURVE",
"1157 1344 OFFCURVE",
"1126 1359 CURVE SMOOTH",
"1023 1406 OFFCURVE",
"903 1438 OFFCURVE",
"767 1438 CURVE SMOOTH",
"547 1438 OFFCURVE",
"385 1354 OFFCURVE",
"278 1219 CURVE SMOOTH",
"170 1083 OFFCURVE",
"118 893 OFFCURVE",
"118 704 CURVE SMOOTH"
);
}
);
};
layerId = "B7B71B2F-D3C2-46AB-9878-0EE3FC7FFFF4";
paths = (
{
closed = 1;
nodes = (
"118 520 OFFCURVE",
"169 331 OFFCURVE",
"277 196 CURVE SMOOTH",
"384 61 OFFCURVE",
"546 -22 OFFCURVE",
"769 -22 CURVE SMOOTH",
"822 -22 OFFCURVE",
"890 -14 OFFCURVE",
"954 2 CURVE SMOOTH",
"1018 17 OFFCURVE",
"1081 39 OFFCURVE",
"1128 67 CURVE SMOOTH",
"1175 95 OFFCURVE",
"1205 128 OFFCURVE",
"1205 167 CURVE SMOOTH",
"1205 202 OFFCURVE",
"1180 232 OFFCURVE",
"1145 232 CURVE SMOOTH",
"1134 232 OFFCURVE",
"1121 230 OFFCURVE",
"1109 223 CURVE SMOOTH",
"1054 191 OFFCURVE",
"995 169 OFFCURVE",
"938 154 CURVE SMOOTH",
"881 138 OFFCURVE",
"825 131 OFFCURVE",
"780 131 CURVE SMOOTH",
"660 131 OFFCURVE",
"569 165 OFFCURVE",
"499 221 CURVE SMOOTH",
"429 276 OFFCURVE",
"381 353 OFFCURVE",
"350 441 CURVE SMOOTH",
"319 528 OFFCURVE",
"307 625 OFFCURVE",
"307 706 CURVE SMOOTH",
"307 790 OFFCURVE",
"319 886 OFFCURVE",
"350 974 CURVE SMOOTH",
"381 1061 OFFCURVE",
"429 1138 OFFCURVE",
"499 1194 CURVE SMOOTH",
"569 1249 OFFCURVE",
"660 1283 OFFCURVE",
"780 1283 CURVE SMOOTH",
"868 1283 OFFCURVE",
"979 1259 OFFCURVE",
"1084 1220 CURVE",
"1091 1217 OFFCURVE",
"1099 1216 OFFCURVE",
"1107 1216 CURVE SMOOTH",
"1146 1216 OFFCURVE",
"1170 1251 OFFCURVE",
"1170 1288 CURVE SMOOTH",
"1170 1315 OFFCURVE",
"1157 1344 OFFCURVE",
"1126 1359 CURVE SMOOTH",
"1023 1406 OFFCURVE",
"903 1438 OFFCURVE",
"767 1438 CURVE SMOOTH",
"547 1438 OFFCURVE",
"385 1354 OFFCURVE",
"278 1219 CURVE SMOOTH",
"170 1083 OFFCURVE",
"118 893 OFFCURVE",
"118 704 CURVE SMOOTH"
);
}
);
width = 1385;
},
{
associatedMasterId = "B7B71B2F-D3C2-46AB-9878-0EE3FC7FFFF4";
layerId = "4C0A4C52-A9D9-4A1D-B81B-0EDA934B9EB8";
name = "Light Backup";
paths = (
{
closed = 1;
nodes = (
"1136 1441 OFFCURVE",
"1008 1483 OFFCURVE",
"832 1483 CURVE SMOOTH",
"612 1483 OFFCURVE",
"436 1394 OFFCURVE",
"315 1252 CURVE SMOOTH",
"194 1110 OFFCURVE",
"128 917 OFFCURVE",
"128 709 CURVE SMOOTH",
"128 506 OFFCURVE",
"187 324 OFFCURVE",
"299 192 CURVE SMOOTH",
"411 59 OFFCURVE",
"578 -23 OFFCURVE",
"794 -23 CURVE SMOOTH",
"1006 -23 OFFCURVE",
"1174 26 OFFCURVE",
"1289 118 CURVE",
"1247 215 LINE",
"1152 131 OFFCURVE",
"1003 91 OFFCURVE",
"826 91 CURVE SMOOTH",
"631 91 OFFCURVE",
"492 164 OFFCURVE",
"401 278 CURVE SMOOTH",
"309 392 OFFCURVE",
"267 546 OFFCURVE",
"267 711 CURVE SMOOTH",
"267 875 OFFCURVE",
"313 1039 OFFCURVE",
"409 1163 CURVE SMOOTH",
"505 1286 OFFCURVE",
"649 1368 OFFCURVE",
"848 1368 CURVE SMOOTH",
"997 1368 OFFCURVE",
"1116 1334 OFFCURVE",
"1204 1266 CURVE",
"1252 1341 LINE"
);
}
);
width = 1399;
},
{
associatedMasterId = "B7B71B2F-D3C2-46AB-9878-0EE3FC7FFFF4";
layerId = "14713F14-1CA6-457F-BEE1-3124B2889DBE";
name = "Light Backup_Reg";
paths = (
{
closed = 1;
nodes = (
"1134 1437 OFFCURVE",
"995 1483 OFFCURVE",
"814 1483 CURVE SMOOTH",
"666 1483 OFFCURVE",
"539 1443 OFFCURVE",
"435 1375 CURVE SMOOTH",
"330 1307 OFFCURVE",
"248 1210 OFFCURVE",
"193 1096 CURVE SMOOTH",
"137 982 OFFCURVE",
"108 850 OFFCURVE",
"108 713 CURVE SMOOTH",
"108 510 OFFCURVE",
"167 328 OFFCURVE",
"282 194 CURVE SMOOTH",
"397 60 OFFCURVE",
"565 -23 OFFCURVE",
"785 -23 CURVE SMOOTH",
"997 -23 OFFCURVE",
"1167 27 OFFCURVE",
"1291 127 CURVE",
"1233 268 LINE",
"1124 172 OFFCURVE",
"975 125 OFFCURVE",
"811 125 CURVE SMOOTH",
"632 125 OFFCURVE",
"502 193 OFFCURVE",
"417 301 CURVE SMOOTH",
"332 408 OFFCURVE",
"291 555 OFFCURVE",
"291 712 CURVE SMOOTH",
"291 815 OFFCURVE",
"310 919 OFFCURVE",
"350 1011 CURVE SMOOTH",
"389 1103 OFFCURVE",
"448 1184 OFFCURVE",
"529 1242 CURVE SMOOTH",
"609 1300 OFFCURVE",
"710 1334 OFFCURVE",
"833 1334 CURVE SMOOTH",
"969 1334 OFFCURVE",
"1088 1296 OFFCURVE",
"1190 1219 CURVE",
"1255 1329 LINE"
);
}
);
width = 1399;
visible = 1;
}
);
note = C;
unicode = 0043;
},
{
glyphname = D;
lastChange = "2016-08-29 16:03:12 +0000";
layers = (
{
background = {
paths = (
{
closed = 1;
nodes = (
"852 0 OFFCURVE",
"1042 61 OFFCURVE",
"1172 181 CURVE SMOOTH",
"1302 300 OFFCURVE",
"1371 477 OFFCURVE",
"1371 710 CURVE SMOOTH",
"1371 943 OFFCURVE",
"1304 1123 OFFCURVE",
"1175 1244 CURVE SMOOTH",
"1046 1364 OFFCURVE",
"855 1426 OFFCURVE",
"607 1426 CURVE SMOOTH",
"267 1426 LINE SMOOTH",
"243 1426 OFFCURVE",
"220 1416 OFFCURVE",
"204 1401 CURVE SMOOTH",
"188 1385 OFFCURVE",
"178 1364 OFFCURVE",
"178 1340 CURVE SMOOTH",
"178 86 LINE SMOOTH",
"178 62 OFFCURVE",
"188 41 OFFCURVE",
"204 26 CURVE SMOOTH",
"220 10 OFFCURVE",
"243 0 OFFCURVE",
"267 0 CURVE SMOOTH",
"611 0 LINE SMOOTH"
);
},
{
closed = 1;
nodes = (
"582 1286 LINE SMOOTH",
"770 1286 OFFCURVE",
"920 1242 OFFCURVE",
"1023 1148 CURVE SMOOTH",
"1126 1054 OFFCURVE",
"1181 909 OFFCURVE",
"1181 712 CURVE SMOOTH",
"1181 537 OFFCURVE",
"1141 394 OFFCURVE",
"1053 295 CURVE SMOOTH",
"964 195 OFFCURVE",
"826 140 OFFCURVE",
"630 140 CURVE SMOOTH",
"355 140 LINE",
"355 1286 LINE"
);
}
);
};
layerId = "B7B71B2F-D3C2-46AB-9878-0EE3FC7FFFF4";
paths = (
{
closed = 1;
nodes = (
"852 0 OFFCURVE",
"1042 61 OFFCURVE",
"1172 181 CURVE SMOOTH",
"1302 300 OFFCURVE",
"1371 477 OFFCURVE",
"1371 710 CURVE SMOOTH",
"1371 943 OFFCURVE",
"1304 1123 OFFCURVE",
"1175 1244 CURVE SMOOTH",
"1046 1364 OFFCURVE",
"855 1426 OFFCURVE",
"607 1426 CURVE SMOOTH",
"267 1426 LINE SMOOTH",
"243 1426 OFFCURVE",
"220 1416 OFFCURVE",
"204 1401 CURVE SMOOTH",
"188 1385 OFFCURVE",
"178 1364 OFFCURVE",
"178 1340 CURVE SMOOTH",
"178 86 LINE SMOOTH",
"178 62 OFFCURVE",
"188 41 OFFCURVE",
"204 26 CURVE SMOOTH",
"220 10 OFFCURVE",
"243 0 OFFCURVE",
"267 0 CURVE SMOOTH",
"611 0 LINE SMOOTH"
);
},
{
closed = 1;
nodes = (
"582 1286 LINE SMOOTH",
"770 1286 OFFCURVE",
"920 1242 OFFCURVE",
"1023 1148 CURVE SMOOTH",
"1126 1054 OFFCURVE",
"1181 909 OFFCURVE",
"1181 712 CURVE SMOOTH",
"1181 537 OFFCURVE",
"1141 394 OFFCURVE",
"1053 295 CURVE SMOOTH",
"964 195 OFFCURVE",
"826 140 OFFCURVE",
"630 140 CURVE SMOOTH",
"355 140 LINE",
"355 1286 LINE"
);
}
);
width = 1494;
},
{
associatedMasterId = "B7B71B2F-D3C2-46AB-9878-0EE3FC7FFFF4";
layerId = "4C0A4C52-A9D9-4A1D-B81B-0EDA934B9EB8";
name = "Light Backup";
paths = (
{
closed = 1;
nodes = (
"616 0 LINE SMOOTH",
"872 0 OFFCURVE",
"1077 72 OFFCURVE",
"1218 198 CURVE SMOOTH",
"1358 324 OFFCURVE",
"1434 505 OFFCURVE",
"1434 725 CURVE SMOOTH",
"1434 925 OFFCURVE",
"1393 1074 OFFCURVE",
"1318 1182 CURVE SMOOTH",
"1242 1290 OFFCURVE",
"1133 1359 OFFCURVE",
"997 1400 CURVE SMOOTH",
"861 1441 OFFCURVE",
"699 1456 OFFCURVE",
"516 1456 CURVE SMOOTH",
"217 1456 LINE",
"211 0 LINE"
);
},
{
closed = 1;
nodes = (
"534 1342 LINE SMOOTH",
"782 1342 OFFCURVE",
"973 1302 OFFCURVE",
"1101 1204 CURVE SMOOTH",
"1229 1106 OFFCURVE",
"1295 950 OFFCURVE",
"1295 718 CURVE SMOOTH",
"1295 542 OFFCURVE",
"1243 391 OFFCURVE",
"1135 284 CURVE SMOOTH",
"1026 177 OFFCURVE",
"860 114 OFFCURVE",
"635 114 CURVE SMOOTH",
"345 114 LINE",
"345 1342 LINE"
);
}
);
width = 1546;
},
{
associatedMasterId = "B7B71B2F-D3C2-46AB-9878-0EE3FC7FFFF4";
layerId = "14713F14-1CA6-457F-BEE1-3124B2889DBE";
name = "Light Backup_Reg";
paths = (
{
closed = 1;
nodes = (
"610 0 LINE SMOOTH",
"867 0 OFFCURVE",
"1073 71 OFFCURVE",
"1214 197 CURVE SMOOTH",
"1354 323 OFFCURVE",
"1430 503 OFFCURVE",
"1430 724 CURVE SMOOTH",
"1430 912 OFFCURVE",
"1386 1057 OFFCURVE",
"1307 1166 CURVE SMOOTH",
"1228 1274 OFFCURVE",
"1115 1347 OFFCURVE",
"979 1392 CURVE SMOOTH",
"842 1437 OFFCURVE",
"681 1456 OFFCURVE",
"508 1456 CURVE SMOOTH",
"193 1456 LINE",
"193 0 LINE"
);
},
{
closed = 1;
nodes = (
"529 1308 LINE SMOOTH",
"765 1308 OFFCURVE",
"945 1271 OFFCURVE",
"1066 1179 CURVE SMOOTH",
"1186 1087 OFFCURVE",
"1248 940 OFFCURVE",
"1248 721 CURVE SMOOTH",
"1248 554 OFFCURVE",
"1199 410 OFFCURVE",
"1096 309 CURVE SMOOTH",
"993 208 OFFCURVE",
"838 148 OFFCURVE",
"626 148 CURVE SMOOTH",
"365 148 LINE",
"365 1308 LINE"
);
}
);
width = 1546;
}
);
note = D;
unicode = 0044;
},
{
glyphname = E;
lastChange = "2016-08-29 16:03:12 +0000";
layers = (
{
background = {
paths = (
{
closed = 1;
nodes = (
"1105 0 OFFCURVE",
"1129 36 OFFCURVE",
"1129 73 CURVE SMOOTH",
"1129 109 OFFCURVE",
"1105 145 OFFCURVE",
"1056 145 CURVE SMOOTH",
"374 145 LINE",
"374 662 LINE",
"996 662 LINE SMOOTH",
"1045 662 OFFCURVE",
"1070 698 OFFCURVE",
"1070 734 CURVE SMOOTH",
"1070 770 OFFCURVE",
"1047 806 OFFCURVE",
"996 806 CURVE SMOOTH",
"374 806 LINE",
"374 1281 LINE",
"1028 1281 LINE SMOOTH",
"1077 1281 OFFCURVE",
"1101 1317 OFFCURVE",
"1101 1354 CURVE SMOOTH",
"1101 1390 OFFCURVE",
"1077 1426 OFFCURVE",
"1028 1426 CURVE SMOOTH",
"282 1426 LINE SMOOTH",
"258 1426 OFFCURVE",
"238 1415 OFFCURVE",
"223 1399 CURVE SMOOTH",
"207 1383 OFFCURVE",
"199 1361 OFFCURVE",
"199 1340 CURVE SMOOTH",
"199 86 LINE SMOOTH",
"199 63 OFFCURVE",
"210 42 OFFCURVE",
"227 26 CURVE SMOOTH",
"243 10 OFFCURVE",
"264 0 OFFCURVE",
"287 0 CURVE SMOOTH",
"1056 0 LINE SMOOTH"
);
}
);
};
layerId = "B7B71B2F-D3C2-46AB-9878-0EE3FC7FFFF4";
paths = (
{
closed = 1;
nodes = (
"1105 0 OFFCURVE",
"1129 36 OFFCURVE",
"1129 73 CURVE SMOOTH",
"1129 109 OFFCURVE",
"1105 145 OFFCURVE",
"1056 145 CURVE SMOOTH",
"374 145 LINE",
"374 662 LINE",
"996 662 LINE SMOOTH",
"1045 662 OFFCURVE",
"1070 698 OFFCURVE",
"1070 734 CURVE SMOOTH",
"1070 770 OFFCURVE",
"1047 806 OFFCURVE",
"996 806 CURVE SMOOTH",
"374 806 LINE",
"374 1281 LINE",
"1028 1281 LINE SMOOTH",
"1077 1281 OFFCURVE",
"1101 1317 OFFCURVE",
"1101 1354 CURVE SMOOTH",
"1101 1390 OFFCURVE",
"1077 1426 OFFCURVE",
"1028 1426 CURVE SMOOTH",
"282 1426 LINE SMOOTH",
"258 1426 OFFCURVE",
"238 1415 OFFCURVE",
"223 1399 CURVE SMOOTH",
"207 1383 OFFCURVE",
"199 1361 OFFCURVE",
"199 1340 CURVE SMOOTH",
"199 86 LINE SMOOTH",
"199 63 OFFCURVE",
"210 42 OFFCURVE",
"227 26 CURVE SMOOTH",
"243 10 OFFCURVE",
"264 0 OFFCURVE",
"287 0 CURVE SMOOTH",
"1056 0 LINE SMOOTH"
);
}
);
width = 1255;
},
{
associatedMasterId = "B7B71B2F-D3C2-46AB-9878-0EE3FC7FFFF4";
layerId = "4C0A4C52-A9D9-4A1D-B81B-0EDA934B9EB8";
name = "Light Backup";
paths = (
{
closed = 1;
nodes = (
"356 691 LINE",
"1028 691 LINE",
"1028 804 LINE",
"358 804 LINE",
"358 1342 LINE",
"1068 1342 LINE",
"1068 1456 LINE",
"226 1456 LINE",
"226 0 LINE",
"1096 0 LINE",
"1096 114 LINE",
"356 114 LINE"
);
}
);
width = 1218;
},
{
associatedMasterId = "B7B71B2F-D3C2-46AB-9878-0EE3FC7FFFF4";
layerId = "14713F14-1CA6-457F-BEE1-3124B2889DBE";
name = "Light Backup_Reg";
paths = (
{
closed = 1;
nodes = (
"377 148 LINE",
"377 672 LINE",
"1034 672 LINE",
"1034 820 LINE",
"377 820 LINE",
"377 1308 LINE",
"1072 1308 LINE",
"1072 1456 LINE",
"205 1456 LINE",
"205 0 LINE",
"1102 0 LINE",
"1102 148 LINE"
);
}
);
width = 1218;
}
);
note = E;
unicode = 0045;
},
{
glyphname = F;
lastChange = "2016-08-29 16:03:12 +0000";
layers = (
{
background = {
paths = (
{
closed = 1;
nodes = (
"186 28 OFFCURVE",
"230 0 OFFCURVE",
"275 0 CURVE SMOOTH",
"296 0 OFFCURVE",
"319 7 OFFCURVE",
"336 21 CURVE SMOOTH",
"353 35 OFFCURVE",
"364 56 OFFCURVE",
"364 84 CURVE SMOOTH",
"364 670 LINE",
"949 670 LINE SMOOTH",
"998 670 OFFCURVE",
"1023 706 OFFCURVE",
"1023 743 CURVE SMOOTH",
"1023 779 OFFCURVE",
"998 815 OFFCURVE",
"949 815 CURVE SMOOTH",
"364 815 LINE",
"364 1281 LINE",
"975 1281 LINE SMOOTH",
"1024 1281 OFFCURVE",
"1048 1317 OFFCURVE",
"1048 1354 CURVE SMOOTH",
"1048 1390 OFFCURVE",
"1024 1426 OFFCURVE",
"975 1426 CURVE SMOOTH",
"270 1426 LINE SMOOTH",
"225 1426 OFFCURVE",
"186 1392 OFFCURVE",
"186 1341 CURVE SMOOTH",
"186 84 LINE SMOOTH"
);
}
);
};
layerId = "B7B71B2F-D3C2-46AB-9878-0EE3FC7FFFF4";
paths = (
{
closed = 1;
nodes = (
"186 28 OFFCURVE",
"230 0 OFFCURVE",
"275 0 CURVE SMOOTH",
"296 0 OFFCURVE",
"319 7 OFFCURVE",
"336 21 CURVE SMOOTH",
"353 35 OFFCURVE",
"364 56 OFFCURVE",
"364 84 CURVE SMOOTH",
"364 670 LINE",
"949 670 LINE SMOOTH",
"998 670 OFFCURVE",
"1023 706 OFFCURVE",
"1023 743 CURVE SMOOTH",
"1023 779 OFFCURVE",
"998 815 OFFCURVE",
"949 815 CURVE SMOOTH",
"364 815 LINE",
"364 1281 LINE",
"975 1281 LINE SMOOTH",
"1024 1281 OFFCURVE",
"1048 1317 OFFCURVE",
"1048 1354 CURVE SMOOTH",
"1048 1390 OFFCURVE",
"1024 1426 OFFCURVE",
"975 1426 CURVE SMOOTH",
"270 1426 LINE SMOOTH",
"225 1426 OFFCURVE",
"186 1392 OFFCURVE",
"186 1341 CURVE SMOOTH",
"186 84 LINE SMOOTH"
);
}
);
width = 1150;
},
{
associatedMasterId = "B7B71B2F-D3C2-46AB-9878-0EE3FC7FFFF4";
layerId = "4C0A4C52-A9D9-4A1D-B81B-0EDA934B9EB8";
name = "Light Backup";
paths = (
{
closed = 1;
nodes = (
"1000 686 LINE",
"1000 799 LINE",
"350 799 LINE",
"350 1342 LINE",
"1036 1342 LINE",
"1036 1456 LINE",
"218 1456 LINE",
"218 0 LINE",
"350 0 LINE",
"350 686 LINE"
);
}
);
width = 1137;
},
{
associatedMasterId = "B7B71B2F-D3C2-46AB-9878-0EE3FC7FFFF4";
layerId = "14713F14-1CA6-457F-BEE1-3124B2889DBE";
name = "Light Backup_Reg";
paths = (
{
closed = 1;
nodes = (
"1006 667 LINE",
"1006 815 LINE",
"369 815 LINE",
"369 1308 LINE",
"1040 1308 LINE",
"1040 1456 LINE",
"197 1456 LINE",
"197 0 LINE",
"369 0 LINE",
"369 667 LINE"
);
}
);
width = 1137;
}
);
note = F;
unicode = 0046;
},
{
glyphname = G;
lastChange = "2016-08-29 16:03:12 +0000";
layers = (
{
background = {
paths = (
{
closed = 1;
nodes = (
"817 735 OFFCURVE",
"795 703 OFFCURVE",
"795 668 CURVE SMOOTH",
"795 633 OFFCURVE",
"818 601 OFFCURVE",
"862 601 CURVE SMOOTH",
"1145 601 LINE",
"1145 167 LINE",
"1048 140 OFFCURVE",
"939 123 OFFCURVE",
"834 123 CURVE SMOOTH",
"641 123 OFFCURVE",
"511 179 OFFCURVE",
"429 282 CURVE SMOOTH",
"347 385 OFFCURVE",
"312 537 OFFCURVE",
"312 709 CURVE SMOOTH",
"312 846 OFFCURVE",
"348 1002 OFFCURVE",
"432 1111 CURVE SMOOTH",
"516 1219 OFFCURVE",
"647 1287 OFFCURVE",
"835 1287 CURVE SMOOTH",
"884 1287 OFFCURVE",
"943 1281 OFFCURVE",
"1004 1272 CURVE SMOOTH",
"1065 1263 OFFCURVE",
"1127 1250 OFFCURVE",
"1186 1234 CURVE",
"1189 1233 OFFCURVE",
"1191 1232 OFFCURVE",
"1194 1232 CURVE SMOOTH",
"1202 1232 LINE SMOOTH",
"1241 1232 OFFCURVE",
"1266 1269 OFFCURVE",
"1266 1305 CURVE SMOOTH",
"1266 1329 OFFCURVE",
"1255 1353 OFFCURVE",
"1227 1365 CURVE SMOOTH",
"1112 1413 OFFCURVE",
"973 1438 OFFCURVE",
"828 1438 CURVE SMOOTH",
"668 1438 OFFCURVE",
"537 1400 OFFCURVE",
"433 1335 CURVE SMOOTH",
"328 1270 OFFCURVE",
"251 1177 OFFCURVE",
"200 1067 CURVE SMOOTH",
"148 957 OFFCURVE",
"123 823 OFFCURVE",
"123 712 CURVE SMOOTH",
"123 467 OFFCURVE",
"194 279 OFFCURVE",
"315 157 CURVE SMOOTH",
"436 35 OFFCURVE",
"610 -22 OFFCURVE",
"815 -22 CURVE SMOOTH",
"948 -22 OFFCURVE",
"1108 5 OFFCURVE",
"1255 50 CURVE",
"1292 59 OFFCURVE",
"1321 89 OFFCURVE",
"1321 138 CURVE SMOOTH",
"1321 660 LINE SMOOTH",
"1321 707 OFFCURVE",
"1294 735 OFFCURVE",
"1247 735 CURVE SMOOTH",
"862 735 LINE SMOOTH"
);
}
);
};
layerId = "B7B71B2F-D3C2-46AB-9878-0EE3FC7FFFF4";
paths = (
{
closed = 1;
nodes = (
"817 735 OFFCURVE",
"795 703 OFFCURVE",
"795 668 CURVE SMOOTH",
"795 633 OFFCURVE",
"818 601 OFFCURVE",
"862 601 CURVE SMOOTH",
"1145 601 LINE",
"1145 167 LINE",
"1048 140 OFFCURVE",
"939 123 OFFCURVE",
"834 123 CURVE SMOOTH",
"641 123 OFFCURVE",
"511 179 OFFCURVE",
"429 282 CURVE SMOOTH",
"347 385 OFFCURVE",
"312 537 OFFCURVE",
"312 709 CURVE SMOOTH",
"312 846 OFFCURVE",
"348 1002 OFFCURVE",
"432 1111 CURVE SMOOTH",
"516 1219 OFFCURVE",
"647 1287 OFFCURVE",
"835 1287 CURVE SMOOTH",
"884 1287 OFFCURVE",
"943 1281 OFFCURVE",
"1004 1272 CURVE SMOOTH",
"1065 1263 OFFCURVE",
"1127 1250 OFFCURVE",
"1186 1234 CURVE",
"1189 1233 OFFCURVE",
"1191 1232 OFFCURVE",
"1194 1232 CURVE SMOOTH",
"1202 1232 LINE SMOOTH",
"1241 1232 OFFCURVE",
"1266 1269 OFFCURVE",
"1266 1305 CURVE SMOOTH",
"1266 1329 OFFCURVE",
"1255 1353 OFFCURVE",
"1227 1365 CURVE SMOOTH",
"1112 1413 OFFCURVE",
"973 1438 OFFCURVE",
"828 1438 CURVE SMOOTH",
"668 1438 OFFCURVE",
"537 1400 OFFCURVE",
"433 1335 CURVE SMOOTH",
"328 1270 OFFCURVE",
"251 1177 OFFCURVE",
"200 1067 CURVE SMOOTH",
"148 957 OFFCURVE",
"123 823 OFFCURVE",
"123 712 CURVE SMOOTH",
"123 467 OFFCURVE",
"194 279 OFFCURVE",
"315 157 CURVE SMOOTH",
"436 35 OFFCURVE",
"610 -22 OFFCURVE",
"815 -22 CURVE SMOOTH",
"948 -22 OFFCURVE",
"1108 5 OFFCURVE",
"1255 50 CURVE",
"1292 59 OFFCURVE",
"1321 89 OFFCURVE",
"1321 138 CURVE SMOOTH",
"1321 660 LINE SMOOTH",
"1321 707 OFFCURVE",
"1294 735 OFFCURVE",
"1247 735 CURVE SMOOTH",
"862 735 LINE SMOOTH"
);
}
);
width = 1498;
},
{
associatedMasterId = "B7B71B2F-D3C2-46AB-9878-0EE3FC7FFFF4";
layerId = "4C0A4C52-A9D9-4A1D-B81B-0EDA934B9EB8";
name = "Light Backup";
paths = (
{
closed = 1;
nodes = (
"1227 157 LINE",
"1126 109 OFFCURVE",
"1007 91 OFFCURVE",
"878 91 CURVE SMOOTH",
"674 91 OFFCURVE",
"522 154 OFFCURVE",
"421 263 CURVE SMOOTH",
"320 372 OFFCURVE",
"270 528 OFFCURVE",
"270 713 CURVE SMOOTH",
"270 881 OFFCURVE",
"320 1046 OFFCURVE",
"417 1167 CURVE SMOOTH",
"513 1288 OFFCURVE",
"658 1368 OFFCURVE",
"847 1368 CURVE SMOOTH",
"943 1368 OFFCURVE",
"1031 1353 OFFCURVE",
"1104 1324 CURVE SMOOTH",
"1176 1295 OFFCURVE",
"1233 1250 OFFCURVE",
"1266 1189 CURVE",
"1322 1259 LINE",
"1294 1334 OFFCURVE",
"1232 1390 OFFCURVE",
"1150 1427 CURVE SMOOTH",
"1068 1464 OFFCURVE",
"966 1483 OFFCURVE",
"858 1483 CURVE SMOOTH",
"630 1483 OFFCURVE",
"450 1395 OFFCURVE",
"327 1252 CURVE SMOOTH",
"203 1109 OFFCURVE",
"136 914 OFFCURVE",
"136 698 CURVE SMOOTH",
"136 482 OFFCURVE",
"199 303 OFFCURVE",
"321 176 CURVE SMOOTH",
"443 49 OFFCURVE",
"624 -23 OFFCURVE",
"861 -23 CURVE SMOOTH",
"1033 -23 OFFCURVE",
"1203 3 OFFCURVE",
"1352 75 CURVE",
"1356 738 LINE",
"857 738 LINE",
"857 624 LINE",
"1229 624 LINE"
);
}
);
width = 1530;
},
{
associatedMasterId = "B7B71B2F-D3C2-46AB-9878-0EE3FC7FFFF4";
layerId = "14713F14-1CA6-457F-BEE1-3124B2889DBE";
name = "Light Backup_Reg";
paths = (
{
closed = 1;
nodes = (
"1276 1362 OFFCURVE",
"1208 1409 OFFCURVE",
"1128 1439 CURVE SMOOTH",
"1048 1469 OFFCURVE",
"956 1483 OFFCURVE",
"860 1483 CURVE SMOOTH",
"703 1483 OFFCURVE",
"569 1444 OFFCURVE",
"459 1376 CURVE SMOOTH",
"349 1307 OFFCURVE",
"263 1210 OFFCURVE",
"205 1094 CURVE SMOOTH",
"147 978 OFFCURVE",
"116 844 OFFCURVE",
"116 701 CURVE SMOOTH",
"116 484 OFFCURVE",
"179 303 OFFCURVE",
"303 176 CURVE SMOOTH",
"426 49 OFFCURVE",
"609 -23 OFFCURVE",
"849 -23 CURVE SMOOTH",
"1021 -23 OFFCURVE",
"1191 5 OFFCURVE",
"1352 81 CURVE",
"1352 757 LINE",
"819 757 LINE",
"819 608 LINE",
"1180 608 LINE",
"1180 182 LINE",
"1084 143 OFFCURVE",
"976 125 OFFCURVE",
"863 125 CURVE SMOOTH",
"671 125 OFFCURVE",
"530 185 OFFCURVE",
"435 289 CURVE SMOOTH",
"340 392 OFFCURVE",
"294 539 OFFCURVE",
"294 714 CURVE SMOOTH",
"294 874 OFFCURVE",
"342 1028 OFFCURVE",
"436 1144 CURVE SMOOTH",
"530 1259 OFFCURVE",
"671 1334 OFFCURVE",
"856 1334 CURVE SMOOTH",
"933 1334 OFFCURVE",
"1010 1324 OFFCURVE",
"1079 1301 CURVE SMOOTH",
"1147 1278 OFFCURVE",
"1209 1244 OFFCURVE",
"1258 1196 CURVE",
"1327 1301 LINE"
);
}
);
width = 1530;
}
);
note = G;
unicode = 0047;
},
{
glyphname = H;
lastChange = "2016-08-29 16:03:12 +0000";
layers = (
{
background = {
paths = (
{
closed = 1;
nodes = (
"371 814 LINE",
"371 1342 LINE SMOOTH",
"371 1398 OFFCURVE",
"327 1426 OFFCURVE",
"283 1426 CURVE SMOOTH",
"260 1426 OFFCURVE",
"238 1419 OFFCURVE",
"221 1405 CURVE SMOOTH",
"204 1391 OFFCURVE",
"193 1370 OFFCURVE",
"193 1342 CURVE SMOOTH",
"193 84 LINE SMOOTH",
"193 28 OFFCURVE",
"237 0 OFFCURVE",
"281 0 CURVE SMOOTH",
"304 0 OFFCURVE",
"326 7 OFFCURVE",
"343 21 CURVE SMOOTH",
"360 35 OFFCURVE",
"371 56 OFFCURVE",
"371 84 CURVE SMOOTH",
"371 666 LINE",
"1123 666 LINE",
"1123 84 LINE SMOOTH",
"1123 28 OFFCURVE",
"1167 0 OFFCURVE",
"1211 0 CURVE SMOOTH",
"1234 0 OFFCURVE",
"1256 7 OFFCURVE",
"1273 21 CURVE SMOOTH",
"1290 35 OFFCURVE",
"1301 56 OFFCURVE",
"1301 84 CURVE SMOOTH",
"1301 1342 LINE SMOOTH",
"1301 1398 OFFCURVE",
"1257 1426 OFFCURVE",
"1212 1426 CURVE SMOOTH",
"1189 1426 OFFCURVE",
"1167 1419 OFFCURVE",
"1151 1405 CURVE SMOOTH",
"1134 1391 OFFCURVE",
"1123 1370 OFFCURVE",
"1123 1342 CURVE SMOOTH",
"1123 814 LINE"
);
}
);
};
layerId = "B7B71B2F-D3C2-46AB-9878-0EE3FC7FFFF4";
paths = (
{
closed = 1;
nodes = (
"371 814 LINE",
"371 1342 LINE SMOOTH",
"371 1398 OFFCURVE",
"327 1426 OFFCURVE",
"283 1426 CURVE SMOOTH",
"260 1426 OFFCURVE",
"238 1419 OFFCURVE",
"221 1405 CURVE SMOOTH",
"204 1391 OFFCURVE",
"193 1370 OFFCURVE",
"193 1342 CURVE SMOOTH",
"193 84 LINE SMOOTH",
"193 28 OFFCURVE",
"237 0 OFFCURVE",
"281 0 CURVE SMOOTH",
"304 0 OFFCURVE",
"326 7 OFFCURVE",
"343 21 CURVE SMOOTH",
"360 35 OFFCURVE",
"371 56 OFFCURVE",
"371 84 CURVE SMOOTH",
"371 666 LINE",
"1123 666 LINE",
"1123 84 LINE SMOOTH",
"1123 28 OFFCURVE",
"1167 0 OFFCURVE",
"1211 0 CURVE SMOOTH",
"1234 0 OFFCURVE",
"1256 7 OFFCURVE",
"1273 21 CURVE SMOOTH",
"1290 35 OFFCURVE",
"1301 56 OFFCURVE",
"1301 84 CURVE SMOOTH",
"1301 1342 LINE SMOOTH",
"1301 1398 OFFCURVE",
"1257 1426 OFFCURVE",
"1212 1426 CURVE SMOOTH",
"1189 1426 OFFCURVE",
"1167 1419 OFFCURVE",
"1151 1405 CURVE SMOOTH",
"1134 1391 OFFCURVE",
"1123 1370 OFFCURVE",
"1123 1342 CURVE SMOOTH",
"1123 814 LINE"
);
}
);
width = 1494;
},
{
associatedMasterId = "B7B71B2F-D3C2-46AB-9878-0EE3FC7FFFF4";
layerId = "4C0A4C52-A9D9-4A1D-B81B-0EDA934B9EB8";
name = "Light Backup";
paths = (
{
closed = 1;
nodes = (
"1219 693 LINE",
"1219 0 LINE",
"1353 0 LINE",
"1353 1456 LINE",
"1223 1456 LINE",
"1223 806 LINE",
"355 806 LINE",
"355 1456 LINE",
"220 1456 LINE",
"220 0 LINE",
"351 0 LINE",
"351 693 LINE"
);
}
);
width = 1555;
},
{
associatedMasterId = "B7B71B2F-D3C2-46AB-9878-0EE3FC7FFFF4";
layerId = "14713F14-1CA6-457F-BEE1-3124B2889DBE";
name = "Light Backup_Reg";
paths = (
{
closed = 1;
nodes = (
"1176 674 LINE",
"1176 0 LINE",
"1347 0 LINE",
"1347 1456 LINE",
"1176 1456 LINE",
"1176 822 LINE",
"374 822 LINE",
"374 1456 LINE",
"202 1456 LINE",
"202 0 LINE",
"374 0 LINE",
"374 674 LINE"
);
}
);
width = 1555;
}
);
note = H;
unicode = 0048;
},
{
glyphname = I;
lastChange = "2016-08-29 16:03:12 +0000";
layers = (
{
background = {
paths = (
{
closed = 1;
nodes = (
"208 28 OFFCURVE",
"252 0 OFFCURVE",
"296 0 CURVE SMOOTH",
"319 0 OFFCURVE",
"341 7 OFFCURVE",
"358 21 CURVE SMOOTH",
"375 35 OFFCURVE",
"386 56 OFFCURVE",
"386 84 CURVE SMOOTH",
"386 1341 LINE SMOOTH",
"386 1398 OFFCURVE",
"342 1426 OFFCURVE",
"298 1426 CURVE SMOOTH",
"275 1426 OFFCURVE",
"253 1419 OFFCURVE",
"236 1405 CURVE SMOOTH",
"219 1391 OFFCURVE",
"208 1369 OFFCURVE",
"208 1341 CURVE SMOOTH",
"208 84 LINE SMOOTH"
);
}
);
};
layerId = "B7B71B2F-D3C2-46AB-9878-0EE3FC7FFFF4";
paths = (
{
closed = 1;
nodes = (
"208 28 OFFCURVE",
"252 0 OFFCURVE",
"296 0 CURVE SMOOTH",
"319 0 OFFCURVE",
"341 7 OFFCURVE",
"358 21 CURVE SMOOTH",
"375 35 OFFCURVE",
"386 56 OFFCURVE",
"386 84 CURVE SMOOTH",
"386 1341 LINE SMOOTH",
"386 1398 OFFCURVE",
"342 1426 OFFCURVE",
"298 1426 CURVE SMOOTH",
"275 1426 OFFCURVE",
"253 1419 OFFCURVE",
"236 1405 CURVE SMOOTH",
"219 1391 OFFCURVE",
"208 1369 OFFCURVE",
"208 1341 CURVE SMOOTH",
"208 84 LINE SMOOTH"
);
}
);
width = 592;
},
{
associatedMasterId = "B7B71B2F-D3C2-46AB-9878-0EE3FC7FFFF4";
layerId = "4C0A4C52-A9D9-4A1D-B81B-0EDA934B9EB8";
name = "Light Backup";
paths = (
{
closed = 1;
nodes = (
"235 1456 LINE",
"235 0 LINE",
"370 0 LINE",
"370 1456 LINE"
);
}
);
width = 591;
},
{
associatedMasterId = "B7B71B2F-D3C2-46AB-9878-0EE3FC7FFFF4";
layerId = "14713F14-1CA6-457F-BEE1-3124B2889DBE";
name = "Light Backup_Reg";
paths = (
{
closed = 1;
nodes = (
"210 1456 LINE",
"210 0 LINE",
"382 0 LINE",
"382 1456 LINE"
);
}
);
width = 591;
}
);
note = I;
unicode = 0049;
},
{
glyphname = J;
lastChange = "2016-08-29 16:03:12 +0000";
layers = (
{
background = {
paths = (
{
closed = 1;
nodes = (
"708 223 OFFCURVE",
"613 121 OFFCURVE",
"446 121 CURVE SMOOTH",
"317 121 OFFCURVE",
"238 191 OFFCURVE",
"195 312 CURVE",
"180 341 OFFCURVE",
"156 353 OFFCURVE",
"131 353 CURVE SMOOTH",
"95 353 OFFCURVE",
"59 326 OFFCURVE",
"59 282 CURVE SMOOTH",
"59 269 OFFCURVE",
"62 254 OFFCURVE",
"69 239 CURVE",
"97 155 OFFCURVE",
"150 90 OFFCURVE",
"217 46 CURVE SMOOTH",
"284 2 OFFCURVE",
"363 -22 OFFCURVE",
"446 -22 CURVE SMOOTH",
"558 -22 OFFCURVE",
"669 10 OFFCURVE",
"751 83 CURVE SMOOTH",
"833 156 OFFCURVE",
"887 272 OFFCURVE",
"887 441 CURVE SMOOTH",
"887 1343 LINE SMOOTH",
"887 1371 OFFCURVE",
"876 1392 OFFCURVE",
"860 1406 CURVE SMOOTH",
"843 1420 OFFCURVE",
"821 1426 OFFCURVE",
"798 1426 CURVE SMOOTH",
"775 1426 OFFCURVE",
"753 1420 OFFCURVE",
"736 1406 CURVE SMOOTH",
"719 1392 OFFCURVE",
"708 1371 OFFCURVE",
"708 1343 CURVE SMOOTH",
"708 456 LINE SMOOTH"
);
}
);
};
layerId = "B7B71B2F-D3C2-46AB-9878-0EE3FC7FFFF4";
paths = (
{
closed = 1;
nodes = (
"708 223 OFFCURVE",
"613 121 OFFCURVE",
"446 121 CURVE SMOOTH",
"317 121 OFFCURVE",
"238 191 OFFCURVE",
"195 312 CURVE",
"180 341 OFFCURVE",
"156 353 OFFCURVE",
"131 353 CURVE SMOOTH",
"95 353 OFFCURVE",
"59 326 OFFCURVE",
"59 282 CURVE SMOOTH",
"59 269 OFFCURVE",
"62 254 OFFCURVE",
"69 239 CURVE",
"97 155 OFFCURVE",
"150 90 OFFCURVE",
"217 46 CURVE SMOOTH",
"284 2 OFFCURVE",
"363 -22 OFFCURVE",
"446 -22 CURVE SMOOTH",
"558 -22 OFFCURVE",
"669 10 OFFCURVE",
"751 83 CURVE SMOOTH",
"833 156 OFFCURVE",
"887 272 OFFCURVE",
"887 441 CURVE SMOOTH",
"887 1343 LINE SMOOTH",
"887 1371 OFFCURVE",
"876 1392 OFFCURVE",
"860 1406 CURVE SMOOTH",
"843 1420 OFFCURVE",
"821 1426 OFFCURVE",
"798 1426 CURVE SMOOTH",
"775 1426 OFFCURVE",
"753 1420 OFFCURVE",
"736 1406 CURVE SMOOTH",
"719 1392 OFFCURVE",
"708 1371 OFFCURVE",
"708 1343 CURVE SMOOTH",
"708 456 LINE SMOOTH"
);
}
);
width = 1058;
},
{
associatedMasterId = "B7B71B2F-D3C2-46AB-9878-0EE3FC7FFFF4";
layerId = "4C0A4C52-A9D9-4A1D-B81B-0EDA934B9EB8";
name = "Light Backup";
paths = (
{
closed = 1;
nodes = (
"192 -4 OFFCURVE",
"249 -23 OFFCURVE",
"325 -23 CURVE SMOOTH",
"457 -23 OFFCURVE",
"561 18 OFFCURVE",
"633 103 CURVE SMOOTH",
"704 188 OFFCURVE",
"743 317 OFFCURVE",
"744 493 CURVE SMOOTH",
"748 1456 LINE",
"620 1456 LINE",
"614 482 LINE SMOOTH",
"613 363 OFFCURVE",
"593 265 OFFCURVE",
"548 197 CURVE SMOOTH",
"503 129 OFFCURVE",
"433 91 OFFCURVE",
"332 91 CURVE SMOOTH",
"261 91 OFFCURVE",
"207 103 OFFCURVE",
"168 126 CURVE",
"145 31 LINE"
);
}
);
width = 939;
},
{
associatedMasterId = "B7B71B2F-D3C2-46AB-9878-0EE3FC7FFFF4";
layerId = "14713F14-1CA6-457F-BEE1-3124B2889DBE";
name = "Light Backup_Reg";
paths = (
{
closed = 1;
nodes = (
"136 16 OFFCURVE",
"217 -23 OFFCURVE",
"321 -23 CURVE SMOOTH",
"457 -23 OFFCURVE",
"564 23 OFFCURVE",
"639 111 CURVE SMOOTH",
"714 199 OFFCURVE",
"755 330 OFFCURVE",
"755 499 CURVE SMOOTH",
"755 1456 LINE",
"583 1456 LINE",
"583 488 LINE SMOOTH",
"583 384 OFFCURVE",
"563 294 OFFCURVE",
"521 229 CURVE SMOOTH",
"479 164 OFFCURVE",
"414 125 OFFCURVE",
"326 125 CURVE SMOOTH",
"246 125 OFFCURVE",
"181 152 OFFCURVE",
"122 197 CURVE",
"71 81 LINE"
);
}
);
width = 939;
}
);
note = J;
unicode = 004A;
},
{
glyphname = K;
lastChange = "2016-08-29 16:03:12 +0000";
layers = (
{
background = {
paths = (
{
closed = 1;
nodes = (
"1026 35 LINE",
"1046 11 OFFCURVE",
"1071 0 OFFCURVE",
"1095 0 CURVE SMOOTH",
"1119 0 OFFCURVE",
"1141 9 OFFCURVE",
"1158 25 CURVE SMOOTH",
"1175 40 OFFCURVE",
"1186 61 OFFCURVE",
"1186 84 CURVE SMOOTH",
"1186 102 OFFCURVE",
"1179 120 OFFCURVE",
"1164 139 CURVE",
"568 779 LINE",
"1108 1302 LINE",
"1121 1319 OFFCURVE",
"1128 1336 OFFCURVE",
"1128 1353 CURVE SMOOTH",
"1128 1394 OFFCURVE",
"1091 1426 OFFCURVE",
"1048 1426 CURVE SMOOTH",
"1025 1426 OFFCURVE",
"1002 1418 OFFCURVE",
"983 1395 CURVE",
"381 797 LINE",
"381 1342 LINE SMOOTH",
"381 1370 OFFCURVE",
"370 1391 OFFCURVE",
"354 1405 CURVE SMOOTH",
"337 1419 OFFCURVE",
"315 1426 OFFCURVE",
"294 1426 CURVE SMOOTH",
"250 1426 OFFCURVE",
"206 1398 OFFCURVE",
"206 1342 CURVE SMOOTH",
"206 83 LINE SMOOTH",
"206 55 OFFCURVE",
"217 35 OFFCURVE",
"233 21 CURVE SMOOTH",
"249 7 OFFCURVE",
"271 0 OFFCURVE",
"292 0 CURVE SMOOTH",
"313 0 OFFCURVE",
"336 7 OFFCURVE",
"353 21 CURVE SMOOTH",
"370 35 OFFCURVE",
"381 55 OFFCURVE",
"381 83 CURVE SMOOTH",
"381 733 LINE"
);
}
);
};
layerId = "B7B71B2F-D3C2-46AB-9878-0EE3FC7FFFF4";
paths = (
{
closed = 1;
nodes = (
"1026 35 LINE",
"1046 11 OFFCURVE",
"1071 0 OFFCURVE",
"1095 0 CURVE SMOOTH",
"1119 0 OFFCURVE",
"1141 9 OFFCURVE",
"1158 25 CURVE SMOOTH",
"1175 40 OFFCURVE",
"1186 61 OFFCURVE",
"1186 84 CURVE SMOOTH",
"1186 102 OFFCURVE",
"1179 120 OFFCURVE",
"1164 139 CURVE",
"568 779 LINE",
"1108 1302 LINE",
"1121 1319 OFFCURVE",
"1128 1336 OFFCURVE",
"1128 1353 CURVE SMOOTH",
"1128 1394 OFFCURVE",
"1091 1426 OFFCURVE",
"1048 1426 CURVE SMOOTH",
"1025 1426 OFFCURVE",
"1002 1418 OFFCURVE",
"983 1395 CURVE",
"381 797 LINE",
"381 1342 LINE SMOOTH",
"381 1370 OFFCURVE",
"370 1391 OFFCURVE",
"354 1405 CURVE SMOOTH",
"337 1419 OFFCURVE",
"315 1426 OFFCURVE",
"294 1426 CURVE SMOOTH",
"250 1426 OFFCURVE",
"206 1398 OFFCURVE",
"206 1342 CURVE SMOOTH",
"206 83 LINE SMOOTH",
"206 55 OFFCURVE",
"217 35 OFFCURVE",
"233 21 CURVE SMOOTH",
"249 7 OFFCURVE",
"271 0 OFFCURVE",
"292 0 CURVE SMOOTH",
"313 0 OFFCURVE",
"336 7 OFFCURVE",
"353 21 CURVE SMOOTH",
"370 35 OFFCURVE",
"381 55 OFFCURVE",
"381 83 CURVE SMOOTH",
"381 733 LINE"
);
}
);
width = 1289;
},
{
associatedMasterId = "B7B71B2F-D3C2-46AB-9878-0EE3FC7FFFF4";
layerId = "4C0A4C52-A9D9-4A1D-B81B-0EDA934B9EB8";
name = "Light Backup";
paths = (
{
closed = 1;
nodes = (
"228 1456 LINE",
"228 0 LINE",
"360 0 LINE",
"360 759 LINE",
"1088 0 LINE",
"1271 0 LINE",
"533 758 LINE",
"1219 1456 LINE",
"1058 1456 LINE",
"362 769 LINE",
"362 1456 LINE"
);
}
);
width = 1294;
},
{
associatedMasterId = "B7B71B2F-D3C2-46AB-9878-0EE3FC7FFFF4";
layerId = "14713F14-1CA6-457F-BEE1-3124B2889DBE";
name = "Light Backup_Reg";
paths = (
{
closed = 1;
nodes = (
"466 634 LINE",
"1060 0 LINE",
"1296 0 LINE",
"553 778 LINE",
"1242 1456 LINE",
"1026 1456 LINE",
"470 887 LINE",
"382 796 LINE",
"382 1456 LINE",
"210 1456 LINE",
"210 0 LINE",
"382 0 LINE",
"382 725 LINE"
);
}
);
width = 1294;
}
);
note = K;
unicode = 004B;
},
{
glyphname = L;
lastChange = "2016-08-29 16:03:12 +0000";
layers = (
{
background = {
paths = (
{
closed = 1;
nodes = (
"1069 0 OFFCURVE",
"1094 37 OFFCURVE",
"1094 73 CURVE SMOOTH",
"1094 110 OFFCURVE",
"1071 146 OFFCURVE",
"1020 146 CURVE SMOOTH",
"373 146 LINE",
"373 1342 LINE SMOOTH",
"373 1398 OFFCURVE",
"329 1426 OFFCURVE",
"285 1426 CURVE SMOOTH",
"262 1426 OFFCURVE",
"240 1419 OFFCURVE",
"223 1405 CURVE SMOOTH",
"206 1391 OFFCURVE",
"195 1370 OFFCURVE",
"195 1342 CURVE SMOOTH",
"195 87 LINE SMOOTH",
"195 63 OFFCURVE",
"206 41 OFFCURVE",
"222 25 CURVE SMOOTH",
"238 9 OFFCURVE",
"261 0 OFFCURVE",
"285 0 CURVE SMOOTH",
"1020 0 LINE SMOOTH"
);
}
);
};
layerId = "B7B71B2F-D3C2-46AB-9878-0EE3FC7FFFF4";
paths = (
{
closed = 1;
nodes = (
"1069 0 OFFCURVE",
"1094 37 OFFCURVE",
"1094 73 CURVE SMOOTH",
"1094 110 OFFCURVE",
"1071 146 OFFCURVE",
"1020 146 CURVE SMOOTH",
"373 146 LINE",
"373 1342 LINE SMOOTH",
"373 1398 OFFCURVE",
"329 1426 OFFCURVE",
"285 1426 CURVE SMOOTH",
"262 1426 OFFCURVE",
"240 1419 OFFCURVE",
"223 1405 CURVE SMOOTH",
"206 1391 OFFCURVE",
"195 1370 OFFCURVE",
"195 1342 CURVE SMOOTH",
"195 87 LINE SMOOTH",
"195 63 OFFCURVE",
"206 41 OFFCURVE",
"222 25 CURVE SMOOTH",
"238 9 OFFCURVE",
"261 0 OFFCURVE",
"285 0 CURVE SMOOTH",
"1020 0 LINE SMOOTH"
);
}
);
width = 1150;
},
{
associatedMasterId = "B7B71B2F-D3C2-46AB-9878-0EE3FC7FFFF4";
layerId = "4C0A4C52-A9D9-4A1D-B81B-0EDA934B9EB8";
name = "Light Backup";
paths = (
{
closed = 1;
nodes = (
"356 114 LINE",
"356 1456 LINE",
"224 1456 LINE",
"224 0 LINE",
"1068 0 LINE",
"1068 114 LINE"
);
}
);
width = 1120;
},
{
associatedMasterId = "B7B71B2F-D3C2-46AB-9878-0EE3FC7FFFF4";
layerId = "14713F14-1CA6-457F-BEE1-3124B2889DBE";
name = "Light Backup_Reg";
paths = (
{
closed = 1;
nodes = (
"374 148 LINE",
"374 1456 LINE",
"202 1456 LINE",
"202 0 LINE",
"1073 0 LINE",
"1071 148 LINE"
);
}
);
width = 1120;
}
);
note = L;
unicode = 004C;
},
